%TF.GenerationSoftware,KiCad,Pcbnew,5.1.8-db9833491~87~ubuntu20.04.1*%
%TF.CreationDate,2020-11-05T18:08:50+01:00*%
%TF.ProjectId,rosalyn-tx,726f7361-6c79-46e2-9d74-782e6b696361,v1.0*%
%TF.SameCoordinates,Original*%
%TF.FileFunction,Paste,Top*%
%TF.FilePolarity,Positive*%
%FSLAX46Y46*%
G04 Gerber Fmt 4.6, Leading zero omitted, Abs format (unit mm)*
G04 Created by KiCad (PCBNEW 5.1.8-db9833491~87~ubuntu20.04.1) date 2020-11-05 18:08:50*
%MOMM*%
%LPD*%
G01*
G04 APERTURE LIST*
%ADD10R,1.500000X0.750000*%
%ADD11R,0.650000X1.060000*%
%ADD12R,0.900000X0.800000*%
%ADD13R,0.600000X0.450000*%
G04 APERTURE END LIST*
%TO.C,J5*%
G36*
G01*
X134450001Y-65650000D02*
X133149999Y-65650000D01*
G75*
G02*
X132900000Y-65400001I0J249999D01*
G01*
X132900000Y-64699999D01*
G75*
G02*
X133149999Y-64450000I249999J0D01*
G01*
X134450001Y-64450000D01*
G75*
G02*
X134700000Y-64699999I0J-249999D01*
G01*
X134700000Y-65400001D01*
G75*
G02*
X134450001Y-65650000I-249999J0D01*
G01*
G37*
G36*
G01*
X134450001Y-71250000D02*
X133149999Y-71250000D01*
G75*
G02*
X132900000Y-71000001I0J249999D01*
G01*
X132900000Y-70299999D01*
G75*
G02*
X133149999Y-70050000I249999J0D01*
G01*
X134450001Y-70050000D01*
G75*
G02*
X134700000Y-70299999I0J-249999D01*
G01*
X134700000Y-71000001D01*
G75*
G02*
X134450001Y-71250000I-249999J0D01*
G01*
G37*
G36*
G01*
X136950000Y-66650000D02*
X135700000Y-66650000D01*
G75*
G02*
X135550000Y-66500000I0J150000D01*
G01*
X135550000Y-66200000D01*
G75*
G02*
X135700000Y-66050000I150000J0D01*
G01*
X136950000Y-66050000D01*
G75*
G02*
X137100000Y-66200000I0J-150000D01*
G01*
X137100000Y-66500000D01*
G75*
G02*
X136950000Y-66650000I-150000J0D01*
G01*
G37*
G36*
G01*
X136950000Y-67650000D02*
X135700000Y-67650000D01*
G75*
G02*
X135550000Y-67500000I0J150000D01*
G01*
X135550000Y-67200000D01*
G75*
G02*
X135700000Y-67050000I150000J0D01*
G01*
X136950000Y-67050000D01*
G75*
G02*
X137100000Y-67200000I0J-150000D01*
G01*
X137100000Y-67500000D01*
G75*
G02*
X136950000Y-67650000I-150000J0D01*
G01*
G37*
G36*
G01*
X136950000Y-68650000D02*
X135700000Y-68650000D01*
G75*
G02*
X135550000Y-68500000I0J150000D01*
G01*
X135550000Y-68200000D01*
G75*
G02*
X135700000Y-68050000I150000J0D01*
G01*
X136950000Y-68050000D01*
G75*
G02*
X137100000Y-68200000I0J-150000D01*
G01*
X137100000Y-68500000D01*
G75*
G02*
X136950000Y-68650000I-150000J0D01*
G01*
G37*
G36*
G01*
X136950000Y-69650000D02*
X135700000Y-69650000D01*
G75*
G02*
X135550000Y-69500000I0J150000D01*
G01*
X135550000Y-69200000D01*
G75*
G02*
X135700000Y-69050000I150000J0D01*
G01*
X136950000Y-69050000D01*
G75*
G02*
X137100000Y-69200000I0J-150000D01*
G01*
X137100000Y-69500000D01*
G75*
G02*
X136950000Y-69650000I-150000J0D01*
G01*
G37*
%TD*%
%TO.C,J4*%
G36*
G01*
X134450001Y-57800000D02*
X133149999Y-57800000D01*
G75*
G02*
X132900000Y-57550001I0J249999D01*
G01*
X132900000Y-56849999D01*
G75*
G02*
X133149999Y-56600000I249999J0D01*
G01*
X134450001Y-56600000D01*
G75*
G02*
X134700000Y-56849999I0J-249999D01*
G01*
X134700000Y-57550001D01*
G75*
G02*
X134450001Y-57800000I-249999J0D01*
G01*
G37*
G36*
G01*
X134450001Y-63400000D02*
X133149999Y-63400000D01*
G75*
G02*
X132900000Y-63150001I0J249999D01*
G01*
X132900000Y-62449999D01*
G75*
G02*
X133149999Y-62200000I249999J0D01*
G01*
X134450001Y-62200000D01*
G75*
G02*
X134700000Y-62449999I0J-249999D01*
G01*
X134700000Y-63150001D01*
G75*
G02*
X134450001Y-63400000I-249999J0D01*
G01*
G37*
G36*
G01*
X136950000Y-58800000D02*
X135700000Y-58800000D01*
G75*
G02*
X135550000Y-58650000I0J150000D01*
G01*
X135550000Y-58350000D01*
G75*
G02*
X135700000Y-58200000I150000J0D01*
G01*
X136950000Y-58200000D01*
G75*
G02*
X137100000Y-58350000I0J-150000D01*
G01*
X137100000Y-58650000D01*
G75*
G02*
X136950000Y-58800000I-150000J0D01*
G01*
G37*
G36*
G01*
X136950000Y-59800000D02*
X135700000Y-59800000D01*
G75*
G02*
X135550000Y-59650000I0J150000D01*
G01*
X135550000Y-59350000D01*
G75*
G02*
X135700000Y-59200000I150000J0D01*
G01*
X136950000Y-59200000D01*
G75*
G02*
X137100000Y-59350000I0J-150000D01*
G01*
X137100000Y-59650000D01*
G75*
G02*
X136950000Y-59800000I-150000J0D01*
G01*
G37*
G36*
G01*
X136950000Y-60800000D02*
X135700000Y-60800000D01*
G75*
G02*
X135550000Y-60650000I0J150000D01*
G01*
X135550000Y-60350000D01*
G75*
G02*
X135700000Y-60200000I150000J0D01*
G01*
X136950000Y-60200000D01*
G75*
G02*
X137100000Y-60350000I0J-150000D01*
G01*
X137100000Y-60650000D01*
G75*
G02*
X136950000Y-60800000I-150000J0D01*
G01*
G37*
G36*
G01*
X136950000Y-61800000D02*
X135700000Y-61800000D01*
G75*
G02*
X135550000Y-61650000I0J150000D01*
G01*
X135550000Y-61350000D01*
G75*
G02*
X135700000Y-61200000I150000J0D01*
G01*
X136950000Y-61200000D01*
G75*
G02*
X137100000Y-61350000I0J-150000D01*
G01*
X137100000Y-61650000D01*
G75*
G02*
X136950000Y-61800000I-150000J0D01*
G01*
G37*
%TD*%
%TO.C,J2*%
G36*
G01*
X134450001Y-49950000D02*
X133149999Y-49950000D01*
G75*
G02*
X132900000Y-49700001I0J249999D01*
G01*
X132900000Y-48999999D01*
G75*
G02*
X133149999Y-48750000I249999J0D01*
G01*
X134450001Y-48750000D01*
G75*
G02*
X134700000Y-48999999I0J-249999D01*
G01*
X134700000Y-49700001D01*
G75*
G02*
X134450001Y-49950000I-249999J0D01*
G01*
G37*
G36*
G01*
X134450001Y-55550000D02*
X133149999Y-55550000D01*
G75*
G02*
X132900000Y-55300001I0J249999D01*
G01*
X132900000Y-54599999D01*
G75*
G02*
X133149999Y-54350000I249999J0D01*
G01*
X134450001Y-54350000D01*
G75*
G02*
X134700000Y-54599999I0J-249999D01*
G01*
X134700000Y-55300001D01*
G75*
G02*
X134450001Y-55550000I-249999J0D01*
G01*
G37*
G36*
G01*
X136950000Y-50950000D02*
X135700000Y-50950000D01*
G75*
G02*
X135550000Y-50800000I0J150000D01*
G01*
X135550000Y-50500000D01*
G75*
G02*
X135700000Y-50350000I150000J0D01*
G01*
X136950000Y-50350000D01*
G75*
G02*
X137100000Y-50500000I0J-150000D01*
G01*
X137100000Y-50800000D01*
G75*
G02*
X136950000Y-50950000I-150000J0D01*
G01*
G37*
G36*
G01*
X136950000Y-51950000D02*
X135700000Y-51950000D01*
G75*
G02*
X135550000Y-51800000I0J150000D01*
G01*
X135550000Y-51500000D01*
G75*
G02*
X135700000Y-51350000I150000J0D01*
G01*
X136950000Y-51350000D01*
G75*
G02*
X137100000Y-51500000I0J-150000D01*
G01*
X137100000Y-51800000D01*
G75*
G02*
X136950000Y-51950000I-150000J0D01*
G01*
G37*
G36*
G01*
X136950000Y-52950000D02*
X135700000Y-52950000D01*
G75*
G02*
X135550000Y-52800000I0J150000D01*
G01*
X135550000Y-52500000D01*
G75*
G02*
X135700000Y-52350000I150000J0D01*
G01*
X136950000Y-52350000D01*
G75*
G02*
X137100000Y-52500000I0J-150000D01*
G01*
X137100000Y-52800000D01*
G75*
G02*
X136950000Y-52950000I-150000J0D01*
G01*
G37*
G36*
G01*
X136950000Y-53950000D02*
X135700000Y-53950000D01*
G75*
G02*
X135550000Y-53800000I0J150000D01*
G01*
X135550000Y-53500000D01*
G75*
G02*
X135700000Y-53350000I150000J0D01*
G01*
X136950000Y-53350000D01*
G75*
G02*
X137100000Y-53500000I0J-150000D01*
G01*
X137100000Y-53800000D01*
G75*
G02*
X136950000Y-53950000I-150000J0D01*
G01*
G37*
%TD*%
D10*
%TO.C,U4*%
X173900000Y-52000000D03*
X173900000Y-53270000D03*
X173900000Y-54540000D03*
X173900000Y-60110000D03*
X173900000Y-61380000D03*
X173900000Y-62650000D03*
X173900000Y-63920000D03*
X173900000Y-65190000D03*
X173900000Y-66460000D03*
X173900000Y-67730000D03*
X173900000Y-69000000D03*
X160900000Y-69000000D03*
X160900000Y-67730000D03*
X160900000Y-66460000D03*
X160900000Y-65190000D03*
X160900000Y-63920000D03*
X160900000Y-62650000D03*
X160900000Y-61380000D03*
X160900000Y-60110000D03*
X160900000Y-54540000D03*
X160900000Y-53270000D03*
X160900000Y-52000000D03*
%TD*%
%TO.C,C14*%
G36*
G01*
X156985000Y-67550000D02*
X157935000Y-67550000D01*
G75*
G02*
X158185000Y-67800000I0J-250000D01*
G01*
X158185000Y-68300000D01*
G75*
G02*
X157935000Y-68550000I-250000J0D01*
G01*
X156985000Y-68550000D01*
G75*
G02*
X156735000Y-68300000I0J250000D01*
G01*
X156735000Y-67800000D01*
G75*
G02*
X156985000Y-67550000I250000J0D01*
G01*
G37*
G36*
G01*
X156985000Y-65650000D02*
X157935000Y-65650000D01*
G75*
G02*
X158185000Y-65900000I0J-250000D01*
G01*
X158185000Y-66400000D01*
G75*
G02*
X157935000Y-66650000I-250000J0D01*
G01*
X156985000Y-66650000D01*
G75*
G02*
X156735000Y-66400000I0J250000D01*
G01*
X156735000Y-65900000D01*
G75*
G02*
X156985000Y-65650000I250000J0D01*
G01*
G37*
%TD*%
%TO.C,C9*%
G36*
G01*
X154340000Y-57185000D02*
X153840000Y-57185000D01*
G75*
G02*
X153615000Y-56960000I0J225000D01*
G01*
X153615000Y-56510000D01*
G75*
G02*
X153840000Y-56285000I225000J0D01*
G01*
X154340000Y-56285000D01*
G75*
G02*
X154565000Y-56510000I0J-225000D01*
G01*
X154565000Y-56960000D01*
G75*
G02*
X154340000Y-57185000I-225000J0D01*
G01*
G37*
G36*
G01*
X154340000Y-58735000D02*
X153840000Y-58735000D01*
G75*
G02*
X153615000Y-58510000I0J225000D01*
G01*
X153615000Y-58060000D01*
G75*
G02*
X153840000Y-57835000I225000J0D01*
G01*
X154340000Y-57835000D01*
G75*
G02*
X154565000Y-58060000I0J-225000D01*
G01*
X154565000Y-58510000D01*
G75*
G02*
X154340000Y-58735000I-225000J0D01*
G01*
G37*
%TD*%
%TO.C,C6*%
G36*
G01*
X144020000Y-55055000D02*
X144520000Y-55055000D01*
G75*
G02*
X144745000Y-55280000I0J-225000D01*
G01*
X144745000Y-55730000D01*
G75*
G02*
X144520000Y-55955000I-225000J0D01*
G01*
X144020000Y-55955000D01*
G75*
G02*
X143795000Y-55730000I0J225000D01*
G01*
X143795000Y-55280000D01*
G75*
G02*
X144020000Y-55055000I225000J0D01*
G01*
G37*
G36*
G01*
X144020000Y-53505000D02*
X144520000Y-53505000D01*
G75*
G02*
X144745000Y-53730000I0J-225000D01*
G01*
X144745000Y-54180000D01*
G75*
G02*
X144520000Y-54405000I-225000J0D01*
G01*
X144020000Y-54405000D01*
G75*
G02*
X143795000Y-54180000I0J225000D01*
G01*
X143795000Y-53730000D01*
G75*
G02*
X144020000Y-53505000I225000J0D01*
G01*
G37*
%TD*%
D11*
%TO.C,U5*%
X146700000Y-53100000D03*
X147650000Y-53100000D03*
X148600000Y-53100000D03*
X148600000Y-50900000D03*
X146700000Y-50900000D03*
X147650000Y-50900000D03*
%TD*%
%TO.C,C2*%
G36*
G01*
X125420000Y-62863750D02*
X125420000Y-63776250D01*
G75*
G02*
X125176250Y-64020000I-243750J0D01*
G01*
X124688750Y-64020000D01*
G75*
G02*
X124445000Y-63776250I0J243750D01*
G01*
X124445000Y-62863750D01*
G75*
G02*
X124688750Y-62620000I243750J0D01*
G01*
X125176250Y-62620000D01*
G75*
G02*
X125420000Y-62863750I0J-243750D01*
G01*
G37*
G36*
G01*
X127295000Y-62863750D02*
X127295000Y-63776250D01*
G75*
G02*
X127051250Y-64020000I-243750J0D01*
G01*
X126563750Y-64020000D01*
G75*
G02*
X126320000Y-63776250I0J243750D01*
G01*
X126320000Y-62863750D01*
G75*
G02*
X126563750Y-62620000I243750J0D01*
G01*
X127051250Y-62620000D01*
G75*
G02*
X127295000Y-62863750I0J-243750D01*
G01*
G37*
%TD*%
%TO.C,C1*%
G36*
G01*
X126300000Y-69566250D02*
X126300000Y-68653750D01*
G75*
G02*
X126543750Y-68410000I243750J0D01*
G01*
X127031250Y-68410000D01*
G75*
G02*
X127275000Y-68653750I0J-243750D01*
G01*
X127275000Y-69566250D01*
G75*
G02*
X127031250Y-69810000I-243750J0D01*
G01*
X126543750Y-69810000D01*
G75*
G02*
X126300000Y-69566250I0J243750D01*
G01*
G37*
G36*
G01*
X124425000Y-69566250D02*
X124425000Y-68653750D01*
G75*
G02*
X124668750Y-68410000I243750J0D01*
G01*
X125156250Y-68410000D01*
G75*
G02*
X125400000Y-68653750I0J-243750D01*
G01*
X125400000Y-69566250D01*
G75*
G02*
X125156250Y-69810000I-243750J0D01*
G01*
X124668750Y-69810000D01*
G75*
G02*
X124425000Y-69566250I0J243750D01*
G01*
G37*
%TD*%
%TO.C,U1*%
X124900000Y-65120000D03*
X126800000Y-65120000D03*
X126800000Y-67320000D03*
X125850000Y-67320000D03*
X124900000Y-67320000D03*
%TD*%
D12*
%TO.C,U2*%
X126830000Y-55330000D03*
X126830000Y-53430000D03*
X124830000Y-54380000D03*
%TD*%
D13*
%TO.C,D1*%
X124840000Y-59440000D03*
X126940000Y-59440000D03*
%TD*%
%TO.C,D2*%
X126940000Y-61390000D03*
X124840000Y-61390000D03*
%TD*%
%TO.C,C5*%
G36*
G01*
X147945000Y-69080000D02*
X147945000Y-68580000D01*
G75*
G02*
X148170000Y-68355000I225000J0D01*
G01*
X148620000Y-68355000D01*
G75*
G02*
X148845000Y-68580000I0J-225000D01*
G01*
X148845000Y-69080000D01*
G75*
G02*
X148620000Y-69305000I-225000J0D01*
G01*
X148170000Y-69305000D01*
G75*
G02*
X147945000Y-69080000I0J225000D01*
G01*
G37*
G36*
G01*
X149495000Y-69080000D02*
X149495000Y-68580000D01*
G75*
G02*
X149720000Y-68355000I225000J0D01*
G01*
X150170000Y-68355000D01*
G75*
G02*
X150395000Y-68580000I0J-225000D01*
G01*
X150395000Y-69080000D01*
G75*
G02*
X150170000Y-69305000I-225000J0D01*
G01*
X149720000Y-69305000D01*
G75*
G02*
X149495000Y-69080000I0J225000D01*
G01*
G37*
%TD*%
%TO.C,C10*%
G36*
G01*
X158940000Y-67425000D02*
X159440000Y-67425000D01*
G75*
G02*
X159665000Y-67650000I0J-225000D01*
G01*
X159665000Y-68100000D01*
G75*
G02*
X159440000Y-68325000I-225000J0D01*
G01*
X158940000Y-68325000D01*
G75*
G02*
X158715000Y-68100000I0J225000D01*
G01*
X158715000Y-67650000D01*
G75*
G02*
X158940000Y-67425000I225000J0D01*
G01*
G37*
G36*
G01*
X158940000Y-65875000D02*
X159440000Y-65875000D01*
G75*
G02*
X159665000Y-66100000I0J-225000D01*
G01*
X159665000Y-66550000D01*
G75*
G02*
X159440000Y-66775000I-225000J0D01*
G01*
X158940000Y-66775000D01*
G75*
G02*
X158715000Y-66550000I0J225000D01*
G01*
X158715000Y-66100000D01*
G75*
G02*
X158940000Y-65875000I225000J0D01*
G01*
G37*
%TD*%
%TO.C,R3*%
G36*
G01*
X128135000Y-63495000D02*
X128685000Y-63495000D01*
G75*
G02*
X128885000Y-63695000I0J-200000D01*
G01*
X128885000Y-64095000D01*
G75*
G02*
X128685000Y-64295000I-200000J0D01*
G01*
X128135000Y-64295000D01*
G75*
G02*
X127935000Y-64095000I0J200000D01*
G01*
X127935000Y-63695000D01*
G75*
G02*
X128135000Y-63495000I200000J0D01*
G01*
G37*
G36*
G01*
X128135000Y-65145000D02*
X128685000Y-65145000D01*
G75*
G02*
X128885000Y-65345000I0J-200000D01*
G01*
X128885000Y-65745000D01*
G75*
G02*
X128685000Y-65945000I-200000J0D01*
G01*
X128135000Y-65945000D01*
G75*
G02*
X127935000Y-65745000I0J200000D01*
G01*
X127935000Y-65345000D01*
G75*
G02*
X128135000Y-65145000I200000J0D01*
G01*
G37*
%TD*%
%TO.C,C8*%
G36*
G01*
X149495000Y-66130000D02*
X149495000Y-65630000D01*
G75*
G02*
X149720000Y-65405000I225000J0D01*
G01*
X150170000Y-65405000D01*
G75*
G02*
X150395000Y-65630000I0J-225000D01*
G01*
X150395000Y-66130000D01*
G75*
G02*
X150170000Y-66355000I-225000J0D01*
G01*
X149720000Y-66355000D01*
G75*
G02*
X149495000Y-66130000I0J225000D01*
G01*
G37*
G36*
G01*
X147945000Y-66130000D02*
X147945000Y-65630000D01*
G75*
G02*
X148170000Y-65405000I225000J0D01*
G01*
X148620000Y-65405000D01*
G75*
G02*
X148845000Y-65630000I0J-225000D01*
G01*
X148845000Y-66130000D01*
G75*
G02*
X148620000Y-66355000I-225000J0D01*
G01*
X148170000Y-66355000D01*
G75*
G02*
X147945000Y-66130000I0J225000D01*
G01*
G37*
%TD*%
%TO.C,C7*%
G36*
G01*
X141715000Y-64130000D02*
X141715000Y-63630000D01*
G75*
G02*
X141940000Y-63405000I225000J0D01*
G01*
X142390000Y-63405000D01*
G75*
G02*
X142615000Y-63630000I0J-225000D01*
G01*
X142615000Y-64130000D01*
G75*
G02*
X142390000Y-64355000I-225000J0D01*
G01*
X141940000Y-64355000D01*
G75*
G02*
X141715000Y-64130000I0J225000D01*
G01*
G37*
G36*
G01*
X143265000Y-64130000D02*
X143265000Y-63630000D01*
G75*
G02*
X143490000Y-63405000I225000J0D01*
G01*
X143940000Y-63405000D01*
G75*
G02*
X144165000Y-63630000I0J-225000D01*
G01*
X144165000Y-64130000D01*
G75*
G02*
X143940000Y-64355000I-225000J0D01*
G01*
X143490000Y-64355000D01*
G75*
G02*
X143265000Y-64130000I0J225000D01*
G01*
G37*
%TD*%
%TO.C,C3*%
G36*
G01*
X126565000Y-57935000D02*
X126565000Y-56685000D01*
G75*
G02*
X126815000Y-56435000I250000J0D01*
G01*
X127565000Y-56435000D01*
G75*
G02*
X127815000Y-56685000I0J-250000D01*
G01*
X127815000Y-57935000D01*
G75*
G02*
X127565000Y-58185000I-250000J0D01*
G01*
X126815000Y-58185000D01*
G75*
G02*
X126565000Y-57935000I0J250000D01*
G01*
G37*
G36*
G01*
X123765000Y-57935000D02*
X123765000Y-56685000D01*
G75*
G02*
X124015000Y-56435000I250000J0D01*
G01*
X124765000Y-56435000D01*
G75*
G02*
X125015000Y-56685000I0J-250000D01*
G01*
X125015000Y-57935000D01*
G75*
G02*
X124765000Y-58185000I-250000J0D01*
G01*
X124015000Y-58185000D01*
G75*
G02*
X123765000Y-57935000I0J250000D01*
G01*
G37*
%TD*%
%TO.C,C4*%
G36*
G01*
X124965000Y-50815000D02*
X124965000Y-52065000D01*
G75*
G02*
X124715000Y-52315000I-250000J0D01*
G01*
X123965000Y-52315000D01*
G75*
G02*
X123715000Y-52065000I0J250000D01*
G01*
X123715000Y-50815000D01*
G75*
G02*
X123965000Y-50565000I250000J0D01*
G01*
X124715000Y-50565000D01*
G75*
G02*
X124965000Y-50815000I0J-250000D01*
G01*
G37*
G36*
G01*
X127765000Y-50815000D02*
X127765000Y-52065000D01*
G75*
G02*
X127515000Y-52315000I-250000J0D01*
G01*
X126765000Y-52315000D01*
G75*
G02*
X126515000Y-52065000I0J250000D01*
G01*
X126515000Y-50815000D01*
G75*
G02*
X126765000Y-50565000I250000J0D01*
G01*
X127515000Y-50565000D01*
G75*
G02*
X127765000Y-50815000I0J-250000D01*
G01*
G37*
%TD*%
%TO.C,R1*%
G36*
G01*
X142465000Y-47065000D02*
X141915000Y-47065000D01*
G75*
G02*
X141715000Y-46865000I0J200000D01*
G01*
X141715000Y-46465000D01*
G75*
G02*
X141915000Y-46265000I200000J0D01*
G01*
X142465000Y-46265000D01*
G75*
G02*
X142665000Y-46465000I0J-200000D01*
G01*
X142665000Y-46865000D01*
G75*
G02*
X142465000Y-47065000I-200000J0D01*
G01*
G37*
G36*
G01*
X142465000Y-48715000D02*
X141915000Y-48715000D01*
G75*
G02*
X141715000Y-48515000I0J200000D01*
G01*
X141715000Y-48115000D01*
G75*
G02*
X141915000Y-47915000I200000J0D01*
G01*
X142465000Y-47915000D01*
G75*
G02*
X142665000Y-48115000I0J-200000D01*
G01*
X142665000Y-48515000D01*
G75*
G02*
X142465000Y-48715000I-200000J0D01*
G01*
G37*
%TD*%
%TO.C,R4*%
G36*
G01*
X128135000Y-66495000D02*
X128685000Y-66495000D01*
G75*
G02*
X128885000Y-66695000I0J-200000D01*
G01*
X128885000Y-67095000D01*
G75*
G02*
X128685000Y-67295000I-200000J0D01*
G01*
X128135000Y-67295000D01*
G75*
G02*
X127935000Y-67095000I0J200000D01*
G01*
X127935000Y-66695000D01*
G75*
G02*
X128135000Y-66495000I200000J0D01*
G01*
G37*
G36*
G01*
X128135000Y-68145000D02*
X128685000Y-68145000D01*
G75*
G02*
X128885000Y-68345000I0J-200000D01*
G01*
X128885000Y-68745000D01*
G75*
G02*
X128685000Y-68945000I-200000J0D01*
G01*
X128135000Y-68945000D01*
G75*
G02*
X127935000Y-68745000I0J200000D01*
G01*
X127935000Y-68345000D01*
G75*
G02*
X128135000Y-68145000I200000J0D01*
G01*
G37*
%TD*%
%TO.C,R5*%
G36*
G01*
X139315000Y-71815000D02*
X139315000Y-72365000D01*
G75*
G02*
X139115000Y-72565000I-200000J0D01*
G01*
X138715000Y-72565000D01*
G75*
G02*
X138515000Y-72365000I0J200000D01*
G01*
X138515000Y-71815000D01*
G75*
G02*
X138715000Y-71615000I200000J0D01*
G01*
X139115000Y-71615000D01*
G75*
G02*
X139315000Y-71815000I0J-200000D01*
G01*
G37*
G36*
G01*
X140965000Y-71815000D02*
X140965000Y-72365000D01*
G75*
G02*
X140765000Y-72565000I-200000J0D01*
G01*
X140365000Y-72565000D01*
G75*
G02*
X140165000Y-72365000I0J200000D01*
G01*
X140165000Y-71815000D01*
G75*
G02*
X140365000Y-71615000I200000J0D01*
G01*
X140765000Y-71615000D01*
G75*
G02*
X140965000Y-71815000I0J-200000D01*
G01*
G37*
%TD*%
%TO.C,R6*%
G36*
G01*
X141945000Y-72355000D02*
X141945000Y-71805000D01*
G75*
G02*
X142145000Y-71605000I200000J0D01*
G01*
X142545000Y-71605000D01*
G75*
G02*
X142745000Y-71805000I0J-200000D01*
G01*
X142745000Y-72355000D01*
G75*
G02*
X142545000Y-72555000I-200000J0D01*
G01*
X142145000Y-72555000D01*
G75*
G02*
X141945000Y-72355000I0J200000D01*
G01*
G37*
G36*
G01*
X143595000Y-72355000D02*
X143595000Y-71805000D01*
G75*
G02*
X143795000Y-71605000I200000J0D01*
G01*
X144195000Y-71605000D01*
G75*
G02*
X144395000Y-71805000I0J-200000D01*
G01*
X144395000Y-72355000D01*
G75*
G02*
X144195000Y-72555000I-200000J0D01*
G01*
X143795000Y-72555000D01*
G75*
G02*
X143595000Y-72355000I0J200000D01*
G01*
G37*
%TD*%
%TO.C,U3*%
G36*
G01*
X145500000Y-64900000D02*
X145350000Y-64900000D01*
G75*
G02*
X145275000Y-64825000I0J75000D01*
G01*
X145275000Y-63500000D01*
G75*
G02*
X145350000Y-63425000I75000J0D01*
G01*
X145500000Y-63425000D01*
G75*
G02*
X145575000Y-63500000I0J-75000D01*
G01*
X145575000Y-64825000D01*
G75*
G02*
X145500000Y-64900000I-75000J0D01*
G01*
G37*
G36*
G01*
X146000000Y-64900000D02*
X145850000Y-64900000D01*
G75*
G02*
X145775000Y-64825000I0J75000D01*
G01*
X145775000Y-63500000D01*
G75*
G02*
X145850000Y-63425000I75000J0D01*
G01*
X146000000Y-63425000D01*
G75*
G02*
X146075000Y-63500000I0J-75000D01*
G01*
X146075000Y-64825000D01*
G75*
G02*
X146000000Y-64900000I-75000J0D01*
G01*
G37*
G36*
G01*
X146500000Y-64900000D02*
X146350000Y-64900000D01*
G75*
G02*
X146275000Y-64825000I0J75000D01*
G01*
X146275000Y-63500000D01*
G75*
G02*
X146350000Y-63425000I75000J0D01*
G01*
X146500000Y-63425000D01*
G75*
G02*
X146575000Y-63500000I0J-75000D01*
G01*
X146575000Y-64825000D01*
G75*
G02*
X146500000Y-64900000I-75000J0D01*
G01*
G37*
G36*
G01*
X147000000Y-64900000D02*
X146850000Y-64900000D01*
G75*
G02*
X146775000Y-64825000I0J75000D01*
G01*
X146775000Y-63500000D01*
G75*
G02*
X146850000Y-63425000I75000J0D01*
G01*
X147000000Y-63425000D01*
G75*
G02*
X147075000Y-63500000I0J-75000D01*
G01*
X147075000Y-64825000D01*
G75*
G02*
X147000000Y-64900000I-75000J0D01*
G01*
G37*
G36*
G01*
X147500000Y-64900000D02*
X147350000Y-64900000D01*
G75*
G02*
X147275000Y-64825000I0J75000D01*
G01*
X147275000Y-63500000D01*
G75*
G02*
X147350000Y-63425000I75000J0D01*
G01*
X147500000Y-63425000D01*
G75*
G02*
X147575000Y-63500000I0J-75000D01*
G01*
X147575000Y-64825000D01*
G75*
G02*
X147500000Y-64900000I-75000J0D01*
G01*
G37*
G36*
G01*
X148000000Y-64900000D02*
X147850000Y-64900000D01*
G75*
G02*
X147775000Y-64825000I0J75000D01*
G01*
X147775000Y-63500000D01*
G75*
G02*
X147850000Y-63425000I75000J0D01*
G01*
X148000000Y-63425000D01*
G75*
G02*
X148075000Y-63500000I0J-75000D01*
G01*
X148075000Y-64825000D01*
G75*
G02*
X148000000Y-64900000I-75000J0D01*
G01*
G37*
G36*
G01*
X148500000Y-64900000D02*
X148350000Y-64900000D01*
G75*
G02*
X148275000Y-64825000I0J75000D01*
G01*
X148275000Y-63500000D01*
G75*
G02*
X148350000Y-63425000I75000J0D01*
G01*
X148500000Y-63425000D01*
G75*
G02*
X148575000Y-63500000I0J-75000D01*
G01*
X148575000Y-64825000D01*
G75*
G02*
X148500000Y-64900000I-75000J0D01*
G01*
G37*
G36*
G01*
X149000000Y-64900000D02*
X148850000Y-64900000D01*
G75*
G02*
X148775000Y-64825000I0J75000D01*
G01*
X148775000Y-63500000D01*
G75*
G02*
X148850000Y-63425000I75000J0D01*
G01*
X149000000Y-63425000D01*
G75*
G02*
X149075000Y-63500000I0J-75000D01*
G01*
X149075000Y-64825000D01*
G75*
G02*
X149000000Y-64900000I-75000J0D01*
G01*
G37*
G36*
G01*
X149500000Y-64900000D02*
X149350000Y-64900000D01*
G75*
G02*
X149275000Y-64825000I0J75000D01*
G01*
X149275000Y-63500000D01*
G75*
G02*
X149350000Y-63425000I75000J0D01*
G01*
X149500000Y-63425000D01*
G75*
G02*
X149575000Y-63500000I0J-75000D01*
G01*
X149575000Y-64825000D01*
G75*
G02*
X149500000Y-64900000I-75000J0D01*
G01*
G37*
G36*
G01*
X150000000Y-64900000D02*
X149850000Y-64900000D01*
G75*
G02*
X149775000Y-64825000I0J75000D01*
G01*
X149775000Y-63500000D01*
G75*
G02*
X149850000Y-63425000I75000J0D01*
G01*
X150000000Y-63425000D01*
G75*
G02*
X150075000Y-63500000I0J-75000D01*
G01*
X150075000Y-64825000D01*
G75*
G02*
X150000000Y-64900000I-75000J0D01*
G01*
G37*
G36*
G01*
X150500000Y-64900000D02*
X150350000Y-64900000D01*
G75*
G02*
X150275000Y-64825000I0J75000D01*
G01*
X150275000Y-63500000D01*
G75*
G02*
X150350000Y-63425000I75000J0D01*
G01*
X150500000Y-63425000D01*
G75*
G02*
X150575000Y-63500000I0J-75000D01*
G01*
X150575000Y-64825000D01*
G75*
G02*
X150500000Y-64900000I-75000J0D01*
G01*
G37*
G36*
G01*
X151000000Y-64900000D02*
X150850000Y-64900000D01*
G75*
G02*
X150775000Y-64825000I0J75000D01*
G01*
X150775000Y-63500000D01*
G75*
G02*
X150850000Y-63425000I75000J0D01*
G01*
X151000000Y-63425000D01*
G75*
G02*
X151075000Y-63500000I0J-75000D01*
G01*
X151075000Y-64825000D01*
G75*
G02*
X151000000Y-64900000I-75000J0D01*
G01*
G37*
G36*
G01*
X153000000Y-62900000D02*
X151675000Y-62900000D01*
G75*
G02*
X151600000Y-62825000I0J75000D01*
G01*
X151600000Y-62675000D01*
G75*
G02*
X151675000Y-62600000I75000J0D01*
G01*
X153000000Y-62600000D01*
G75*
G02*
X153075000Y-62675000I0J-75000D01*
G01*
X153075000Y-62825000D01*
G75*
G02*
X153000000Y-62900000I-75000J0D01*
G01*
G37*
G36*
G01*
X153000000Y-62400000D02*
X151675000Y-62400000D01*
G75*
G02*
X151600000Y-62325000I0J75000D01*
G01*
X151600000Y-62175000D01*
G75*
G02*
X151675000Y-62100000I75000J0D01*
G01*
X153000000Y-62100000D01*
G75*
G02*
X153075000Y-62175000I0J-75000D01*
G01*
X153075000Y-62325000D01*
G75*
G02*
X153000000Y-62400000I-75000J0D01*
G01*
G37*
G36*
G01*
X153000000Y-61900000D02*
X151675000Y-61900000D01*
G75*
G02*
X151600000Y-61825000I0J75000D01*
G01*
X151600000Y-61675000D01*
G75*
G02*
X151675000Y-61600000I75000J0D01*
G01*
X153000000Y-61600000D01*
G75*
G02*
X153075000Y-61675000I0J-75000D01*
G01*
X153075000Y-61825000D01*
G75*
G02*
X153000000Y-61900000I-75000J0D01*
G01*
G37*
G36*
G01*
X153000000Y-61400000D02*
X151675000Y-61400000D01*
G75*
G02*
X151600000Y-61325000I0J75000D01*
G01*
X151600000Y-61175000D01*
G75*
G02*
X151675000Y-61100000I75000J0D01*
G01*
X153000000Y-61100000D01*
G75*
G02*
X153075000Y-61175000I0J-75000D01*
G01*
X153075000Y-61325000D01*
G75*
G02*
X153000000Y-61400000I-75000J0D01*
G01*
G37*
G36*
G01*
X153000000Y-60900000D02*
X151675000Y-60900000D01*
G75*
G02*
X151600000Y-60825000I0J75000D01*
G01*
X151600000Y-60675000D01*
G75*
G02*
X151675000Y-60600000I75000J0D01*
G01*
X153000000Y-60600000D01*
G75*
G02*
X153075000Y-60675000I0J-75000D01*
G01*
X153075000Y-60825000D01*
G75*
G02*
X153000000Y-60900000I-75000J0D01*
G01*
G37*
G36*
G01*
X153000000Y-60400000D02*
X151675000Y-60400000D01*
G75*
G02*
X151600000Y-60325000I0J75000D01*
G01*
X151600000Y-60175000D01*
G75*
G02*
X151675000Y-60100000I75000J0D01*
G01*
X153000000Y-60100000D01*
G75*
G02*
X153075000Y-60175000I0J-75000D01*
G01*
X153075000Y-60325000D01*
G75*
G02*
X153000000Y-60400000I-75000J0D01*
G01*
G37*
G36*
G01*
X153000000Y-59900000D02*
X151675000Y-59900000D01*
G75*
G02*
X151600000Y-59825000I0J75000D01*
G01*
X151600000Y-59675000D01*
G75*
G02*
X151675000Y-59600000I75000J0D01*
G01*
X153000000Y-59600000D01*
G75*
G02*
X153075000Y-59675000I0J-75000D01*
G01*
X153075000Y-59825000D01*
G75*
G02*
X153000000Y-59900000I-75000J0D01*
G01*
G37*
G36*
G01*
X153000000Y-59400000D02*
X151675000Y-59400000D01*
G75*
G02*
X151600000Y-59325000I0J75000D01*
G01*
X151600000Y-59175000D01*
G75*
G02*
X151675000Y-59100000I75000J0D01*
G01*
X153000000Y-59100000D01*
G75*
G02*
X153075000Y-59175000I0J-75000D01*
G01*
X153075000Y-59325000D01*
G75*
G02*
X153000000Y-59400000I-75000J0D01*
G01*
G37*
G36*
G01*
X153000000Y-58900000D02*
X151675000Y-58900000D01*
G75*
G02*
X151600000Y-58825000I0J75000D01*
G01*
X151600000Y-58675000D01*
G75*
G02*
X151675000Y-58600000I75000J0D01*
G01*
X153000000Y-58600000D01*
G75*
G02*
X153075000Y-58675000I0J-75000D01*
G01*
X153075000Y-58825000D01*
G75*
G02*
X153000000Y-58900000I-75000J0D01*
G01*
G37*
G36*
G01*
X153000000Y-58400000D02*
X151675000Y-58400000D01*
G75*
G02*
X151600000Y-58325000I0J75000D01*
G01*
X151600000Y-58175000D01*
G75*
G02*
X151675000Y-58100000I75000J0D01*
G01*
X153000000Y-58100000D01*
G75*
G02*
X153075000Y-58175000I0J-75000D01*
G01*
X153075000Y-58325000D01*
G75*
G02*
X153000000Y-58400000I-75000J0D01*
G01*
G37*
G36*
G01*
X153000000Y-57900000D02*
X151675000Y-57900000D01*
G75*
G02*
X151600000Y-57825000I0J75000D01*
G01*
X151600000Y-57675000D01*
G75*
G02*
X151675000Y-57600000I75000J0D01*
G01*
X153000000Y-57600000D01*
G75*
G02*
X153075000Y-57675000I0J-75000D01*
G01*
X153075000Y-57825000D01*
G75*
G02*
X153000000Y-57900000I-75000J0D01*
G01*
G37*
G36*
G01*
X153000000Y-57400000D02*
X151675000Y-57400000D01*
G75*
G02*
X151600000Y-57325000I0J75000D01*
G01*
X151600000Y-57175000D01*
G75*
G02*
X151675000Y-57100000I75000J0D01*
G01*
X153000000Y-57100000D01*
G75*
G02*
X153075000Y-57175000I0J-75000D01*
G01*
X153075000Y-57325000D01*
G75*
G02*
X153000000Y-57400000I-75000J0D01*
G01*
G37*
G36*
G01*
X151000000Y-56575000D02*
X150850000Y-56575000D01*
G75*
G02*
X150775000Y-56500000I0J75000D01*
G01*
X150775000Y-55175000D01*
G75*
G02*
X150850000Y-55100000I75000J0D01*
G01*
X151000000Y-55100000D01*
G75*
G02*
X151075000Y-55175000I0J-75000D01*
G01*
X151075000Y-56500000D01*
G75*
G02*
X151000000Y-56575000I-75000J0D01*
G01*
G37*
G36*
G01*
X150500000Y-56575000D02*
X150350000Y-56575000D01*
G75*
G02*
X150275000Y-56500000I0J75000D01*
G01*
X150275000Y-55175000D01*
G75*
G02*
X150350000Y-55100000I75000J0D01*
G01*
X150500000Y-55100000D01*
G75*
G02*
X150575000Y-55175000I0J-75000D01*
G01*
X150575000Y-56500000D01*
G75*
G02*
X150500000Y-56575000I-75000J0D01*
G01*
G37*
G36*
G01*
X150000000Y-56575000D02*
X149850000Y-56575000D01*
G75*
G02*
X149775000Y-56500000I0J75000D01*
G01*
X149775000Y-55175000D01*
G75*
G02*
X149850000Y-55100000I75000J0D01*
G01*
X150000000Y-55100000D01*
G75*
G02*
X150075000Y-55175000I0J-75000D01*
G01*
X150075000Y-56500000D01*
G75*
G02*
X150000000Y-56575000I-75000J0D01*
G01*
G37*
G36*
G01*
X149500000Y-56575000D02*
X149350000Y-56575000D01*
G75*
G02*
X149275000Y-56500000I0J75000D01*
G01*
X149275000Y-55175000D01*
G75*
G02*
X149350000Y-55100000I75000J0D01*
G01*
X149500000Y-55100000D01*
G75*
G02*
X149575000Y-55175000I0J-75000D01*
G01*
X149575000Y-56500000D01*
G75*
G02*
X149500000Y-56575000I-75000J0D01*
G01*
G37*
G36*
G01*
X149000000Y-56575000D02*
X148850000Y-56575000D01*
G75*
G02*
X148775000Y-56500000I0J75000D01*
G01*
X148775000Y-55175000D01*
G75*
G02*
X148850000Y-55100000I75000J0D01*
G01*
X149000000Y-55100000D01*
G75*
G02*
X149075000Y-55175000I0J-75000D01*
G01*
X149075000Y-56500000D01*
G75*
G02*
X149000000Y-56575000I-75000J0D01*
G01*
G37*
G36*
G01*
X148500000Y-56575000D02*
X148350000Y-56575000D01*
G75*
G02*
X148275000Y-56500000I0J75000D01*
G01*
X148275000Y-55175000D01*
G75*
G02*
X148350000Y-55100000I75000J0D01*
G01*
X148500000Y-55100000D01*
G75*
G02*
X148575000Y-55175000I0J-75000D01*
G01*
X148575000Y-56500000D01*
G75*
G02*
X148500000Y-56575000I-75000J0D01*
G01*
G37*
G36*
G01*
X148000000Y-56575000D02*
X147850000Y-56575000D01*
G75*
G02*
X147775000Y-56500000I0J75000D01*
G01*
X147775000Y-55175000D01*
G75*
G02*
X147850000Y-55100000I75000J0D01*
G01*
X148000000Y-55100000D01*
G75*
G02*
X148075000Y-55175000I0J-75000D01*
G01*
X148075000Y-56500000D01*
G75*
G02*
X148000000Y-56575000I-75000J0D01*
G01*
G37*
G36*
G01*
X147500000Y-56575000D02*
X147350000Y-56575000D01*
G75*
G02*
X147275000Y-56500000I0J75000D01*
G01*
X147275000Y-55175000D01*
G75*
G02*
X147350000Y-55100000I75000J0D01*
G01*
X147500000Y-55100000D01*
G75*
G02*
X147575000Y-55175000I0J-75000D01*
G01*
X147575000Y-56500000D01*
G75*
G02*
X147500000Y-56575000I-75000J0D01*
G01*
G37*
G36*
G01*
X147000000Y-56575000D02*
X146850000Y-56575000D01*
G75*
G02*
X146775000Y-56500000I0J75000D01*
G01*
X146775000Y-55175000D01*
G75*
G02*
X146850000Y-55100000I75000J0D01*
G01*
X147000000Y-55100000D01*
G75*
G02*
X147075000Y-55175000I0J-75000D01*
G01*
X147075000Y-56500000D01*
G75*
G02*
X147000000Y-56575000I-75000J0D01*
G01*
G37*
G36*
G01*
X146500000Y-56575000D02*
X146350000Y-56575000D01*
G75*
G02*
X146275000Y-56500000I0J75000D01*
G01*
X146275000Y-55175000D01*
G75*
G02*
X146350000Y-55100000I75000J0D01*
G01*
X146500000Y-55100000D01*
G75*
G02*
X146575000Y-55175000I0J-75000D01*
G01*
X146575000Y-56500000D01*
G75*
G02*
X146500000Y-56575000I-75000J0D01*
G01*
G37*
G36*
G01*
X146000000Y-56575000D02*
X145850000Y-56575000D01*
G75*
G02*
X145775000Y-56500000I0J75000D01*
G01*
X145775000Y-55175000D01*
G75*
G02*
X145850000Y-55100000I75000J0D01*
G01*
X146000000Y-55100000D01*
G75*
G02*
X146075000Y-55175000I0J-75000D01*
G01*
X146075000Y-56500000D01*
G75*
G02*
X146000000Y-56575000I-75000J0D01*
G01*
G37*
G36*
G01*
X145500000Y-56575000D02*
X145350000Y-56575000D01*
G75*
G02*
X145275000Y-56500000I0J75000D01*
G01*
X145275000Y-55175000D01*
G75*
G02*
X145350000Y-55100000I75000J0D01*
G01*
X145500000Y-55100000D01*
G75*
G02*
X145575000Y-55175000I0J-75000D01*
G01*
X145575000Y-56500000D01*
G75*
G02*
X145500000Y-56575000I-75000J0D01*
G01*
G37*
G36*
G01*
X144675000Y-57400000D02*
X143350000Y-57400000D01*
G75*
G02*
X143275000Y-57325000I0J75000D01*
G01*
X143275000Y-57175000D01*
G75*
G02*
X143350000Y-57100000I75000J0D01*
G01*
X144675000Y-57100000D01*
G75*
G02*
X144750000Y-57175000I0J-75000D01*
G01*
X144750000Y-57325000D01*
G75*
G02*
X144675000Y-57400000I-75000J0D01*
G01*
G37*
G36*
G01*
X144675000Y-57900000D02*
X143350000Y-57900000D01*
G75*
G02*
X143275000Y-57825000I0J75000D01*
G01*
X143275000Y-57675000D01*
G75*
G02*
X143350000Y-57600000I75000J0D01*
G01*
X144675000Y-57600000D01*
G75*
G02*
X144750000Y-57675000I0J-75000D01*
G01*
X144750000Y-57825000D01*
G75*
G02*
X144675000Y-57900000I-75000J0D01*
G01*
G37*
G36*
G01*
X144675000Y-58400000D02*
X143350000Y-58400000D01*
G75*
G02*
X143275000Y-58325000I0J75000D01*
G01*
X143275000Y-58175000D01*
G75*
G02*
X143350000Y-58100000I75000J0D01*
G01*
X144675000Y-58100000D01*
G75*
G02*
X144750000Y-58175000I0J-75000D01*
G01*
X144750000Y-58325000D01*
G75*
G02*
X144675000Y-58400000I-75000J0D01*
G01*
G37*
G36*
G01*
X144675000Y-58900000D02*
X143350000Y-58900000D01*
G75*
G02*
X143275000Y-58825000I0J75000D01*
G01*
X143275000Y-58675000D01*
G75*
G02*
X143350000Y-58600000I75000J0D01*
G01*
X144675000Y-58600000D01*
G75*
G02*
X144750000Y-58675000I0J-75000D01*
G01*
X144750000Y-58825000D01*
G75*
G02*
X144675000Y-58900000I-75000J0D01*
G01*
G37*
G36*
G01*
X144675000Y-59400000D02*
X143350000Y-59400000D01*
G75*
G02*
X143275000Y-59325000I0J75000D01*
G01*
X143275000Y-59175000D01*
G75*
G02*
X143350000Y-59100000I75000J0D01*
G01*
X144675000Y-59100000D01*
G75*
G02*
X144750000Y-59175000I0J-75000D01*
G01*
X144750000Y-59325000D01*
G75*
G02*
X144675000Y-59400000I-75000J0D01*
G01*
G37*
G36*
G01*
X144675000Y-59900000D02*
X143350000Y-59900000D01*
G75*
G02*
X143275000Y-59825000I0J75000D01*
G01*
X143275000Y-59675000D01*
G75*
G02*
X143350000Y-59600000I75000J0D01*
G01*
X144675000Y-59600000D01*
G75*
G02*
X144750000Y-59675000I0J-75000D01*
G01*
X144750000Y-59825000D01*
G75*
G02*
X144675000Y-59900000I-75000J0D01*
G01*
G37*
G36*
G01*
X144675000Y-60400000D02*
X143350000Y-60400000D01*
G75*
G02*
X143275000Y-60325000I0J75000D01*
G01*
X143275000Y-60175000D01*
G75*
G02*
X143350000Y-60100000I75000J0D01*
G01*
X144675000Y-60100000D01*
G75*
G02*
X144750000Y-60175000I0J-75000D01*
G01*
X144750000Y-60325000D01*
G75*
G02*
X144675000Y-60400000I-75000J0D01*
G01*
G37*
G36*
G01*
X144675000Y-60900000D02*
X143350000Y-60900000D01*
G75*
G02*
X143275000Y-60825000I0J75000D01*
G01*
X143275000Y-60675000D01*
G75*
G02*
X143350000Y-60600000I75000J0D01*
G01*
X144675000Y-60600000D01*
G75*
G02*
X144750000Y-60675000I0J-75000D01*
G01*
X144750000Y-60825000D01*
G75*
G02*
X144675000Y-60900000I-75000J0D01*
G01*
G37*
G36*
G01*
X144675000Y-61400000D02*
X143350000Y-61400000D01*
G75*
G02*
X143275000Y-61325000I0J75000D01*
G01*
X143275000Y-61175000D01*
G75*
G02*
X143350000Y-61100000I75000J0D01*
G01*
X144675000Y-61100000D01*
G75*
G02*
X144750000Y-61175000I0J-75000D01*
G01*
X144750000Y-61325000D01*
G75*
G02*
X144675000Y-61400000I-75000J0D01*
G01*
G37*
G36*
G01*
X144675000Y-61900000D02*
X143350000Y-61900000D01*
G75*
G02*
X143275000Y-61825000I0J75000D01*
G01*
X143275000Y-61675000D01*
G75*
G02*
X143350000Y-61600000I75000J0D01*
G01*
X144675000Y-61600000D01*
G75*
G02*
X144750000Y-61675000I0J-75000D01*
G01*
X144750000Y-61825000D01*
G75*
G02*
X144675000Y-61900000I-75000J0D01*
G01*
G37*
G36*
G01*
X144675000Y-62400000D02*
X143350000Y-62400000D01*
G75*
G02*
X143275000Y-62325000I0J75000D01*
G01*
X143275000Y-62175000D01*
G75*
G02*
X143350000Y-62100000I75000J0D01*
G01*
X144675000Y-62100000D01*
G75*
G02*
X144750000Y-62175000I0J-75000D01*
G01*
X144750000Y-62325000D01*
G75*
G02*
X144675000Y-62400000I-75000J0D01*
G01*
G37*
G36*
G01*
X144675000Y-62900000D02*
X143350000Y-62900000D01*
G75*
G02*
X143275000Y-62825000I0J75000D01*
G01*
X143275000Y-62675000D01*
G75*
G02*
X143350000Y-62600000I75000J0D01*
G01*
X144675000Y-62600000D01*
G75*
G02*
X144750000Y-62675000I0J-75000D01*
G01*
X144750000Y-62825000D01*
G75*
G02*
X144675000Y-62900000I-75000J0D01*
G01*
G37*
%TD*%
%TO.C,R2*%
G36*
G01*
X153385000Y-47085000D02*
X152835000Y-47085000D01*
G75*
G02*
X152635000Y-46885000I0J200000D01*
G01*
X152635000Y-46485000D01*
G75*
G02*
X152835000Y-46285000I200000J0D01*
G01*
X153385000Y-46285000D01*
G75*
G02*
X153585000Y-46485000I0J-200000D01*
G01*
X153585000Y-46885000D01*
G75*
G02*
X153385000Y-47085000I-200000J0D01*
G01*
G37*
G36*
G01*
X153385000Y-48735000D02*
X152835000Y-48735000D01*
G75*
G02*
X152635000Y-48535000I0J200000D01*
G01*
X152635000Y-48135000D01*
G75*
G02*
X152835000Y-47935000I200000J0D01*
G01*
X153385000Y-47935000D01*
G75*
G02*
X153585000Y-48135000I0J-200000D01*
G01*
X153585000Y-48535000D01*
G75*
G02*
X153385000Y-48735000I-200000J0D01*
G01*
G37*
%TD*%
%TO.C,R7*%
G36*
G01*
X147945000Y-70575000D02*
X147945000Y-70025000D01*
G75*
G02*
X148145000Y-69825000I200000J0D01*
G01*
X148545000Y-69825000D01*
G75*
G02*
X148745000Y-70025000I0J-200000D01*
G01*
X148745000Y-70575000D01*
G75*
G02*
X148545000Y-70775000I-200000J0D01*
G01*
X148145000Y-70775000D01*
G75*
G02*
X147945000Y-70575000I0J200000D01*
G01*
G37*
G36*
G01*
X149595000Y-70575000D02*
X149595000Y-70025000D01*
G75*
G02*
X149795000Y-69825000I200000J0D01*
G01*
X150195000Y-69825000D01*
G75*
G02*
X150395000Y-70025000I0J-200000D01*
G01*
X150395000Y-70575000D01*
G75*
G02*
X150195000Y-70775000I-200000J0D01*
G01*
X149795000Y-70775000D01*
G75*
G02*
X149595000Y-70575000I0J200000D01*
G01*
G37*
%TD*%
%TO.C,C11*%
G36*
G01*
X147945000Y-67600000D02*
X147945000Y-67100000D01*
G75*
G02*
X148170000Y-66875000I225000J0D01*
G01*
X148620000Y-66875000D01*
G75*
G02*
X148845000Y-67100000I0J-225000D01*
G01*
X148845000Y-67600000D01*
G75*
G02*
X148620000Y-67825000I-225000J0D01*
G01*
X148170000Y-67825000D01*
G75*
G02*
X147945000Y-67600000I0J225000D01*
G01*
G37*
G36*
G01*
X149495000Y-67600000D02*
X149495000Y-67100000D01*
G75*
G02*
X149720000Y-66875000I225000J0D01*
G01*
X150170000Y-66875000D01*
G75*
G02*
X150395000Y-67100000I0J-225000D01*
G01*
X150395000Y-67600000D01*
G75*
G02*
X150170000Y-67825000I-225000J0D01*
G01*
X149720000Y-67825000D01*
G75*
G02*
X149495000Y-67600000I0J225000D01*
G01*
G37*
%TD*%
%TO.C,C12*%
G36*
G01*
X142520000Y-55055000D02*
X143020000Y-55055000D01*
G75*
G02*
X143245000Y-55280000I0J-225000D01*
G01*
X143245000Y-55730000D01*
G75*
G02*
X143020000Y-55955000I-225000J0D01*
G01*
X142520000Y-55955000D01*
G75*
G02*
X142295000Y-55730000I0J225000D01*
G01*
X142295000Y-55280000D01*
G75*
G02*
X142520000Y-55055000I225000J0D01*
G01*
G37*
G36*
G01*
X142520000Y-53505000D02*
X143020000Y-53505000D01*
G75*
G02*
X143245000Y-53730000I0J-225000D01*
G01*
X143245000Y-54180000D01*
G75*
G02*
X143020000Y-54405000I-225000J0D01*
G01*
X142520000Y-54405000D01*
G75*
G02*
X142295000Y-54180000I0J225000D01*
G01*
X142295000Y-53730000D01*
G75*
G02*
X142520000Y-53505000I225000J0D01*
G01*
G37*
%TD*%
%TO.C,C13*%
G36*
G01*
X141715000Y-65600000D02*
X141715000Y-65100000D01*
G75*
G02*
X141940000Y-64875000I225000J0D01*
G01*
X142390000Y-64875000D01*
G75*
G02*
X142615000Y-65100000I0J-225000D01*
G01*
X142615000Y-65600000D01*
G75*
G02*
X142390000Y-65825000I-225000J0D01*
G01*
X141940000Y-65825000D01*
G75*
G02*
X141715000Y-65600000I0J225000D01*
G01*
G37*
G36*
G01*
X143265000Y-65600000D02*
X143265000Y-65100000D01*
G75*
G02*
X143490000Y-64875000I225000J0D01*
G01*
X143940000Y-64875000D01*
G75*
G02*
X144165000Y-65100000I0J-225000D01*
G01*
X144165000Y-65600000D01*
G75*
G02*
X143940000Y-65825000I-225000J0D01*
G01*
X143490000Y-65825000D01*
G75*
G02*
X143265000Y-65600000I0J225000D01*
G01*
G37*
%TD*%
%TO.C,R8*%
G36*
G01*
X155410000Y-72355000D02*
X155410000Y-71805000D01*
G75*
G02*
X155610000Y-71605000I200000J0D01*
G01*
X156010000Y-71605000D01*
G75*
G02*
X156210000Y-71805000I0J-200000D01*
G01*
X156210000Y-72355000D01*
G75*
G02*
X156010000Y-72555000I-200000J0D01*
G01*
X155610000Y-72555000D01*
G75*
G02*
X155410000Y-72355000I0J200000D01*
G01*
G37*
G36*
G01*
X157060000Y-72355000D02*
X157060000Y-71805000D01*
G75*
G02*
X157260000Y-71605000I200000J0D01*
G01*
X157660000Y-71605000D01*
G75*
G02*
X157860000Y-71805000I0J-200000D01*
G01*
X157860000Y-72355000D01*
G75*
G02*
X157660000Y-72555000I-200000J0D01*
G01*
X157260000Y-72555000D01*
G75*
G02*
X157060000Y-72355000I0J200000D01*
G01*
G37*
%TD*%
%TO.C,R9*%
G36*
G01*
X153625000Y-72365000D02*
X153625000Y-71815000D01*
G75*
G02*
X153825000Y-71615000I200000J0D01*
G01*
X154225000Y-71615000D01*
G75*
G02*
X154425000Y-71815000I0J-200000D01*
G01*
X154425000Y-72365000D01*
G75*
G02*
X154225000Y-72565000I-200000J0D01*
G01*
X153825000Y-72565000D01*
G75*
G02*
X153625000Y-72365000I0J200000D01*
G01*
G37*
G36*
G01*
X151975000Y-72365000D02*
X151975000Y-71815000D01*
G75*
G02*
X152175000Y-71615000I200000J0D01*
G01*
X152575000Y-71615000D01*
G75*
G02*
X152775000Y-71815000I0J-200000D01*
G01*
X152775000Y-72365000D01*
G75*
G02*
X152575000Y-72565000I-200000J0D01*
G01*
X152175000Y-72565000D01*
G75*
G02*
X151975000Y-72365000I0J200000D01*
G01*
G37*
%TD*%
%TO.C,R10*%
G36*
G01*
X122815000Y-72975000D02*
X122265000Y-72975000D01*
G75*
G02*
X122065000Y-72775000I0J200000D01*
G01*
X122065000Y-72375000D01*
G75*
G02*
X122265000Y-72175000I200000J0D01*
G01*
X122815000Y-72175000D01*
G75*
G02*
X123015000Y-72375000I0J-200000D01*
G01*
X123015000Y-72775000D01*
G75*
G02*
X122815000Y-72975000I-200000J0D01*
G01*
G37*
G36*
G01*
X122815000Y-71325000D02*
X122265000Y-71325000D01*
G75*
G02*
X122065000Y-71125000I0J200000D01*
G01*
X122065000Y-70725000D01*
G75*
G02*
X122265000Y-70525000I200000J0D01*
G01*
X122815000Y-70525000D01*
G75*
G02*
X123015000Y-70725000I0J-200000D01*
G01*
X123015000Y-71125000D01*
G75*
G02*
X122815000Y-71325000I-200000J0D01*
G01*
G37*
%TD*%
M02*
