%TF.GenerationSoftware,KiCad,Pcbnew,5.1.8-db9833491~87~ubuntu20.04.1*%
%TF.CreationDate,2020-11-05T18:08:50+01:00*%
%TF.ProjectId,rosalyn-tx,726f7361-6c79-46e2-9d74-782e6b696361,v1.0*%
%TF.SameCoordinates,Original*%
%TF.FileFunction,Copper,L4,Bot*%
%TF.FilePolarity,Positive*%
%FSLAX46Y46*%
G04 Gerber Fmt 4.6, Leading zero omitted, Abs format (unit mm)*
G04 Created by KiCad (PCBNEW 5.1.8-db9833491~87~ubuntu20.04.1) date 2020-11-05 18:08:50*
%MOMM*%
%LPD*%
G01*
G04 APERTURE LIST*
%TA.AperFunction,ComponentPad*%
%ADD10R,1.700000X1.700000*%
%TD*%
%TA.AperFunction,ComponentPad*%
%ADD11O,1.700000X1.700000*%
%TD*%
%TA.AperFunction,ComponentPad*%
%ADD12C,1.800000*%
%TD*%
%TA.AperFunction,ComponentPad*%
%ADD13R,1.800000X1.800000*%
%TD*%
%TA.AperFunction,ViaPad*%
%ADD14C,0.800000*%
%TD*%
%TA.AperFunction,ViaPad*%
%ADD15C,0.600000*%
%TD*%
%TA.AperFunction,Conductor*%
%ADD16C,0.200000*%
%TD*%
%TA.AperFunction,Conductor*%
%ADD17C,0.250000*%
%TD*%
G04 APERTURE END LIST*
%TO.P,J1,S1*%
%TO.N,GND*%
%TA.AperFunction,ComponentPad*%
G36*
G01*
X144590000Y-49630000D02*
X144590000Y-49230000D01*
G75*
G02*
X144790000Y-49030000I200000J0D01*
G01*
X146490000Y-49030000D01*
G75*
G02*
X146690000Y-49230000I0J-200000D01*
G01*
X146690000Y-49630000D01*
G75*
G02*
X146490000Y-49830000I-200000J0D01*
G01*
X144790000Y-49830000D01*
G75*
G02*
X144590000Y-49630000I0J200000D01*
G01*
G37*
%TD.AperFunction*%
%TA.AperFunction,ComponentPad*%
G36*
G01*
X148590000Y-49630000D02*
X148590000Y-49230000D01*
G75*
G02*
X148790000Y-49030000I200000J0D01*
G01*
X150490000Y-49030000D01*
G75*
G02*
X150690000Y-49230000I0J-200000D01*
G01*
X150690000Y-49630000D01*
G75*
G02*
X150490000Y-49830000I-200000J0D01*
G01*
X148790000Y-49830000D01*
G75*
G02*
X148590000Y-49630000I0J200000D01*
G01*
G37*
%TD.AperFunction*%
%TA.AperFunction,ComponentPad*%
G36*
G01*
X148590000Y-45770000D02*
X148590000Y-45370000D01*
G75*
G02*
X148790000Y-45170000I200000J0D01*
G01*
X150490000Y-45170000D01*
G75*
G02*
X150690000Y-45370000I0J-200000D01*
G01*
X150690000Y-45770000D01*
G75*
G02*
X150490000Y-45970000I-200000J0D01*
G01*
X148790000Y-45970000D01*
G75*
G02*
X148590000Y-45770000I0J200000D01*
G01*
G37*
%TD.AperFunction*%
%TA.AperFunction,ComponentPad*%
G36*
G01*
X144590000Y-45770000D02*
X144590000Y-45370000D01*
G75*
G02*
X144790000Y-45170000I200000J0D01*
G01*
X146490000Y-45170000D01*
G75*
G02*
X146690000Y-45370000I0J-200000D01*
G01*
X146690000Y-45770000D01*
G75*
G02*
X146490000Y-45970000I-200000J0D01*
G01*
X144790000Y-45970000D01*
G75*
G02*
X144590000Y-45770000I0J200000D01*
G01*
G37*
%TD.AperFunction*%
%TO.P,J1,A12*%
%TA.AperFunction,ComponentPad*%
G36*
G01*
X150390000Y-47000000D02*
X150390000Y-46600000D01*
G75*
G02*
X150590000Y-46400000I200000J0D01*
G01*
X150990000Y-46400000D01*
G75*
G02*
X151190000Y-46600000I0J-200000D01*
G01*
X151190000Y-47000000D01*
G75*
G02*
X150990000Y-47200000I-200000J0D01*
G01*
X150590000Y-47200000D01*
G75*
G02*
X150390000Y-47000000I0J200000D01*
G01*
G37*
%TD.AperFunction*%
%TO.P,J1,A9*%
%TO.N,vcc_usb*%
%TA.AperFunction,ComponentPad*%
G36*
G01*
X149490000Y-47000000D02*
X149490000Y-46600000D01*
G75*
G02*
X149690000Y-46400000I200000J0D01*
G01*
X150090000Y-46400000D01*
G75*
G02*
X150290000Y-46600000I0J-200000D01*
G01*
X150290000Y-47000000D01*
G75*
G02*
X150090000Y-47200000I-200000J0D01*
G01*
X149690000Y-47200000D01*
G75*
G02*
X149490000Y-47000000I0J200000D01*
G01*
G37*
%TD.AperFunction*%
%TO.P,J1,A7*%
%TO.N,usb_N*%
%TA.AperFunction,ComponentPad*%
G36*
G01*
X147690000Y-47000000D02*
X147690000Y-46600000D01*
G75*
G02*
X147890000Y-46400000I200000J0D01*
G01*
X148290000Y-46400000D01*
G75*
G02*
X148490000Y-46600000I0J-200000D01*
G01*
X148490000Y-47000000D01*
G75*
G02*
X148290000Y-47200000I-200000J0D01*
G01*
X147890000Y-47200000D01*
G75*
G02*
X147690000Y-47000000I0J200000D01*
G01*
G37*
%TD.AperFunction*%
%TO.P,J1,A6*%
%TO.N,usb_P*%
%TA.AperFunction,ComponentPad*%
G36*
G01*
X146790000Y-47000000D02*
X146790000Y-46600000D01*
G75*
G02*
X146990000Y-46400000I200000J0D01*
G01*
X147390000Y-46400000D01*
G75*
G02*
X147590000Y-46600000I0J-200000D01*
G01*
X147590000Y-47000000D01*
G75*
G02*
X147390000Y-47200000I-200000J0D01*
G01*
X146990000Y-47200000D01*
G75*
G02*
X146790000Y-47000000I0J200000D01*
G01*
G37*
%TD.AperFunction*%
%TO.P,J1,A5*%
%TO.N,Net-(J1-PadA5)*%
%TA.AperFunction,ComponentPad*%
G36*
G01*
X145890000Y-47000000D02*
X145890000Y-46600000D01*
G75*
G02*
X146090000Y-46400000I200000J0D01*
G01*
X146490000Y-46400000D01*
G75*
G02*
X146690000Y-46600000I0J-200000D01*
G01*
X146690000Y-47000000D01*
G75*
G02*
X146490000Y-47200000I-200000J0D01*
G01*
X146090000Y-47200000D01*
G75*
G02*
X145890000Y-47000000I0J200000D01*
G01*
G37*
%TD.AperFunction*%
%TO.P,J1,A4*%
%TO.N,vcc_usb*%
%TA.AperFunction,ComponentPad*%
G36*
G01*
X144990000Y-47000000D02*
X144990000Y-46600000D01*
G75*
G02*
X145190000Y-46400000I200000J0D01*
G01*
X145590000Y-46400000D01*
G75*
G02*
X145790000Y-46600000I0J-200000D01*
G01*
X145790000Y-47000000D01*
G75*
G02*
X145590000Y-47200000I-200000J0D01*
G01*
X145190000Y-47200000D01*
G75*
G02*
X144990000Y-47000000I0J200000D01*
G01*
G37*
%TD.AperFunction*%
%TO.P,J1,A1*%
%TO.N,GND*%
%TA.AperFunction,ComponentPad*%
G36*
G01*
X144090000Y-47000000D02*
X144090000Y-46600000D01*
G75*
G02*
X144290000Y-46400000I200000J0D01*
G01*
X144690000Y-46400000D01*
G75*
G02*
X144890000Y-46600000I0J-200000D01*
G01*
X144890000Y-47000000D01*
G75*
G02*
X144690000Y-47200000I-200000J0D01*
G01*
X144290000Y-47200000D01*
G75*
G02*
X144090000Y-47000000I0J200000D01*
G01*
G37*
%TD.AperFunction*%
%TO.P,J1,B12*%
%TA.AperFunction,ComponentPad*%
G36*
G01*
X144090000Y-48400000D02*
X144090000Y-48000000D01*
G75*
G02*
X144290000Y-47800000I200000J0D01*
G01*
X144690000Y-47800000D01*
G75*
G02*
X144890000Y-48000000I0J-200000D01*
G01*
X144890000Y-48400000D01*
G75*
G02*
X144690000Y-48600000I-200000J0D01*
G01*
X144290000Y-48600000D01*
G75*
G02*
X144090000Y-48400000I0J200000D01*
G01*
G37*
%TD.AperFunction*%
%TO.P,J1,B9*%
%TO.N,vcc_usb*%
%TA.AperFunction,ComponentPad*%
G36*
G01*
X144990000Y-48400000D02*
X144990000Y-48000000D01*
G75*
G02*
X145190000Y-47800000I200000J0D01*
G01*
X145590000Y-47800000D01*
G75*
G02*
X145790000Y-48000000I0J-200000D01*
G01*
X145790000Y-48400000D01*
G75*
G02*
X145590000Y-48600000I-200000J0D01*
G01*
X145190000Y-48600000D01*
G75*
G02*
X144990000Y-48400000I0J200000D01*
G01*
G37*
%TD.AperFunction*%
%TO.P,J1,B7*%
%TO.N,usb_N*%
%TA.AperFunction,ComponentPad*%
G36*
G01*
X146790000Y-48400000D02*
X146790000Y-48000000D01*
G75*
G02*
X146990000Y-47800000I200000J0D01*
G01*
X147390000Y-47800000D01*
G75*
G02*
X147590000Y-48000000I0J-200000D01*
G01*
X147590000Y-48400000D01*
G75*
G02*
X147390000Y-48600000I-200000J0D01*
G01*
X146990000Y-48600000D01*
G75*
G02*
X146790000Y-48400000I0J200000D01*
G01*
G37*
%TD.AperFunction*%
%TO.P,J1,B1*%
%TO.N,GND*%
%TA.AperFunction,ComponentPad*%
G36*
G01*
X150390000Y-48400000D02*
X150390000Y-48000000D01*
G75*
G02*
X150590000Y-47800000I200000J0D01*
G01*
X150990000Y-47800000D01*
G75*
G02*
X151190000Y-48000000I0J-200000D01*
G01*
X151190000Y-48400000D01*
G75*
G02*
X150990000Y-48600000I-200000J0D01*
G01*
X150590000Y-48600000D01*
G75*
G02*
X150390000Y-48400000I0J200000D01*
G01*
G37*
%TD.AperFunction*%
%TO.P,J1,B4*%
%TO.N,vcc_usb*%
%TA.AperFunction,ComponentPad*%
G36*
G01*
X149490000Y-48400000D02*
X149490000Y-48000000D01*
G75*
G02*
X149690000Y-47800000I200000J0D01*
G01*
X150090000Y-47800000D01*
G75*
G02*
X150290000Y-48000000I0J-200000D01*
G01*
X150290000Y-48400000D01*
G75*
G02*
X150090000Y-48600000I-200000J0D01*
G01*
X149690000Y-48600000D01*
G75*
G02*
X149490000Y-48400000I0J200000D01*
G01*
G37*
%TD.AperFunction*%
%TO.P,J1,B5*%
%TO.N,Net-(J1-PadB5)*%
%TA.AperFunction,ComponentPad*%
G36*
G01*
X148590000Y-48400000D02*
X148590000Y-48000000D01*
G75*
G02*
X148790000Y-47800000I200000J0D01*
G01*
X149190000Y-47800000D01*
G75*
G02*
X149390000Y-48000000I0J-200000D01*
G01*
X149390000Y-48400000D01*
G75*
G02*
X149190000Y-48600000I-200000J0D01*
G01*
X148790000Y-48600000D01*
G75*
G02*
X148590000Y-48400000I0J200000D01*
G01*
G37*
%TD.AperFunction*%
%TO.P,J1,B6*%
%TO.N,usb_P*%
%TA.AperFunction,ComponentPad*%
G36*
G01*
X147690000Y-48400000D02*
X147690000Y-48000000D01*
G75*
G02*
X147890000Y-47800000I200000J0D01*
G01*
X148290000Y-47800000D01*
G75*
G02*
X148490000Y-48000000I0J-200000D01*
G01*
X148490000Y-48400000D01*
G75*
G02*
X148290000Y-48600000I-200000J0D01*
G01*
X147890000Y-48600000D01*
G75*
G02*
X147690000Y-48400000I0J200000D01*
G01*
G37*
%TD.AperFunction*%
%TD*%
D10*
%TO.P,J3,1*%
%TO.N,uart3_tx*%
X122540000Y-76070000D03*
D11*
%TO.P,J3,2*%
%TO.N,N/C*%
X125080000Y-76070000D03*
%TO.P,J3,3*%
%TO.N,vcc_tng9x*%
X127620000Y-76070000D03*
%TO.P,J3,4*%
%TO.N,GND*%
X130160000Y-76070000D03*
%TO.P,J3,5*%
%TO.N,uart3_rx*%
X132700000Y-76070000D03*
%TD*%
D12*
%TO.P,D3,3*%
%TO.N,Net-(D3-Pad3)*%
X138920000Y-75100000D03*
%TO.P,D3,2*%
%TO.N,+3V3*%
X141460000Y-75100000D03*
D13*
%TO.P,D3,1*%
%TO.N,Net-(D3-Pad1)*%
X144000000Y-75100000D03*
%TD*%
%TO.P,D4,1*%
%TO.N,Net-(D4-Pad1)*%
X157460000Y-75100000D03*
D12*
%TO.P,D4,2*%
%TO.N,+3V3*%
X154920000Y-75100000D03*
%TO.P,D4,3*%
%TO.N,Net-(D4-Pad3)*%
X152380000Y-75100000D03*
%TD*%
D14*
%TO.N,GND*%
X159550000Y-68990000D03*
X175250000Y-69000000D03*
X175250000Y-54540000D03*
X175260000Y-52010000D03*
X159550000Y-52000000D03*
X159550000Y-53260000D03*
X159550000Y-54540000D03*
X159550000Y-60110000D03*
X155139998Y-58270000D03*
X150990000Y-68830000D03*
X125970000Y-57310000D03*
X124376312Y-50017943D03*
X147340000Y-65880000D03*
X159570000Y-61370002D03*
X142200000Y-49320000D03*
X153100000Y-49320000D03*
D15*
X142160000Y-66330000D03*
X144270000Y-53000000D03*
D14*
X156140000Y-68050000D03*
D15*
X137600000Y-52650000D03*
X137600000Y-60500000D03*
X137600000Y-68350000D03*
X126790000Y-70310000D03*
X123940000Y-63320000D03*
D14*
X128410000Y-69540000D03*
D15*
X142770000Y-53000000D03*
X142560000Y-62710000D03*
D14*
X150969529Y-70260153D03*
X147349988Y-67349988D03*
D15*
X147660000Y-54130000D03*
D14*
%TO.N,+3V3*%
X150990000Y-65880000D03*
X155170000Y-56740000D03*
D15*
X143720000Y-66320000D03*
X144290000Y-56450000D03*
D14*
X156130000Y-66150000D03*
X127149996Y-49940000D03*
D15*
X137600000Y-53640000D03*
X137600000Y-61490000D03*
X137600000Y-69350000D03*
D14*
X151000000Y-67350000D03*
D15*
X142780000Y-56460000D03*
%TO.N,vcc_usb*%
X147650000Y-51930000D03*
X145769998Y-52570000D03*
D14*
%TO.N,e22_nrst*%
X175249998Y-65190000D03*
X158627341Y-64344979D03*
%TO.N,e22_busy*%
X175250000Y-66450000D03*
X157614181Y-64794990D03*
%TO.N,uart1_rx*%
X147890000Y-57380000D03*
D15*
X137600000Y-58500000D03*
D14*
%TO.N,uart1_tx*%
X148980000Y-57370000D03*
D15*
X137600000Y-59500000D03*
D14*
%TO.N,e22_dio1*%
X175230000Y-67730000D03*
X156587020Y-65012978D03*
%TO.N,spi1_sck*%
X175250000Y-61380000D03*
X156645351Y-61470000D03*
%TO.N,spi1_miso*%
X155644231Y-61445801D03*
X175260000Y-63922341D03*
%TO.N,spi1_mosi*%
X175240589Y-62638060D03*
X157370361Y-62639962D03*
%TO.N,uart3_rx*%
X150650000Y-58090000D03*
D15*
X137600000Y-66350000D03*
D14*
%TO.N,uart3_tx*%
X150770000Y-59280000D03*
D15*
X137600000Y-67350000D03*
D14*
%TO.N,Net-(R7-Pad1)*%
X147340000Y-70300000D03*
D15*
X149430000Y-62910000D03*
%TO.N,Net-(C5-Pad1)*%
X148430000Y-62910000D03*
D14*
X147340000Y-68830000D03*
D15*
%TO.N,usb_N*%
X149420000Y-50900000D03*
%TO.N,usb_P*%
X145880000Y-50900000D03*
D14*
%TO.N,e22_nss*%
X175250000Y-60110000D03*
X151672502Y-55837500D03*
%TD*%
D16*
%TO.N,GND*%
X144490000Y-46800000D02*
X144490000Y-48200000D01*
X144490000Y-46800000D02*
X144490000Y-46010000D01*
X144930000Y-45570000D02*
X145640000Y-45570000D01*
X144490000Y-46010000D02*
X144930000Y-45570000D01*
X144490000Y-48200000D02*
X144490000Y-48990000D01*
X144930000Y-49430000D02*
X145640000Y-49430000D01*
X144490000Y-48990000D02*
X144930000Y-49430000D01*
X150790000Y-46800000D02*
X150790000Y-48200000D01*
X150790000Y-48200000D02*
X150790000Y-49010000D01*
X150370000Y-49430000D02*
X149640000Y-49430000D01*
X150790000Y-49010000D02*
X150370000Y-49430000D01*
X150790000Y-46400000D02*
X150800000Y-46390000D01*
X150790000Y-46800000D02*
X150790000Y-46400000D01*
X150800000Y-46390000D02*
X150800000Y-45900000D01*
X150470000Y-45570000D02*
X149640000Y-45570000D01*
X150800000Y-45900000D02*
X150470000Y-45570000D01*
D17*
%TO.N,e22_nrst*%
X174404977Y-64344979D02*
X158627341Y-64344979D01*
X175249998Y-65190000D02*
X174404977Y-64344979D01*
%TO.N,e22_busy*%
X175250000Y-66450000D02*
X173869989Y-65069989D01*
X173869989Y-65069989D02*
X157889180Y-65069989D01*
X157889180Y-65069989D02*
X157614181Y-64794990D01*
%TO.N,uart1_rx*%
X138820000Y-58500000D02*
X139940000Y-57380000D01*
X137600000Y-58500000D02*
X138820000Y-58500000D01*
X144310000Y-57380000D02*
X147890000Y-57380000D01*
X139940000Y-57380000D02*
X144310000Y-57380000D01*
%TO.N,uart1_tx*%
X138790000Y-59500000D02*
X137600000Y-59500000D01*
X140134998Y-58155002D02*
X138790000Y-59500000D01*
X148980000Y-57370000D02*
X148194998Y-58155002D01*
X140134998Y-58155002D02*
X148194998Y-58155002D01*
%TO.N,e22_dio1*%
X157094042Y-65520000D02*
X156587020Y-65012978D01*
X175230000Y-67730000D02*
X173020000Y-65520000D01*
X173020000Y-65520000D02*
X157094042Y-65520000D01*
%TO.N,spi1_sck*%
X175250000Y-61380000D02*
X173910044Y-62719956D01*
X158633226Y-62719956D02*
X157383270Y-61470000D01*
X157383270Y-61470000D02*
X156645351Y-61470000D01*
X173910044Y-62719956D02*
X158633226Y-62719956D01*
%TO.N,spi1_miso*%
X157252723Y-63619978D02*
X174957637Y-63619978D01*
X155644231Y-62011486D02*
X157252723Y-63619978D01*
X155644231Y-61445801D02*
X155644231Y-62011486D01*
X174957637Y-63619978D02*
X175260000Y-63922341D01*
%TO.N,spi1_mosi*%
X174708682Y-63169967D02*
X157900366Y-63169967D01*
X157900366Y-63169967D02*
X157370361Y-62639962D01*
X175240589Y-62638060D02*
X174708682Y-63169967D01*
%TO.N,uart3_rx*%
X139270000Y-65690000D02*
X139270000Y-59990000D01*
X139270000Y-59990000D02*
X140654987Y-58605013D01*
X138610000Y-66350000D02*
X139270000Y-65690000D01*
X150134987Y-58605013D02*
X150650000Y-58090000D01*
X137600000Y-66350000D02*
X138610000Y-66350000D01*
X150134987Y-58605013D02*
X140654987Y-58605013D01*
%TO.N,uart3_tx*%
X138710000Y-67350000D02*
X137600000Y-67350000D01*
X139840000Y-66220000D02*
X138710000Y-67350000D01*
X139840000Y-60380000D02*
X139840000Y-66220000D01*
X140940000Y-59280000D02*
X139840000Y-60380000D01*
X140940000Y-59280000D02*
X150770000Y-59280000D01*
X127450000Y-71160000D02*
X122540000Y-76070000D01*
X129200000Y-71160000D02*
X127450000Y-71160000D01*
X133010000Y-67350000D02*
X129200000Y-71160000D01*
X137600000Y-67350000D02*
X133010000Y-67350000D01*
%TO.N,Net-(R7-Pad1)*%
X149430000Y-68210000D02*
X147340000Y-70300000D01*
X149430000Y-62910000D02*
X149430000Y-68210000D01*
%TO.N,Net-(C5-Pad1)*%
X148430000Y-67740000D02*
X147340000Y-68830000D01*
X148430000Y-62910000D02*
X148430000Y-67740000D01*
D16*
%TO.N,usb_P*%
X148090000Y-47907122D02*
X148090000Y-48200000D01*
X147190000Y-47007122D02*
X148090000Y-47907122D01*
X147190000Y-46800000D02*
X147190000Y-47007122D01*
D17*
%TO.N,e22_nss*%
X175250000Y-60110000D02*
X170977500Y-55837500D01*
X170977500Y-55837500D02*
X151672502Y-55837500D01*
%TD*%
M02*
