%TF.GenerationSoftware,KiCad,Pcbnew,5.1.8-db9833491~87~ubuntu20.04.1*%
%TF.CreationDate,2020-11-23T17:51:26+01:00*%
%TF.ProjectId,rosalyn-tx,726f7361-6c79-46e2-9d74-782e6b696361,v1.0*%
%TF.SameCoordinates,Original*%
%TF.FileFunction,Copper,L2,Inr*%
%TF.FilePolarity,Positive*%
%FSLAX46Y46*%
G04 Gerber Fmt 4.6, Leading zero omitted, Abs format (unit mm)*
G04 Created by KiCad (PCBNEW 5.1.8-db9833491~87~ubuntu20.04.1) date 2020-11-23 17:51:26*
%MOMM*%
%LPD*%
G01*
G04 APERTURE LIST*
%TA.AperFunction,ComponentPad*%
%ADD10R,1.700000X1.700000*%
%TD*%
%TA.AperFunction,ComponentPad*%
%ADD11O,1.700000X1.700000*%
%TD*%
%TA.AperFunction,ComponentPad*%
%ADD12C,1.800000*%
%TD*%
%TA.AperFunction,ComponentPad*%
%ADD13R,1.800000X1.800000*%
%TD*%
%TA.AperFunction,ViaPad*%
%ADD14C,0.800000*%
%TD*%
%TA.AperFunction,ViaPad*%
%ADD15C,0.600000*%
%TD*%
%TA.AperFunction,Conductor*%
%ADD16C,0.250000*%
%TD*%
%TA.AperFunction,Conductor*%
%ADD17C,0.200000*%
%TD*%
%TA.AperFunction,Conductor*%
%ADD18C,0.254000*%
%TD*%
%TA.AperFunction,Conductor*%
%ADD19C,0.100000*%
%TD*%
G04 APERTURE END LIST*
%TO.N,N/C*%
%TO.C,J1*%
%TA.AperFunction,ComponentPad*%
G36*
G01*
X145740000Y-48400000D02*
X145740000Y-48000000D01*
G75*
G02*
X145940000Y-47800000I200000J0D01*
G01*
X146340000Y-47800000D01*
G75*
G02*
X146540000Y-48000000I0J-200000D01*
G01*
X146540000Y-48400000D01*
G75*
G02*
X146340000Y-48600000I-200000J0D01*
G01*
X145940000Y-48600000D01*
G75*
G02*
X145740000Y-48400000I0J200000D01*
G01*
G37*
%TD.AperFunction*%
%TA.AperFunction,ComponentPad*%
G36*
G01*
X148740000Y-47000000D02*
X148740000Y-46600000D01*
G75*
G02*
X148940000Y-46400000I200000J0D01*
G01*
X149340000Y-46400000D01*
G75*
G02*
X149540000Y-46600000I0J-200000D01*
G01*
X149540000Y-47000000D01*
G75*
G02*
X149340000Y-47200000I-200000J0D01*
G01*
X148940000Y-47200000D01*
G75*
G02*
X148740000Y-47000000I0J200000D01*
G01*
G37*
%TD.AperFunction*%
%TO.N,GND*%
%TA.AperFunction,ComponentPad*%
G36*
G01*
X144590000Y-49630000D02*
X144590000Y-49230000D01*
G75*
G02*
X144790000Y-49030000I200000J0D01*
G01*
X146490000Y-49030000D01*
G75*
G02*
X146690000Y-49230000I0J-200000D01*
G01*
X146690000Y-49630000D01*
G75*
G02*
X146490000Y-49830000I-200000J0D01*
G01*
X144790000Y-49830000D01*
G75*
G02*
X144590000Y-49630000I0J200000D01*
G01*
G37*
%TD.AperFunction*%
%TA.AperFunction,ComponentPad*%
G36*
G01*
X148590000Y-49630000D02*
X148590000Y-49230000D01*
G75*
G02*
X148790000Y-49030000I200000J0D01*
G01*
X150490000Y-49030000D01*
G75*
G02*
X150690000Y-49230000I0J-200000D01*
G01*
X150690000Y-49630000D01*
G75*
G02*
X150490000Y-49830000I-200000J0D01*
G01*
X148790000Y-49830000D01*
G75*
G02*
X148590000Y-49630000I0J200000D01*
G01*
G37*
%TD.AperFunction*%
%TA.AperFunction,ComponentPad*%
G36*
G01*
X148590000Y-45770000D02*
X148590000Y-45370000D01*
G75*
G02*
X148790000Y-45170000I200000J0D01*
G01*
X150490000Y-45170000D01*
G75*
G02*
X150690000Y-45370000I0J-200000D01*
G01*
X150690000Y-45770000D01*
G75*
G02*
X150490000Y-45970000I-200000J0D01*
G01*
X148790000Y-45970000D01*
G75*
G02*
X148590000Y-45770000I0J200000D01*
G01*
G37*
%TD.AperFunction*%
%TA.AperFunction,ComponentPad*%
G36*
G01*
X144590000Y-45770000D02*
X144590000Y-45370000D01*
G75*
G02*
X144790000Y-45170000I200000J0D01*
G01*
X146490000Y-45170000D01*
G75*
G02*
X146690000Y-45370000I0J-200000D01*
G01*
X146690000Y-45770000D01*
G75*
G02*
X146490000Y-45970000I-200000J0D01*
G01*
X144790000Y-45970000D01*
G75*
G02*
X144590000Y-45770000I0J200000D01*
G01*
G37*
%TD.AperFunction*%
%TA.AperFunction,ComponentPad*%
G36*
G01*
X150740000Y-47000000D02*
X150740000Y-46600000D01*
G75*
G02*
X150940000Y-46400000I200000J0D01*
G01*
X151340000Y-46400000D01*
G75*
G02*
X151540000Y-46600000I0J-200000D01*
G01*
X151540000Y-47000000D01*
G75*
G02*
X151340000Y-47200000I-200000J0D01*
G01*
X150940000Y-47200000D01*
G75*
G02*
X150740000Y-47000000I0J200000D01*
G01*
G37*
%TD.AperFunction*%
%TO.N,vcc_usb*%
%TA.AperFunction,ComponentPad*%
G36*
G01*
X149740000Y-47000000D02*
X149740000Y-46600000D01*
G75*
G02*
X149940000Y-46400000I200000J0D01*
G01*
X150340000Y-46400000D01*
G75*
G02*
X150540000Y-46600000I0J-200000D01*
G01*
X150540000Y-47000000D01*
G75*
G02*
X150340000Y-47200000I-200000J0D01*
G01*
X149940000Y-47200000D01*
G75*
G02*
X149740000Y-47000000I0J200000D01*
G01*
G37*
%TD.AperFunction*%
%TO.N,usb_N*%
%TA.AperFunction,ComponentPad*%
G36*
G01*
X147740000Y-47000000D02*
X147740000Y-46600000D01*
G75*
G02*
X147940000Y-46400000I200000J0D01*
G01*
X148340000Y-46400000D01*
G75*
G02*
X148540000Y-46600000I0J-200000D01*
G01*
X148540000Y-47000000D01*
G75*
G02*
X148340000Y-47200000I-200000J0D01*
G01*
X147940000Y-47200000D01*
G75*
G02*
X147740000Y-47000000I0J200000D01*
G01*
G37*
%TD.AperFunction*%
%TO.N,usb_P*%
%TA.AperFunction,ComponentPad*%
G36*
G01*
X146740000Y-47000000D02*
X146740000Y-46600000D01*
G75*
G02*
X146940000Y-46400000I200000J0D01*
G01*
X147340000Y-46400000D01*
G75*
G02*
X147540000Y-46600000I0J-200000D01*
G01*
X147540000Y-47000000D01*
G75*
G02*
X147340000Y-47200000I-200000J0D01*
G01*
X146940000Y-47200000D01*
G75*
G02*
X146740000Y-47000000I0J200000D01*
G01*
G37*
%TD.AperFunction*%
%TO.N,Net-(J1-PadA5)*%
%TA.AperFunction,ComponentPad*%
G36*
G01*
X145740000Y-47000000D02*
X145740000Y-46600000D01*
G75*
G02*
X145940000Y-46400000I200000J0D01*
G01*
X146340000Y-46400000D01*
G75*
G02*
X146540000Y-46600000I0J-200000D01*
G01*
X146540000Y-47000000D01*
G75*
G02*
X146340000Y-47200000I-200000J0D01*
G01*
X145940000Y-47200000D01*
G75*
G02*
X145740000Y-47000000I0J200000D01*
G01*
G37*
%TD.AperFunction*%
%TO.N,vcc_usb*%
%TA.AperFunction,ComponentPad*%
G36*
G01*
X144740000Y-47000000D02*
X144740000Y-46600000D01*
G75*
G02*
X144940000Y-46400000I200000J0D01*
G01*
X145340000Y-46400000D01*
G75*
G02*
X145540000Y-46600000I0J-200000D01*
G01*
X145540000Y-47000000D01*
G75*
G02*
X145340000Y-47200000I-200000J0D01*
G01*
X144940000Y-47200000D01*
G75*
G02*
X144740000Y-47000000I0J200000D01*
G01*
G37*
%TD.AperFunction*%
%TO.N,GND*%
%TA.AperFunction,ComponentPad*%
G36*
G01*
X143740000Y-47000000D02*
X143740000Y-46600000D01*
G75*
G02*
X143940000Y-46400000I200000J0D01*
G01*
X144340000Y-46400000D01*
G75*
G02*
X144540000Y-46600000I0J-200000D01*
G01*
X144540000Y-47000000D01*
G75*
G02*
X144340000Y-47200000I-200000J0D01*
G01*
X143940000Y-47200000D01*
G75*
G02*
X143740000Y-47000000I0J200000D01*
G01*
G37*
%TD.AperFunction*%
%TA.AperFunction,ComponentPad*%
G36*
G01*
X143740000Y-48400000D02*
X143740000Y-48000000D01*
G75*
G02*
X143940000Y-47800000I200000J0D01*
G01*
X144340000Y-47800000D01*
G75*
G02*
X144540000Y-48000000I0J-200000D01*
G01*
X144540000Y-48400000D01*
G75*
G02*
X144340000Y-48600000I-200000J0D01*
G01*
X143940000Y-48600000D01*
G75*
G02*
X143740000Y-48400000I0J200000D01*
G01*
G37*
%TD.AperFunction*%
%TO.N,vcc_usb*%
%TA.AperFunction,ComponentPad*%
G36*
G01*
X144740000Y-48400000D02*
X144740000Y-48000000D01*
G75*
G02*
X144940000Y-47800000I200000J0D01*
G01*
X145340000Y-47800000D01*
G75*
G02*
X145540000Y-48000000I0J-200000D01*
G01*
X145540000Y-48400000D01*
G75*
G02*
X145340000Y-48600000I-200000J0D01*
G01*
X144940000Y-48600000D01*
G75*
G02*
X144740000Y-48400000I0J200000D01*
G01*
G37*
%TD.AperFunction*%
%TO.N,usb_N*%
%TA.AperFunction,ComponentPad*%
G36*
G01*
X146740000Y-48400000D02*
X146740000Y-48000000D01*
G75*
G02*
X146940000Y-47800000I200000J0D01*
G01*
X147340000Y-47800000D01*
G75*
G02*
X147540000Y-48000000I0J-200000D01*
G01*
X147540000Y-48400000D01*
G75*
G02*
X147340000Y-48600000I-200000J0D01*
G01*
X146940000Y-48600000D01*
G75*
G02*
X146740000Y-48400000I0J200000D01*
G01*
G37*
%TD.AperFunction*%
%TO.N,GND*%
%TA.AperFunction,ComponentPad*%
G36*
G01*
X150740000Y-48400000D02*
X150740000Y-48000000D01*
G75*
G02*
X150940000Y-47800000I200000J0D01*
G01*
X151340000Y-47800000D01*
G75*
G02*
X151540000Y-48000000I0J-200000D01*
G01*
X151540000Y-48400000D01*
G75*
G02*
X151340000Y-48600000I-200000J0D01*
G01*
X150940000Y-48600000D01*
G75*
G02*
X150740000Y-48400000I0J200000D01*
G01*
G37*
%TD.AperFunction*%
%TO.N,vcc_usb*%
%TA.AperFunction,ComponentPad*%
G36*
G01*
X149740000Y-48400000D02*
X149740000Y-48000000D01*
G75*
G02*
X149940000Y-47800000I200000J0D01*
G01*
X150340000Y-47800000D01*
G75*
G02*
X150540000Y-48000000I0J-200000D01*
G01*
X150540000Y-48400000D01*
G75*
G02*
X150340000Y-48600000I-200000J0D01*
G01*
X149940000Y-48600000D01*
G75*
G02*
X149740000Y-48400000I0J200000D01*
G01*
G37*
%TD.AperFunction*%
%TO.N,Net-(J1-PadB5)*%
%TA.AperFunction,ComponentPad*%
G36*
G01*
X148740000Y-48400000D02*
X148740000Y-48000000D01*
G75*
G02*
X148940000Y-47800000I200000J0D01*
G01*
X149340000Y-47800000D01*
G75*
G02*
X149540000Y-48000000I0J-200000D01*
G01*
X149540000Y-48400000D01*
G75*
G02*
X149340000Y-48600000I-200000J0D01*
G01*
X148940000Y-48600000D01*
G75*
G02*
X148740000Y-48400000I0J200000D01*
G01*
G37*
%TD.AperFunction*%
%TO.N,usb_P*%
%TA.AperFunction,ComponentPad*%
G36*
G01*
X147740000Y-48400000D02*
X147740000Y-48000000D01*
G75*
G02*
X147940000Y-47800000I200000J0D01*
G01*
X148340000Y-47800000D01*
G75*
G02*
X148540000Y-48000000I0J-200000D01*
G01*
X148540000Y-48400000D01*
G75*
G02*
X148340000Y-48600000I-200000J0D01*
G01*
X147940000Y-48600000D01*
G75*
G02*
X147740000Y-48400000I0J200000D01*
G01*
G37*
%TD.AperFunction*%
%TD*%
D10*
%TO.N,uart3_tx*%
%TO.C,J3*%
X122540000Y-76070000D03*
D11*
%TO.N,N/C*%
X125080000Y-76070000D03*
%TO.N,vcc_tng9x*%
X127620000Y-76070000D03*
%TO.N,GND*%
X130160000Y-76070000D03*
%TO.N,uart3_rx*%
X132700000Y-76070000D03*
%TD*%
D12*
%TO.N,Net-(D3-Pad3)*%
%TO.C,D3*%
X138920000Y-75100000D03*
%TO.N,+3V3*%
X141460000Y-75100000D03*
D13*
%TO.N,Net-(D3-Pad1)*%
X144000000Y-75100000D03*
%TD*%
%TO.N,Net-(D4-Pad1)*%
%TO.C,D4*%
X157460000Y-75100000D03*
D12*
%TO.N,+3V3*%
X154920000Y-75100000D03*
%TO.N,Net-(D4-Pad3)*%
X152380000Y-75100000D03*
%TD*%
D14*
%TO.N,GND*%
X159550000Y-68990000D03*
X175250000Y-69000000D03*
X175250000Y-54540000D03*
X175260000Y-52010000D03*
X159550000Y-52000000D03*
X159550000Y-53260000D03*
X159550000Y-54540000D03*
X159550000Y-60110000D03*
X155139998Y-58270000D03*
X150990000Y-68830000D03*
X125970000Y-57310000D03*
X124376312Y-50017943D03*
X147340000Y-65880000D03*
X159570000Y-61370002D03*
X142200000Y-49320000D03*
X153100000Y-49320000D03*
D15*
X142160000Y-66330000D03*
X144270000Y-53000000D03*
D14*
X156140000Y-68050000D03*
D15*
X137600000Y-52650000D03*
X137600000Y-60500000D03*
X137600000Y-68350000D03*
X126790000Y-70310000D03*
X123940000Y-63320000D03*
D14*
X128410000Y-69540000D03*
D15*
X142770000Y-53000000D03*
X142560000Y-62710000D03*
D14*
X150969529Y-70260153D03*
X147349988Y-67349988D03*
D15*
X147660000Y-54130000D03*
D14*
%TO.N,+3V3*%
X150990000Y-65880000D03*
X155170000Y-56740000D03*
D15*
X143720000Y-66320000D03*
X144290000Y-56450000D03*
D14*
X156130000Y-66150000D03*
X127149996Y-49940000D03*
D15*
X137600000Y-53640000D03*
X137600000Y-61490000D03*
X137600000Y-69350000D03*
D14*
X151000000Y-67350000D03*
D15*
X142780000Y-56460000D03*
%TO.N,vcc_usb*%
X147650000Y-51930000D03*
X145769998Y-52570000D03*
D14*
%TO.N,e22_nrst*%
X175249998Y-65190000D03*
X158627341Y-64344979D03*
%TO.N,e22_busy*%
X175250000Y-66450000D03*
X157614181Y-64794990D03*
%TO.N,uart1_rx*%
X147890000Y-57380000D03*
D15*
X137600000Y-58500000D03*
D14*
%TO.N,uart1_tx*%
X148980000Y-57370000D03*
D15*
X137600000Y-59500000D03*
D14*
%TO.N,e22_dio1*%
X175230000Y-67730000D03*
X156587020Y-65012978D03*
%TO.N,spi1_sck*%
X175250000Y-61380000D03*
X156645351Y-61470000D03*
%TO.N,spi1_miso*%
X155644231Y-61445801D03*
X175260000Y-63922341D03*
%TO.N,spi1_mosi*%
X175240589Y-62638060D03*
X157370361Y-62639962D03*
%TO.N,uart3_rx*%
X150650000Y-58090000D03*
D15*
X137600000Y-66350000D03*
D14*
%TO.N,uart3_tx*%
X150770000Y-59280000D03*
D15*
X137600000Y-67350000D03*
D14*
%TO.N,Net-(R7-Pad1)*%
X147340000Y-70300000D03*
D15*
X149430000Y-62910000D03*
%TO.N,Net-(C5-Pad1)*%
X148430000Y-62910000D03*
D14*
X147340000Y-68830000D03*
D15*
%TO.N,usb_N*%
X149420000Y-50900000D03*
%TO.N,usb_P*%
X145880000Y-50900000D03*
D14*
%TO.N,e22_nss*%
X175250000Y-60110000D03*
X151672502Y-55837500D03*
%TD*%
D16*
%TO.N,vcc_usb*%
X147650000Y-51930000D02*
X147010000Y-52570000D01*
X147010000Y-52570000D02*
X145769998Y-52570000D01*
D17*
X145140000Y-46800000D02*
X145140000Y-47200000D01*
X145440000Y-47500000D02*
X149730000Y-47500000D01*
X150440000Y-47500000D02*
X151570000Y-47500000D01*
X149278002Y-51930000D02*
X147650000Y-51930000D01*
X151840010Y-47770010D02*
X151840010Y-49367992D01*
X151840010Y-49367992D02*
X149278002Y-51930000D01*
X151570000Y-47500000D02*
X151840010Y-47770010D01*
X143439990Y-49347992D02*
X146021998Y-51930000D01*
X143439990Y-47770010D02*
X143439990Y-49347992D01*
X143710000Y-47500000D02*
X143439990Y-47770010D01*
X146021998Y-51930000D02*
X147650000Y-51930000D01*
X144840000Y-47500000D02*
X143710000Y-47500000D01*
X145140000Y-47800000D02*
X145140000Y-48200000D01*
X145140000Y-47750000D02*
X145140000Y-47800000D01*
X145390000Y-47500000D02*
X145140000Y-47750000D01*
X145440000Y-47500000D02*
X145390000Y-47500000D01*
X144890000Y-47500000D02*
X145140000Y-47750000D01*
X144840000Y-47500000D02*
X144890000Y-47500000D01*
X145380000Y-47500000D02*
X145440000Y-47500000D01*
X145140000Y-47260000D02*
X145380000Y-47500000D01*
X145140000Y-47200000D02*
X145140000Y-47260000D01*
X144880000Y-47500000D02*
X144840000Y-47500000D01*
X145140000Y-47240000D02*
X144880000Y-47500000D01*
X145140000Y-47200000D02*
X145140000Y-47240000D01*
X150140000Y-47750000D02*
X150140000Y-48200000D01*
X149890000Y-47500000D02*
X150140000Y-47750000D01*
X149730000Y-47500000D02*
X149890000Y-47500000D01*
X150390000Y-47500000D02*
X150140000Y-47750000D01*
X150440000Y-47500000D02*
X150390000Y-47500000D01*
X150140000Y-47250000D02*
X150390000Y-47500000D01*
X150140000Y-46800000D02*
X150140000Y-47250000D01*
X149890000Y-47500000D02*
X150140000Y-47250000D01*
%TO.N,usb_P*%
X145927122Y-50900000D02*
X145880000Y-50900000D01*
X148140000Y-48687122D02*
X145927122Y-50900000D01*
X148140000Y-48200000D02*
X148140000Y-48687122D01*
%TD*%
D18*
%TO.N,GND*%
X137090001Y-42247571D02*
X137086807Y-42280000D01*
X137099550Y-42409383D01*
X137137290Y-42533793D01*
X137198575Y-42648450D01*
X137281052Y-42748948D01*
X137381550Y-42831425D01*
X137496207Y-42892710D01*
X137620617Y-42930450D01*
X137717581Y-42940000D01*
X137750000Y-42943193D01*
X137782419Y-42940000D01*
X158567581Y-42940000D01*
X158600000Y-42943193D01*
X158632419Y-42940000D01*
X158729383Y-42930450D01*
X158853793Y-42892710D01*
X158968450Y-42831425D01*
X159068948Y-42748948D01*
X159151425Y-42648450D01*
X159212710Y-42533793D01*
X159250450Y-42409383D01*
X159263193Y-42280000D01*
X159260000Y-42247581D01*
X159260000Y-40110000D01*
X172002896Y-40110000D01*
X172025315Y-40323302D01*
X172037338Y-40381871D01*
X172048551Y-40440657D01*
X172051215Y-40449479D01*
X172282063Y-41195229D01*
X172305238Y-41250359D01*
X172327652Y-41305838D01*
X172331979Y-41313974D01*
X172703282Y-42000684D01*
X172736727Y-42050268D01*
X172769487Y-42100331D01*
X172775311Y-42107472D01*
X173272924Y-42708983D01*
X173315376Y-42751140D01*
X173357223Y-42793873D01*
X173364318Y-42799741D01*
X173364324Y-42799747D01*
X173364331Y-42799751D01*
X173969294Y-43293148D01*
X174019087Y-43326230D01*
X174068476Y-43360048D01*
X174076583Y-43364430D01*
X174765867Y-43730930D01*
X174821182Y-43753729D01*
X174876154Y-43777290D01*
X174884957Y-43780015D01*
X175632302Y-44005652D01*
X175691011Y-44017277D01*
X175749494Y-44029708D01*
X175758657Y-44030671D01*
X175758659Y-44030671D01*
X175940000Y-44048452D01*
X175940000Y-59336289D01*
X175909774Y-59306063D01*
X175740256Y-59192795D01*
X175551898Y-59114774D01*
X175351939Y-59075000D01*
X175148061Y-59075000D01*
X174948102Y-59114774D01*
X174759744Y-59192795D01*
X174590226Y-59306063D01*
X174446063Y-59450226D01*
X174332795Y-59619744D01*
X174254774Y-59808102D01*
X174215000Y-60008061D01*
X174215000Y-60211939D01*
X174254774Y-60411898D01*
X174332795Y-60600256D01*
X174429510Y-60745000D01*
X174332795Y-60889744D01*
X174254774Y-61078102D01*
X174215000Y-61278061D01*
X174215000Y-61481939D01*
X174254774Y-61681898D01*
X174332795Y-61870256D01*
X174420815Y-62001988D01*
X174323384Y-62147804D01*
X174245363Y-62336162D01*
X174205589Y-62536121D01*
X174205589Y-62739999D01*
X174245363Y-62939958D01*
X174323384Y-63128316D01*
X174434575Y-63294726D01*
X174342795Y-63432085D01*
X174264774Y-63620443D01*
X174225000Y-63820402D01*
X174225000Y-64024280D01*
X174264774Y-64224239D01*
X174342795Y-64412597D01*
X174433726Y-64548686D01*
X174332793Y-64699744D01*
X174254772Y-64888102D01*
X174214998Y-65088061D01*
X174214998Y-65291939D01*
X174254772Y-65491898D01*
X174332793Y-65680256D01*
X174426168Y-65820001D01*
X174332795Y-65959744D01*
X174254774Y-66148102D01*
X174215000Y-66348061D01*
X174215000Y-66551939D01*
X174254774Y-66751898D01*
X174332795Y-66940256D01*
X174422850Y-67075034D01*
X174312795Y-67239744D01*
X174234774Y-67428102D01*
X174195000Y-67628061D01*
X174195000Y-67831939D01*
X174234774Y-68031898D01*
X174312795Y-68220256D01*
X174426063Y-68389774D01*
X174570226Y-68533937D01*
X174739744Y-68647205D01*
X174928102Y-68725226D01*
X175128061Y-68765000D01*
X175331939Y-68765000D01*
X175531898Y-68725226D01*
X175720256Y-68647205D01*
X175889774Y-68533937D01*
X175940001Y-68483710D01*
X175940001Y-75952896D01*
X175726699Y-75975315D01*
X175668106Y-75987342D01*
X175609342Y-75998552D01*
X175600520Y-76001215D01*
X174854771Y-76232063D01*
X174799608Y-76255251D01*
X174744162Y-76277653D01*
X174736026Y-76281979D01*
X174049316Y-76653282D01*
X173999741Y-76686721D01*
X173949670Y-76719486D01*
X173942529Y-76725311D01*
X173341017Y-77222924D01*
X173298858Y-77265379D01*
X173256127Y-77307224D01*
X173250253Y-77314324D01*
X172756852Y-77919295D01*
X172723764Y-77969096D01*
X172689953Y-78018476D01*
X172685570Y-78026582D01*
X172319071Y-78715867D01*
X172296280Y-78771161D01*
X172272710Y-78826154D01*
X172269985Y-78834957D01*
X172044348Y-79582302D01*
X172032725Y-79641005D01*
X172020292Y-79699494D01*
X172019329Y-79708658D01*
X172001548Y-79890000D01*
X159260000Y-79890000D01*
X159260000Y-77752419D01*
X159263193Y-77720000D01*
X159250450Y-77590617D01*
X159212710Y-77466207D01*
X159151425Y-77351550D01*
X159068948Y-77251052D01*
X158968450Y-77168575D01*
X158853793Y-77107290D01*
X158729383Y-77069550D01*
X158632419Y-77060000D01*
X158600000Y-77056807D01*
X158567581Y-77060000D01*
X137782419Y-77060000D01*
X137750000Y-77056807D01*
X137717581Y-77060000D01*
X137620617Y-77069550D01*
X137496207Y-77107290D01*
X137381550Y-77168575D01*
X137281052Y-77251052D01*
X137198575Y-77351550D01*
X137137290Y-77466207D01*
X137099550Y-77590617D01*
X137086807Y-77720000D01*
X137090001Y-77752429D01*
X137090000Y-79890000D01*
X120660000Y-79890000D01*
X120660000Y-75220000D01*
X121051928Y-75220000D01*
X121051928Y-76920000D01*
X121064188Y-77044482D01*
X121100498Y-77164180D01*
X121159463Y-77274494D01*
X121238815Y-77371185D01*
X121335506Y-77450537D01*
X121445820Y-77509502D01*
X121565518Y-77545812D01*
X121690000Y-77558072D01*
X123390000Y-77558072D01*
X123514482Y-77545812D01*
X123634180Y-77509502D01*
X123744494Y-77450537D01*
X123841185Y-77371185D01*
X123920537Y-77274494D01*
X123979502Y-77164180D01*
X124001513Y-77091620D01*
X124133368Y-77223475D01*
X124376589Y-77385990D01*
X124646842Y-77497932D01*
X124933740Y-77555000D01*
X125226260Y-77555000D01*
X125513158Y-77497932D01*
X125783411Y-77385990D01*
X126026632Y-77223475D01*
X126233475Y-77016632D01*
X126350000Y-76842240D01*
X126466525Y-77016632D01*
X126673368Y-77223475D01*
X126916589Y-77385990D01*
X127186842Y-77497932D01*
X127473740Y-77555000D01*
X127766260Y-77555000D01*
X128053158Y-77497932D01*
X128323411Y-77385990D01*
X128566632Y-77223475D01*
X128773475Y-77016632D01*
X128895195Y-76834466D01*
X128964822Y-76951355D01*
X129159731Y-77167588D01*
X129393080Y-77341641D01*
X129655901Y-77466825D01*
X129803110Y-77511476D01*
X130033000Y-77390155D01*
X130033000Y-76197000D01*
X130013000Y-76197000D01*
X130013000Y-75943000D01*
X130033000Y-75943000D01*
X130033000Y-74749845D01*
X130287000Y-74749845D01*
X130287000Y-75943000D01*
X130307000Y-75943000D01*
X130307000Y-76197000D01*
X130287000Y-76197000D01*
X130287000Y-77390155D01*
X130516890Y-77511476D01*
X130664099Y-77466825D01*
X130926920Y-77341641D01*
X131160269Y-77167588D01*
X131355178Y-76951355D01*
X131424805Y-76834466D01*
X131546525Y-77016632D01*
X131753368Y-77223475D01*
X131996589Y-77385990D01*
X132266842Y-77497932D01*
X132553740Y-77555000D01*
X132846260Y-77555000D01*
X133133158Y-77497932D01*
X133403411Y-77385990D01*
X133646632Y-77223475D01*
X133853475Y-77016632D01*
X134015990Y-76773411D01*
X134127932Y-76503158D01*
X134185000Y-76216260D01*
X134185000Y-75923740D01*
X134127932Y-75636842D01*
X134015990Y-75366589D01*
X133853475Y-75123368D01*
X133678923Y-74948816D01*
X137385000Y-74948816D01*
X137385000Y-75251184D01*
X137443989Y-75547743D01*
X137559701Y-75827095D01*
X137727688Y-76078505D01*
X137941495Y-76292312D01*
X138192905Y-76460299D01*
X138472257Y-76576011D01*
X138768816Y-76635000D01*
X139071184Y-76635000D01*
X139367743Y-76576011D01*
X139647095Y-76460299D01*
X139898505Y-76292312D01*
X140112312Y-76078505D01*
X140190000Y-75962237D01*
X140267688Y-76078505D01*
X140481495Y-76292312D01*
X140732905Y-76460299D01*
X141012257Y-76576011D01*
X141308816Y-76635000D01*
X141611184Y-76635000D01*
X141907743Y-76576011D01*
X142187095Y-76460299D01*
X142438505Y-76292312D01*
X142504944Y-76225873D01*
X142510498Y-76244180D01*
X142569463Y-76354494D01*
X142648815Y-76451185D01*
X142745506Y-76530537D01*
X142855820Y-76589502D01*
X142975518Y-76625812D01*
X143100000Y-76638072D01*
X144900000Y-76638072D01*
X145024482Y-76625812D01*
X145144180Y-76589502D01*
X145254494Y-76530537D01*
X145351185Y-76451185D01*
X145430537Y-76354494D01*
X145489502Y-76244180D01*
X145525812Y-76124482D01*
X145538072Y-76000000D01*
X145538072Y-74948816D01*
X150845000Y-74948816D01*
X150845000Y-75251184D01*
X150903989Y-75547743D01*
X151019701Y-75827095D01*
X151187688Y-76078505D01*
X151401495Y-76292312D01*
X151652905Y-76460299D01*
X151932257Y-76576011D01*
X152228816Y-76635000D01*
X152531184Y-76635000D01*
X152827743Y-76576011D01*
X153107095Y-76460299D01*
X153358505Y-76292312D01*
X153572312Y-76078505D01*
X153650000Y-75962237D01*
X153727688Y-76078505D01*
X153941495Y-76292312D01*
X154192905Y-76460299D01*
X154472257Y-76576011D01*
X154768816Y-76635000D01*
X155071184Y-76635000D01*
X155367743Y-76576011D01*
X155647095Y-76460299D01*
X155898505Y-76292312D01*
X155964944Y-76225873D01*
X155970498Y-76244180D01*
X156029463Y-76354494D01*
X156108815Y-76451185D01*
X156205506Y-76530537D01*
X156315820Y-76589502D01*
X156435518Y-76625812D01*
X156560000Y-76638072D01*
X158360000Y-76638072D01*
X158484482Y-76625812D01*
X158604180Y-76589502D01*
X158714494Y-76530537D01*
X158811185Y-76451185D01*
X158890537Y-76354494D01*
X158949502Y-76244180D01*
X158985812Y-76124482D01*
X158998072Y-76000000D01*
X158998072Y-74200000D01*
X158985812Y-74075518D01*
X158949502Y-73955820D01*
X158890537Y-73845506D01*
X158811185Y-73748815D01*
X158714494Y-73669463D01*
X158604180Y-73610498D01*
X158484482Y-73574188D01*
X158360000Y-73561928D01*
X156560000Y-73561928D01*
X156435518Y-73574188D01*
X156315820Y-73610498D01*
X156205506Y-73669463D01*
X156108815Y-73748815D01*
X156029463Y-73845506D01*
X155970498Y-73955820D01*
X155964944Y-73974127D01*
X155898505Y-73907688D01*
X155647095Y-73739701D01*
X155367743Y-73623989D01*
X155071184Y-73565000D01*
X154768816Y-73565000D01*
X154472257Y-73623989D01*
X154192905Y-73739701D01*
X153941495Y-73907688D01*
X153727688Y-74121495D01*
X153650000Y-74237763D01*
X153572312Y-74121495D01*
X153358505Y-73907688D01*
X153107095Y-73739701D01*
X152827743Y-73623989D01*
X152531184Y-73565000D01*
X152228816Y-73565000D01*
X151932257Y-73623989D01*
X151652905Y-73739701D01*
X151401495Y-73907688D01*
X151187688Y-74121495D01*
X151019701Y-74372905D01*
X150903989Y-74652257D01*
X150845000Y-74948816D01*
X145538072Y-74948816D01*
X145538072Y-74200000D01*
X145525812Y-74075518D01*
X145489502Y-73955820D01*
X145430537Y-73845506D01*
X145351185Y-73748815D01*
X145254494Y-73669463D01*
X145144180Y-73610498D01*
X145024482Y-73574188D01*
X144900000Y-73561928D01*
X143100000Y-73561928D01*
X142975518Y-73574188D01*
X142855820Y-73610498D01*
X142745506Y-73669463D01*
X142648815Y-73748815D01*
X142569463Y-73845506D01*
X142510498Y-73955820D01*
X142504944Y-73974127D01*
X142438505Y-73907688D01*
X142187095Y-73739701D01*
X141907743Y-73623989D01*
X141611184Y-73565000D01*
X141308816Y-73565000D01*
X141012257Y-73623989D01*
X140732905Y-73739701D01*
X140481495Y-73907688D01*
X140267688Y-74121495D01*
X140190000Y-74237763D01*
X140112312Y-74121495D01*
X139898505Y-73907688D01*
X139647095Y-73739701D01*
X139367743Y-73623989D01*
X139071184Y-73565000D01*
X138768816Y-73565000D01*
X138472257Y-73623989D01*
X138192905Y-73739701D01*
X137941495Y-73907688D01*
X137727688Y-74121495D01*
X137559701Y-74372905D01*
X137443989Y-74652257D01*
X137385000Y-74948816D01*
X133678923Y-74948816D01*
X133646632Y-74916525D01*
X133403411Y-74754010D01*
X133133158Y-74642068D01*
X132846260Y-74585000D01*
X132553740Y-74585000D01*
X132266842Y-74642068D01*
X131996589Y-74754010D01*
X131753368Y-74916525D01*
X131546525Y-75123368D01*
X131424805Y-75305534D01*
X131355178Y-75188645D01*
X131160269Y-74972412D01*
X130926920Y-74798359D01*
X130664099Y-74673175D01*
X130516890Y-74628524D01*
X130287000Y-74749845D01*
X130033000Y-74749845D01*
X129803110Y-74628524D01*
X129655901Y-74673175D01*
X129393080Y-74798359D01*
X129159731Y-74972412D01*
X128964822Y-75188645D01*
X128895195Y-75305534D01*
X128773475Y-75123368D01*
X128566632Y-74916525D01*
X128323411Y-74754010D01*
X128053158Y-74642068D01*
X127766260Y-74585000D01*
X127473740Y-74585000D01*
X127186842Y-74642068D01*
X126916589Y-74754010D01*
X126673368Y-74916525D01*
X126466525Y-75123368D01*
X126350000Y-75297760D01*
X126233475Y-75123368D01*
X126026632Y-74916525D01*
X125783411Y-74754010D01*
X125513158Y-74642068D01*
X125226260Y-74585000D01*
X124933740Y-74585000D01*
X124646842Y-74642068D01*
X124376589Y-74754010D01*
X124133368Y-74916525D01*
X124001513Y-75048380D01*
X123979502Y-74975820D01*
X123920537Y-74865506D01*
X123841185Y-74768815D01*
X123744494Y-74689463D01*
X123634180Y-74630498D01*
X123514482Y-74594188D01*
X123390000Y-74581928D01*
X121690000Y-74581928D01*
X121565518Y-74594188D01*
X121445820Y-74630498D01*
X121335506Y-74689463D01*
X121238815Y-74768815D01*
X121159463Y-74865506D01*
X121100498Y-74975820D01*
X121064188Y-75095518D01*
X121051928Y-75220000D01*
X120660000Y-75220000D01*
X120660000Y-69257911D01*
X136665000Y-69257911D01*
X136665000Y-69442089D01*
X136700932Y-69622729D01*
X136771414Y-69792889D01*
X136873738Y-69946028D01*
X137003972Y-70076262D01*
X137157111Y-70178586D01*
X137327271Y-70249068D01*
X137507911Y-70285000D01*
X137692089Y-70285000D01*
X137872729Y-70249068D01*
X138042889Y-70178586D01*
X138196028Y-70076262D01*
X138326262Y-69946028D01*
X138428586Y-69792889D01*
X138499068Y-69622729D01*
X138535000Y-69442089D01*
X138535000Y-69257911D01*
X138499068Y-69077271D01*
X138428586Y-68907111D01*
X138326262Y-68753972D01*
X138300351Y-68728061D01*
X146305000Y-68728061D01*
X146305000Y-68931939D01*
X146344774Y-69131898D01*
X146422795Y-69320256D01*
X146536063Y-69489774D01*
X146611289Y-69565000D01*
X146536063Y-69640226D01*
X146422795Y-69809744D01*
X146344774Y-69998102D01*
X146305000Y-70198061D01*
X146305000Y-70401939D01*
X146344774Y-70601898D01*
X146422795Y-70790256D01*
X146536063Y-70959774D01*
X146680226Y-71103937D01*
X146849744Y-71217205D01*
X147038102Y-71295226D01*
X147238061Y-71335000D01*
X147441939Y-71335000D01*
X147641898Y-71295226D01*
X147830256Y-71217205D01*
X147999774Y-71103937D01*
X148143937Y-70959774D01*
X148257205Y-70790256D01*
X148335226Y-70601898D01*
X148375000Y-70401939D01*
X148375000Y-70198061D01*
X148335226Y-69998102D01*
X148257205Y-69809744D01*
X148143937Y-69640226D01*
X148068711Y-69565000D01*
X148143937Y-69489774D01*
X148257205Y-69320256D01*
X148335226Y-69131898D01*
X148375000Y-68931939D01*
X148375000Y-68728061D01*
X148335226Y-68528102D01*
X148257205Y-68339744D01*
X148143937Y-68170226D01*
X147999774Y-68026063D01*
X147830256Y-67912795D01*
X147641898Y-67834774D01*
X147441939Y-67795000D01*
X147238061Y-67795000D01*
X147038102Y-67834774D01*
X146849744Y-67912795D01*
X146680226Y-68026063D01*
X146536063Y-68170226D01*
X146422795Y-68339744D01*
X146344774Y-68528102D01*
X146305000Y-68728061D01*
X138300351Y-68728061D01*
X138196028Y-68623738D01*
X138042889Y-68521414D01*
X137872729Y-68450932D01*
X137692089Y-68415000D01*
X137507911Y-68415000D01*
X137327271Y-68450932D01*
X137157111Y-68521414D01*
X137003972Y-68623738D01*
X136873738Y-68753972D01*
X136771414Y-68907111D01*
X136700932Y-69077271D01*
X136665000Y-69257911D01*
X120660000Y-69257911D01*
X120660000Y-66257911D01*
X136665000Y-66257911D01*
X136665000Y-66442089D01*
X136700932Y-66622729D01*
X136771414Y-66792889D01*
X136809574Y-66850000D01*
X136771414Y-66907111D01*
X136700932Y-67077271D01*
X136665000Y-67257911D01*
X136665000Y-67442089D01*
X136700932Y-67622729D01*
X136771414Y-67792889D01*
X136873738Y-67946028D01*
X137003972Y-68076262D01*
X137157111Y-68178586D01*
X137327271Y-68249068D01*
X137507911Y-68285000D01*
X137692089Y-68285000D01*
X137872729Y-68249068D01*
X138042889Y-68178586D01*
X138196028Y-68076262D01*
X138326262Y-67946028D01*
X138428586Y-67792889D01*
X138499068Y-67622729D01*
X138535000Y-67442089D01*
X138535000Y-67257911D01*
X138499068Y-67077271D01*
X138428586Y-66907111D01*
X138390426Y-66850000D01*
X138428586Y-66792889D01*
X138499068Y-66622729D01*
X138535000Y-66442089D01*
X138535000Y-66257911D01*
X138529033Y-66227911D01*
X142785000Y-66227911D01*
X142785000Y-66412089D01*
X142820932Y-66592729D01*
X142891414Y-66762889D01*
X142993738Y-66916028D01*
X143123972Y-67046262D01*
X143277111Y-67148586D01*
X143447271Y-67219068D01*
X143627911Y-67255000D01*
X143812089Y-67255000D01*
X143992729Y-67219068D01*
X144162889Y-67148586D01*
X144316028Y-67046262D01*
X144446262Y-66916028D01*
X144548586Y-66762889D01*
X144619068Y-66592729D01*
X144655000Y-66412089D01*
X144655000Y-66227911D01*
X144619068Y-66047271D01*
X144548586Y-65877111D01*
X144482404Y-65778061D01*
X149955000Y-65778061D01*
X149955000Y-65981939D01*
X149994774Y-66181898D01*
X150072795Y-66370256D01*
X150186063Y-66539774D01*
X150266289Y-66620000D01*
X150196063Y-66690226D01*
X150082795Y-66859744D01*
X150004774Y-67048102D01*
X149965000Y-67248061D01*
X149965000Y-67451939D01*
X150004774Y-67651898D01*
X150082795Y-67840256D01*
X150196063Y-68009774D01*
X150340226Y-68153937D01*
X150509744Y-68267205D01*
X150698102Y-68345226D01*
X150898061Y-68385000D01*
X151101939Y-68385000D01*
X151301898Y-68345226D01*
X151490256Y-68267205D01*
X151659774Y-68153937D01*
X151803937Y-68009774D01*
X151917205Y-67840256D01*
X151995226Y-67651898D01*
X152035000Y-67451939D01*
X152035000Y-67248061D01*
X151995226Y-67048102D01*
X151917205Y-66859744D01*
X151803937Y-66690226D01*
X151723711Y-66610000D01*
X151793937Y-66539774D01*
X151907205Y-66370256D01*
X151985226Y-66181898D01*
X152011847Y-66048061D01*
X155095000Y-66048061D01*
X155095000Y-66251939D01*
X155134774Y-66451898D01*
X155212795Y-66640256D01*
X155326063Y-66809774D01*
X155470226Y-66953937D01*
X155639744Y-67067205D01*
X155828102Y-67145226D01*
X156028061Y-67185000D01*
X156231939Y-67185000D01*
X156431898Y-67145226D01*
X156620256Y-67067205D01*
X156789774Y-66953937D01*
X156933937Y-66809774D01*
X157047205Y-66640256D01*
X157125226Y-66451898D01*
X157165000Y-66251939D01*
X157165000Y-66048061D01*
X157134012Y-65892273D01*
X157246794Y-65816915D01*
X157284854Y-65778855D01*
X157312283Y-65790216D01*
X157512242Y-65829990D01*
X157716120Y-65829990D01*
X157916079Y-65790216D01*
X158104437Y-65712195D01*
X158273955Y-65598927D01*
X158418118Y-65454764D01*
X158474811Y-65369916D01*
X158525402Y-65379979D01*
X158729280Y-65379979D01*
X158929239Y-65340205D01*
X159117597Y-65262184D01*
X159287115Y-65148916D01*
X159431278Y-65004753D01*
X159544546Y-64835235D01*
X159622567Y-64646877D01*
X159662341Y-64446918D01*
X159662341Y-64243040D01*
X159622567Y-64043081D01*
X159544546Y-63854723D01*
X159431278Y-63685205D01*
X159287115Y-63541042D01*
X159117597Y-63427774D01*
X158929239Y-63349753D01*
X158729280Y-63309979D01*
X158525402Y-63309979D01*
X158325443Y-63349753D01*
X158137085Y-63427774D01*
X157967567Y-63541042D01*
X157823404Y-63685205D01*
X157766711Y-63770053D01*
X157716120Y-63759990D01*
X157512242Y-63759990D01*
X157312283Y-63799764D01*
X157123925Y-63877785D01*
X156954407Y-63991053D01*
X156916347Y-64029113D01*
X156888918Y-64017752D01*
X156688959Y-63977978D01*
X156485081Y-63977978D01*
X156285122Y-64017752D01*
X156096764Y-64095773D01*
X155927246Y-64209041D01*
X155783083Y-64353204D01*
X155669815Y-64522722D01*
X155591794Y-64711080D01*
X155552020Y-64911039D01*
X155552020Y-65114917D01*
X155583008Y-65270705D01*
X155470226Y-65346063D01*
X155326063Y-65490226D01*
X155212795Y-65659744D01*
X155134774Y-65848102D01*
X155095000Y-66048061D01*
X152011847Y-66048061D01*
X152025000Y-65981939D01*
X152025000Y-65778061D01*
X151985226Y-65578102D01*
X151907205Y-65389744D01*
X151793937Y-65220226D01*
X151649774Y-65076063D01*
X151480256Y-64962795D01*
X151291898Y-64884774D01*
X151091939Y-64845000D01*
X150888061Y-64845000D01*
X150688102Y-64884774D01*
X150499744Y-64962795D01*
X150330226Y-65076063D01*
X150186063Y-65220226D01*
X150072795Y-65389744D01*
X149994774Y-65578102D01*
X149955000Y-65778061D01*
X144482404Y-65778061D01*
X144446262Y-65723972D01*
X144316028Y-65593738D01*
X144162889Y-65491414D01*
X143992729Y-65420932D01*
X143812089Y-65385000D01*
X143627911Y-65385000D01*
X143447271Y-65420932D01*
X143277111Y-65491414D01*
X143123972Y-65593738D01*
X142993738Y-65723972D01*
X142891414Y-65877111D01*
X142820932Y-66047271D01*
X142785000Y-66227911D01*
X138529033Y-66227911D01*
X138499068Y-66077271D01*
X138428586Y-65907111D01*
X138326262Y-65753972D01*
X138196028Y-65623738D01*
X138042889Y-65521414D01*
X137872729Y-65450932D01*
X137692089Y-65415000D01*
X137507911Y-65415000D01*
X137327271Y-65450932D01*
X137157111Y-65521414D01*
X137003972Y-65623738D01*
X136873738Y-65753972D01*
X136771414Y-65907111D01*
X136700932Y-66077271D01*
X136665000Y-66257911D01*
X120660000Y-66257911D01*
X120660000Y-62817911D01*
X147495000Y-62817911D01*
X147495000Y-63002089D01*
X147530932Y-63182729D01*
X147601414Y-63352889D01*
X147703738Y-63506028D01*
X147833972Y-63636262D01*
X147987111Y-63738586D01*
X148157271Y-63809068D01*
X148337911Y-63845000D01*
X148522089Y-63845000D01*
X148702729Y-63809068D01*
X148872889Y-63738586D01*
X148930000Y-63700426D01*
X148987111Y-63738586D01*
X149157271Y-63809068D01*
X149337911Y-63845000D01*
X149522089Y-63845000D01*
X149702729Y-63809068D01*
X149872889Y-63738586D01*
X150026028Y-63636262D01*
X150156262Y-63506028D01*
X150258586Y-63352889D01*
X150329068Y-63182729D01*
X150365000Y-63002089D01*
X150365000Y-62817911D01*
X150329068Y-62637271D01*
X150258586Y-62467111D01*
X150156262Y-62313972D01*
X150026028Y-62183738D01*
X149872889Y-62081414D01*
X149702729Y-62010932D01*
X149522089Y-61975000D01*
X149337911Y-61975000D01*
X149157271Y-62010932D01*
X148987111Y-62081414D01*
X148930000Y-62119574D01*
X148872889Y-62081414D01*
X148702729Y-62010932D01*
X148522089Y-61975000D01*
X148337911Y-61975000D01*
X148157271Y-62010932D01*
X147987111Y-62081414D01*
X147833972Y-62183738D01*
X147703738Y-62313972D01*
X147601414Y-62467111D01*
X147530932Y-62637271D01*
X147495000Y-62817911D01*
X120660000Y-62817911D01*
X120660000Y-61397911D01*
X136665000Y-61397911D01*
X136665000Y-61582089D01*
X136700932Y-61762729D01*
X136771414Y-61932889D01*
X136873738Y-62086028D01*
X137003972Y-62216262D01*
X137157111Y-62318586D01*
X137327271Y-62389068D01*
X137507911Y-62425000D01*
X137692089Y-62425000D01*
X137872729Y-62389068D01*
X138042889Y-62318586D01*
X138196028Y-62216262D01*
X138326262Y-62086028D01*
X138428586Y-61932889D01*
X138499068Y-61762729D01*
X138535000Y-61582089D01*
X138535000Y-61397911D01*
X138524249Y-61343862D01*
X154609231Y-61343862D01*
X154609231Y-61547740D01*
X154649005Y-61747699D01*
X154727026Y-61936057D01*
X154840294Y-62105575D01*
X154984457Y-62249738D01*
X155153975Y-62363006D01*
X155342333Y-62441027D01*
X155542292Y-62480801D01*
X155746170Y-62480801D01*
X155946129Y-62441027D01*
X156124852Y-62366997D01*
X156155095Y-62387205D01*
X156343453Y-62465226D01*
X156349598Y-62466448D01*
X156335361Y-62538023D01*
X156335361Y-62741901D01*
X156375135Y-62941860D01*
X156453156Y-63130218D01*
X156566424Y-63299736D01*
X156710587Y-63443899D01*
X156880105Y-63557167D01*
X157068463Y-63635188D01*
X157268422Y-63674962D01*
X157472300Y-63674962D01*
X157672259Y-63635188D01*
X157860617Y-63557167D01*
X158030135Y-63443899D01*
X158174298Y-63299736D01*
X158287566Y-63130218D01*
X158365587Y-62941860D01*
X158405361Y-62741901D01*
X158405361Y-62538023D01*
X158365587Y-62338064D01*
X158287566Y-62149706D01*
X158174298Y-61980188D01*
X158030135Y-61836025D01*
X157860617Y-61722757D01*
X157672259Y-61644736D01*
X157666114Y-61643514D01*
X157680351Y-61571939D01*
X157680351Y-61368061D01*
X157640577Y-61168102D01*
X157562556Y-60979744D01*
X157449288Y-60810226D01*
X157305125Y-60666063D01*
X157135607Y-60552795D01*
X156947249Y-60474774D01*
X156747290Y-60435000D01*
X156543412Y-60435000D01*
X156343453Y-60474774D01*
X156164730Y-60548804D01*
X156134487Y-60528596D01*
X155946129Y-60450575D01*
X155746170Y-60410801D01*
X155542292Y-60410801D01*
X155342333Y-60450575D01*
X155153975Y-60528596D01*
X154984457Y-60641864D01*
X154840294Y-60786027D01*
X154727026Y-60955545D01*
X154649005Y-61143903D01*
X154609231Y-61343862D01*
X138524249Y-61343862D01*
X138499068Y-61217271D01*
X138428586Y-61047111D01*
X138326262Y-60893972D01*
X138196028Y-60763738D01*
X138042889Y-60661414D01*
X137872729Y-60590932D01*
X137692089Y-60555000D01*
X137507911Y-60555000D01*
X137327271Y-60590932D01*
X137157111Y-60661414D01*
X137003972Y-60763738D01*
X136873738Y-60893972D01*
X136771414Y-61047111D01*
X136700932Y-61217271D01*
X136665000Y-61397911D01*
X120660000Y-61397911D01*
X120660000Y-58407911D01*
X136665000Y-58407911D01*
X136665000Y-58592089D01*
X136700932Y-58772729D01*
X136771414Y-58942889D01*
X136809574Y-59000000D01*
X136771414Y-59057111D01*
X136700932Y-59227271D01*
X136665000Y-59407911D01*
X136665000Y-59592089D01*
X136700932Y-59772729D01*
X136771414Y-59942889D01*
X136873738Y-60096028D01*
X137003972Y-60226262D01*
X137157111Y-60328586D01*
X137327271Y-60399068D01*
X137507911Y-60435000D01*
X137692089Y-60435000D01*
X137872729Y-60399068D01*
X138042889Y-60328586D01*
X138196028Y-60226262D01*
X138326262Y-60096028D01*
X138428586Y-59942889D01*
X138499068Y-59772729D01*
X138535000Y-59592089D01*
X138535000Y-59407911D01*
X138499068Y-59227271D01*
X138428586Y-59057111D01*
X138390426Y-59000000D01*
X138428586Y-58942889D01*
X138499068Y-58772729D01*
X138535000Y-58592089D01*
X138535000Y-58407911D01*
X138499068Y-58227271D01*
X138428586Y-58057111D01*
X138326262Y-57903972D01*
X138196028Y-57773738D01*
X138042889Y-57671414D01*
X137872729Y-57600932D01*
X137692089Y-57565000D01*
X137507911Y-57565000D01*
X137327271Y-57600932D01*
X137157111Y-57671414D01*
X137003972Y-57773738D01*
X136873738Y-57903972D01*
X136771414Y-58057111D01*
X136700932Y-58227271D01*
X136665000Y-58407911D01*
X120660000Y-58407911D01*
X120660000Y-56367911D01*
X141845000Y-56367911D01*
X141845000Y-56552089D01*
X141880932Y-56732729D01*
X141951414Y-56902889D01*
X142053738Y-57056028D01*
X142183972Y-57186262D01*
X142337111Y-57288586D01*
X142507271Y-57359068D01*
X142687911Y-57395000D01*
X142872089Y-57395000D01*
X143052729Y-57359068D01*
X143222889Y-57288586D01*
X143376028Y-57186262D01*
X143506262Y-57056028D01*
X143538341Y-57008018D01*
X143563738Y-57046028D01*
X143693972Y-57176262D01*
X143847111Y-57278586D01*
X144017271Y-57349068D01*
X144197911Y-57385000D01*
X144382089Y-57385000D01*
X144562729Y-57349068D01*
X144732889Y-57278586D01*
X144733674Y-57278061D01*
X146855000Y-57278061D01*
X146855000Y-57481939D01*
X146894774Y-57681898D01*
X146972795Y-57870256D01*
X147086063Y-58039774D01*
X147230226Y-58183937D01*
X147399744Y-58297205D01*
X147588102Y-58375226D01*
X147788061Y-58415000D01*
X147991939Y-58415000D01*
X148191898Y-58375226D01*
X148380256Y-58297205D01*
X148442483Y-58255626D01*
X148489744Y-58287205D01*
X148678102Y-58365226D01*
X148878061Y-58405000D01*
X149081939Y-58405000D01*
X149281898Y-58365226D01*
X149470256Y-58287205D01*
X149615000Y-58190490D01*
X149615000Y-58191939D01*
X149654774Y-58391898D01*
X149732795Y-58580256D01*
X149846063Y-58749774D01*
X149866108Y-58769819D01*
X149852795Y-58789744D01*
X149774774Y-58978102D01*
X149735000Y-59178061D01*
X149735000Y-59381939D01*
X149774774Y-59581898D01*
X149852795Y-59770256D01*
X149966063Y-59939774D01*
X150110226Y-60083937D01*
X150279744Y-60197205D01*
X150468102Y-60275226D01*
X150668061Y-60315000D01*
X150871939Y-60315000D01*
X151071898Y-60275226D01*
X151260256Y-60197205D01*
X151429774Y-60083937D01*
X151573937Y-59939774D01*
X151687205Y-59770256D01*
X151765226Y-59581898D01*
X151805000Y-59381939D01*
X151805000Y-59178061D01*
X151765226Y-58978102D01*
X151687205Y-58789744D01*
X151573937Y-58620226D01*
X151553892Y-58600181D01*
X151567205Y-58580256D01*
X151645226Y-58391898D01*
X151685000Y-58191939D01*
X151685000Y-57988061D01*
X151645226Y-57788102D01*
X151567205Y-57599744D01*
X151453937Y-57430226D01*
X151309774Y-57286063D01*
X151140256Y-57172795D01*
X150951898Y-57094774D01*
X150751939Y-57055000D01*
X150548061Y-57055000D01*
X150348102Y-57094774D01*
X150159744Y-57172795D01*
X150015000Y-57269510D01*
X150015000Y-57268061D01*
X149975226Y-57068102D01*
X149897205Y-56879744D01*
X149783937Y-56710226D01*
X149639774Y-56566063D01*
X149470256Y-56452795D01*
X149281898Y-56374774D01*
X149081939Y-56335000D01*
X148878061Y-56335000D01*
X148678102Y-56374774D01*
X148489744Y-56452795D01*
X148427517Y-56494374D01*
X148380256Y-56462795D01*
X148191898Y-56384774D01*
X147991939Y-56345000D01*
X147788061Y-56345000D01*
X147588102Y-56384774D01*
X147399744Y-56462795D01*
X147230226Y-56576063D01*
X147086063Y-56720226D01*
X146972795Y-56889744D01*
X146894774Y-57078102D01*
X146855000Y-57278061D01*
X144733674Y-57278061D01*
X144886028Y-57176262D01*
X145016262Y-57046028D01*
X145118586Y-56892889D01*
X145189068Y-56722729D01*
X145225000Y-56542089D01*
X145225000Y-56357911D01*
X145189068Y-56177271D01*
X145118586Y-56007111D01*
X145016262Y-55853972D01*
X144897851Y-55735561D01*
X150637502Y-55735561D01*
X150637502Y-55939439D01*
X150677276Y-56139398D01*
X150755297Y-56327756D01*
X150868565Y-56497274D01*
X151012728Y-56641437D01*
X151182246Y-56754705D01*
X151370604Y-56832726D01*
X151570563Y-56872500D01*
X151774441Y-56872500D01*
X151974400Y-56832726D01*
X152162758Y-56754705D01*
X152332276Y-56641437D01*
X152335652Y-56638061D01*
X154135000Y-56638061D01*
X154135000Y-56841939D01*
X154174774Y-57041898D01*
X154252795Y-57230256D01*
X154366063Y-57399774D01*
X154510226Y-57543937D01*
X154679744Y-57657205D01*
X154868102Y-57735226D01*
X155068061Y-57775000D01*
X155271939Y-57775000D01*
X155471898Y-57735226D01*
X155660256Y-57657205D01*
X155829774Y-57543937D01*
X155973937Y-57399774D01*
X156087205Y-57230256D01*
X156165226Y-57041898D01*
X156205000Y-56841939D01*
X156205000Y-56638061D01*
X156165226Y-56438102D01*
X156087205Y-56249744D01*
X155973937Y-56080226D01*
X155829774Y-55936063D01*
X155660256Y-55822795D01*
X155471898Y-55744774D01*
X155271939Y-55705000D01*
X155068061Y-55705000D01*
X154868102Y-55744774D01*
X154679744Y-55822795D01*
X154510226Y-55936063D01*
X154366063Y-56080226D01*
X154252795Y-56249744D01*
X154174774Y-56438102D01*
X154135000Y-56638061D01*
X152335652Y-56638061D01*
X152476439Y-56497274D01*
X152589707Y-56327756D01*
X152667728Y-56139398D01*
X152707502Y-55939439D01*
X152707502Y-55735561D01*
X152667728Y-55535602D01*
X152589707Y-55347244D01*
X152476439Y-55177726D01*
X152332276Y-55033563D01*
X152162758Y-54920295D01*
X151974400Y-54842274D01*
X151774441Y-54802500D01*
X151570563Y-54802500D01*
X151370604Y-54842274D01*
X151182246Y-54920295D01*
X151012728Y-55033563D01*
X150868565Y-55177726D01*
X150755297Y-55347244D01*
X150677276Y-55535602D01*
X150637502Y-55735561D01*
X144897851Y-55735561D01*
X144886028Y-55723738D01*
X144732889Y-55621414D01*
X144562729Y-55550932D01*
X144382089Y-55515000D01*
X144197911Y-55515000D01*
X144017271Y-55550932D01*
X143847111Y-55621414D01*
X143693972Y-55723738D01*
X143563738Y-55853972D01*
X143531659Y-55901982D01*
X143506262Y-55863972D01*
X143376028Y-55733738D01*
X143222889Y-55631414D01*
X143052729Y-55560932D01*
X142872089Y-55525000D01*
X142687911Y-55525000D01*
X142507271Y-55560932D01*
X142337111Y-55631414D01*
X142183972Y-55733738D01*
X142053738Y-55863972D01*
X141951414Y-56017111D01*
X141880932Y-56187271D01*
X141845000Y-56367911D01*
X120660000Y-56367911D01*
X120660000Y-53547911D01*
X136665000Y-53547911D01*
X136665000Y-53732089D01*
X136700932Y-53912729D01*
X136771414Y-54082889D01*
X136873738Y-54236028D01*
X137003972Y-54366262D01*
X137157111Y-54468586D01*
X137327271Y-54539068D01*
X137507911Y-54575000D01*
X137692089Y-54575000D01*
X137872729Y-54539068D01*
X138042889Y-54468586D01*
X138196028Y-54366262D01*
X138326262Y-54236028D01*
X138428586Y-54082889D01*
X138499068Y-53912729D01*
X138535000Y-53732089D01*
X138535000Y-53547911D01*
X138499068Y-53367271D01*
X138428586Y-53197111D01*
X138326262Y-53043972D01*
X138196028Y-52913738D01*
X138042889Y-52811414D01*
X137872729Y-52740932D01*
X137692089Y-52705000D01*
X137507911Y-52705000D01*
X137327271Y-52740932D01*
X137157111Y-52811414D01*
X137003972Y-52913738D01*
X136873738Y-53043972D01*
X136771414Y-53197111D01*
X136700932Y-53367271D01*
X136665000Y-53547911D01*
X120660000Y-53547911D01*
X120660000Y-49838061D01*
X126114996Y-49838061D01*
X126114996Y-50041939D01*
X126154770Y-50241898D01*
X126232791Y-50430256D01*
X126346059Y-50599774D01*
X126490222Y-50743937D01*
X126659740Y-50857205D01*
X126848098Y-50935226D01*
X127048057Y-50975000D01*
X127251935Y-50975000D01*
X127451894Y-50935226D01*
X127640252Y-50857205D01*
X127809770Y-50743937D01*
X127953933Y-50599774D01*
X128067201Y-50430256D01*
X128145222Y-50241898D01*
X128184996Y-50041939D01*
X128184996Y-49838061D01*
X128145222Y-49638102D01*
X128067201Y-49449744D01*
X127953933Y-49280226D01*
X127809770Y-49136063D01*
X127640252Y-49022795D01*
X127451894Y-48944774D01*
X127251935Y-48905000D01*
X127048057Y-48905000D01*
X126848098Y-48944774D01*
X126659740Y-49022795D01*
X126490222Y-49136063D01*
X126346059Y-49280226D01*
X126232791Y-49449744D01*
X126154770Y-49638102D01*
X126114996Y-49838061D01*
X120660000Y-49838061D01*
X120660000Y-47770010D01*
X142701434Y-47770010D01*
X142704990Y-47806115D01*
X142704991Y-49311877D01*
X142701434Y-49347992D01*
X142715625Y-49492077D01*
X142735320Y-49557000D01*
X142757654Y-49630625D01*
X142825904Y-49758312D01*
X142917753Y-49870230D01*
X142945798Y-49893246D01*
X145036842Y-51984290D01*
X144941412Y-52127111D01*
X144870930Y-52297271D01*
X144834998Y-52477911D01*
X144834998Y-52662089D01*
X144870930Y-52842729D01*
X144941412Y-53012889D01*
X145043736Y-53166028D01*
X145173970Y-53296262D01*
X145327109Y-53398586D01*
X145497269Y-53469068D01*
X145677909Y-53505000D01*
X145862087Y-53505000D01*
X146042727Y-53469068D01*
X146212887Y-53398586D01*
X146315533Y-53330000D01*
X146972678Y-53330000D01*
X147010000Y-53333676D01*
X147047322Y-53330000D01*
X147047333Y-53330000D01*
X147158986Y-53319003D01*
X147302247Y-53275546D01*
X147434276Y-53204974D01*
X147550001Y-53110001D01*
X147573803Y-53080998D01*
X147801649Y-52853153D01*
X147922729Y-52829068D01*
X148092889Y-52758586D01*
X148232951Y-52665000D01*
X149241897Y-52665000D01*
X149278002Y-52668556D01*
X149314107Y-52665000D01*
X149422087Y-52654365D01*
X149560635Y-52612337D01*
X149688322Y-52544087D01*
X149800240Y-52452238D01*
X149823261Y-52424188D01*
X152334203Y-49913246D01*
X152362248Y-49890230D01*
X152454097Y-49778312D01*
X152522347Y-49650625D01*
X152564375Y-49512077D01*
X152575010Y-49404097D01*
X152575010Y-49404088D01*
X152578565Y-49367993D01*
X152575010Y-49331898D01*
X152575010Y-47806115D01*
X152578566Y-47770010D01*
X152564375Y-47625925D01*
X152554268Y-47592606D01*
X152522347Y-47487377D01*
X152454097Y-47359690D01*
X152362247Y-47247772D01*
X152334202Y-47224756D01*
X152115259Y-47005813D01*
X152092238Y-46977762D01*
X151980320Y-46885913D01*
X151852633Y-46817663D01*
X151714085Y-46775635D01*
X151606105Y-46765000D01*
X151570000Y-46761444D01*
X151533895Y-46765000D01*
X151178072Y-46765000D01*
X151178072Y-46653000D01*
X151267000Y-46653000D01*
X151267000Y-46673000D01*
X152016250Y-46673000D01*
X152175000Y-46514250D01*
X152178072Y-46400000D01*
X152165812Y-46275518D01*
X152129502Y-46155820D01*
X152070537Y-46045506D01*
X151991185Y-45948815D01*
X151894494Y-45869463D01*
X151784180Y-45810498D01*
X151664482Y-45774188D01*
X151540000Y-45761928D01*
X151425750Y-45765000D01*
X151325262Y-45865488D01*
X151325000Y-45855750D01*
X151267002Y-45797752D01*
X151267002Y-45765000D01*
X151234250Y-45765000D01*
X151166250Y-45697000D01*
X149767000Y-45697000D01*
X149767000Y-45717000D01*
X149513000Y-45717000D01*
X149513000Y-45697000D01*
X148113750Y-45697000D01*
X148048822Y-45761928D01*
X147940000Y-45761928D01*
X147776500Y-45778031D01*
X147640000Y-45819438D01*
X147503500Y-45778031D01*
X147340000Y-45761928D01*
X147231178Y-45761928D01*
X147166250Y-45697000D01*
X145767000Y-45697000D01*
X145767000Y-45717000D01*
X145513000Y-45717000D01*
X145513000Y-45697000D01*
X144113750Y-45697000D01*
X144045750Y-45765000D01*
X144012998Y-45765000D01*
X144012998Y-45797752D01*
X143955000Y-45855750D01*
X143954738Y-45865488D01*
X143854250Y-45765000D01*
X143740000Y-45761928D01*
X143615518Y-45774188D01*
X143495820Y-45810498D01*
X143385506Y-45869463D01*
X143288815Y-45948815D01*
X143209463Y-46045506D01*
X143150498Y-46155820D01*
X143114188Y-46275518D01*
X143101928Y-46400000D01*
X143105000Y-46514250D01*
X143263750Y-46673000D01*
X144013000Y-46673000D01*
X144013000Y-46653000D01*
X144101928Y-46653000D01*
X144101928Y-46765000D01*
X143746105Y-46765000D01*
X143710000Y-46761444D01*
X143673895Y-46765000D01*
X143565915Y-46775635D01*
X143427367Y-46817663D01*
X143299680Y-46885913D01*
X143187762Y-46977762D01*
X143164741Y-47005813D01*
X142945798Y-47224756D01*
X142917752Y-47247773D01*
X142825903Y-47359691D01*
X142757653Y-47487378D01*
X142728374Y-47583897D01*
X142715625Y-47625925D01*
X142701434Y-47770010D01*
X120660000Y-47770010D01*
X120660000Y-45170000D01*
X143951928Y-45170000D01*
X143955000Y-45284250D01*
X144113750Y-45443000D01*
X145513000Y-45443000D01*
X145513000Y-44693750D01*
X145767000Y-44693750D01*
X145767000Y-45443000D01*
X147166250Y-45443000D01*
X147325000Y-45284250D01*
X147328072Y-45170000D01*
X147951928Y-45170000D01*
X147955000Y-45284250D01*
X148113750Y-45443000D01*
X149513000Y-45443000D01*
X149513000Y-44693750D01*
X149767000Y-44693750D01*
X149767000Y-45443000D01*
X151166250Y-45443000D01*
X151325000Y-45284250D01*
X151328072Y-45170000D01*
X151315812Y-45045518D01*
X151279502Y-44925820D01*
X151220537Y-44815506D01*
X151141185Y-44718815D01*
X151044494Y-44639463D01*
X150934180Y-44580498D01*
X150814482Y-44544188D01*
X150690000Y-44531928D01*
X149925750Y-44535000D01*
X149767000Y-44693750D01*
X149513000Y-44693750D01*
X149354250Y-44535000D01*
X148590000Y-44531928D01*
X148465518Y-44544188D01*
X148345820Y-44580498D01*
X148235506Y-44639463D01*
X148138815Y-44718815D01*
X148059463Y-44815506D01*
X148000498Y-44925820D01*
X147964188Y-45045518D01*
X147951928Y-45170000D01*
X147328072Y-45170000D01*
X147315812Y-45045518D01*
X147279502Y-44925820D01*
X147220537Y-44815506D01*
X147141185Y-44718815D01*
X147044494Y-44639463D01*
X146934180Y-44580498D01*
X146814482Y-44544188D01*
X146690000Y-44531928D01*
X145925750Y-44535000D01*
X145767000Y-44693750D01*
X145513000Y-44693750D01*
X145354250Y-44535000D01*
X144590000Y-44531928D01*
X144465518Y-44544188D01*
X144345820Y-44580498D01*
X144235506Y-44639463D01*
X144138815Y-44718815D01*
X144059463Y-44815506D01*
X144000498Y-44925820D01*
X143964188Y-45045518D01*
X143951928Y-45170000D01*
X120660000Y-45170000D01*
X120660000Y-40110000D01*
X137090000Y-40110000D01*
X137090001Y-42247571D01*
%TA.AperFunction,Conductor*%
D19*
G36*
X137090001Y-42247571D02*
G01*
X137086807Y-42280000D01*
X137099550Y-42409383D01*
X137137290Y-42533793D01*
X137198575Y-42648450D01*
X137281052Y-42748948D01*
X137381550Y-42831425D01*
X137496207Y-42892710D01*
X137620617Y-42930450D01*
X137717581Y-42940000D01*
X137750000Y-42943193D01*
X137782419Y-42940000D01*
X158567581Y-42940000D01*
X158600000Y-42943193D01*
X158632419Y-42940000D01*
X158729383Y-42930450D01*
X158853793Y-42892710D01*
X158968450Y-42831425D01*
X159068948Y-42748948D01*
X159151425Y-42648450D01*
X159212710Y-42533793D01*
X159250450Y-42409383D01*
X159263193Y-42280000D01*
X159260000Y-42247581D01*
X159260000Y-40110000D01*
X172002896Y-40110000D01*
X172025315Y-40323302D01*
X172037338Y-40381871D01*
X172048551Y-40440657D01*
X172051215Y-40449479D01*
X172282063Y-41195229D01*
X172305238Y-41250359D01*
X172327652Y-41305838D01*
X172331979Y-41313974D01*
X172703282Y-42000684D01*
X172736727Y-42050268D01*
X172769487Y-42100331D01*
X172775311Y-42107472D01*
X173272924Y-42708983D01*
X173315376Y-42751140D01*
X173357223Y-42793873D01*
X173364318Y-42799741D01*
X173364324Y-42799747D01*
X173364331Y-42799751D01*
X173969294Y-43293148D01*
X174019087Y-43326230D01*
X174068476Y-43360048D01*
X174076583Y-43364430D01*
X174765867Y-43730930D01*
X174821182Y-43753729D01*
X174876154Y-43777290D01*
X174884957Y-43780015D01*
X175632302Y-44005652D01*
X175691011Y-44017277D01*
X175749494Y-44029708D01*
X175758657Y-44030671D01*
X175758659Y-44030671D01*
X175940000Y-44048452D01*
X175940000Y-59336289D01*
X175909774Y-59306063D01*
X175740256Y-59192795D01*
X175551898Y-59114774D01*
X175351939Y-59075000D01*
X175148061Y-59075000D01*
X174948102Y-59114774D01*
X174759744Y-59192795D01*
X174590226Y-59306063D01*
X174446063Y-59450226D01*
X174332795Y-59619744D01*
X174254774Y-59808102D01*
X174215000Y-60008061D01*
X174215000Y-60211939D01*
X174254774Y-60411898D01*
X174332795Y-60600256D01*
X174429510Y-60745000D01*
X174332795Y-60889744D01*
X174254774Y-61078102D01*
X174215000Y-61278061D01*
X174215000Y-61481939D01*
X174254774Y-61681898D01*
X174332795Y-61870256D01*
X174420815Y-62001988D01*
X174323384Y-62147804D01*
X174245363Y-62336162D01*
X174205589Y-62536121D01*
X174205589Y-62739999D01*
X174245363Y-62939958D01*
X174323384Y-63128316D01*
X174434575Y-63294726D01*
X174342795Y-63432085D01*
X174264774Y-63620443D01*
X174225000Y-63820402D01*
X174225000Y-64024280D01*
X174264774Y-64224239D01*
X174342795Y-64412597D01*
X174433726Y-64548686D01*
X174332793Y-64699744D01*
X174254772Y-64888102D01*
X174214998Y-65088061D01*
X174214998Y-65291939D01*
X174254772Y-65491898D01*
X174332793Y-65680256D01*
X174426168Y-65820001D01*
X174332795Y-65959744D01*
X174254774Y-66148102D01*
X174215000Y-66348061D01*
X174215000Y-66551939D01*
X174254774Y-66751898D01*
X174332795Y-66940256D01*
X174422850Y-67075034D01*
X174312795Y-67239744D01*
X174234774Y-67428102D01*
X174195000Y-67628061D01*
X174195000Y-67831939D01*
X174234774Y-68031898D01*
X174312795Y-68220256D01*
X174426063Y-68389774D01*
X174570226Y-68533937D01*
X174739744Y-68647205D01*
X174928102Y-68725226D01*
X175128061Y-68765000D01*
X175331939Y-68765000D01*
X175531898Y-68725226D01*
X175720256Y-68647205D01*
X175889774Y-68533937D01*
X175940001Y-68483710D01*
X175940001Y-75952896D01*
X175726699Y-75975315D01*
X175668106Y-75987342D01*
X175609342Y-75998552D01*
X175600520Y-76001215D01*
X174854771Y-76232063D01*
X174799608Y-76255251D01*
X174744162Y-76277653D01*
X174736026Y-76281979D01*
X174049316Y-76653282D01*
X173999741Y-76686721D01*
X173949670Y-76719486D01*
X173942529Y-76725311D01*
X173341017Y-77222924D01*
X173298858Y-77265379D01*
X173256127Y-77307224D01*
X173250253Y-77314324D01*
X172756852Y-77919295D01*
X172723764Y-77969096D01*
X172689953Y-78018476D01*
X172685570Y-78026582D01*
X172319071Y-78715867D01*
X172296280Y-78771161D01*
X172272710Y-78826154D01*
X172269985Y-78834957D01*
X172044348Y-79582302D01*
X172032725Y-79641005D01*
X172020292Y-79699494D01*
X172019329Y-79708658D01*
X172001548Y-79890000D01*
X159260000Y-79890000D01*
X159260000Y-77752419D01*
X159263193Y-77720000D01*
X159250450Y-77590617D01*
X159212710Y-77466207D01*
X159151425Y-77351550D01*
X159068948Y-77251052D01*
X158968450Y-77168575D01*
X158853793Y-77107290D01*
X158729383Y-77069550D01*
X158632419Y-77060000D01*
X158600000Y-77056807D01*
X158567581Y-77060000D01*
X137782419Y-77060000D01*
X137750000Y-77056807D01*
X137717581Y-77060000D01*
X137620617Y-77069550D01*
X137496207Y-77107290D01*
X137381550Y-77168575D01*
X137281052Y-77251052D01*
X137198575Y-77351550D01*
X137137290Y-77466207D01*
X137099550Y-77590617D01*
X137086807Y-77720000D01*
X137090001Y-77752429D01*
X137090000Y-79890000D01*
X120660000Y-79890000D01*
X120660000Y-75220000D01*
X121051928Y-75220000D01*
X121051928Y-76920000D01*
X121064188Y-77044482D01*
X121100498Y-77164180D01*
X121159463Y-77274494D01*
X121238815Y-77371185D01*
X121335506Y-77450537D01*
X121445820Y-77509502D01*
X121565518Y-77545812D01*
X121690000Y-77558072D01*
X123390000Y-77558072D01*
X123514482Y-77545812D01*
X123634180Y-77509502D01*
X123744494Y-77450537D01*
X123841185Y-77371185D01*
X123920537Y-77274494D01*
X123979502Y-77164180D01*
X124001513Y-77091620D01*
X124133368Y-77223475D01*
X124376589Y-77385990D01*
X124646842Y-77497932D01*
X124933740Y-77555000D01*
X125226260Y-77555000D01*
X125513158Y-77497932D01*
X125783411Y-77385990D01*
X126026632Y-77223475D01*
X126233475Y-77016632D01*
X126350000Y-76842240D01*
X126466525Y-77016632D01*
X126673368Y-77223475D01*
X126916589Y-77385990D01*
X127186842Y-77497932D01*
X127473740Y-77555000D01*
X127766260Y-77555000D01*
X128053158Y-77497932D01*
X128323411Y-77385990D01*
X128566632Y-77223475D01*
X128773475Y-77016632D01*
X128895195Y-76834466D01*
X128964822Y-76951355D01*
X129159731Y-77167588D01*
X129393080Y-77341641D01*
X129655901Y-77466825D01*
X129803110Y-77511476D01*
X130033000Y-77390155D01*
X130033000Y-76197000D01*
X130013000Y-76197000D01*
X130013000Y-75943000D01*
X130033000Y-75943000D01*
X130033000Y-74749845D01*
X130287000Y-74749845D01*
X130287000Y-75943000D01*
X130307000Y-75943000D01*
X130307000Y-76197000D01*
X130287000Y-76197000D01*
X130287000Y-77390155D01*
X130516890Y-77511476D01*
X130664099Y-77466825D01*
X130926920Y-77341641D01*
X131160269Y-77167588D01*
X131355178Y-76951355D01*
X131424805Y-76834466D01*
X131546525Y-77016632D01*
X131753368Y-77223475D01*
X131996589Y-77385990D01*
X132266842Y-77497932D01*
X132553740Y-77555000D01*
X132846260Y-77555000D01*
X133133158Y-77497932D01*
X133403411Y-77385990D01*
X133646632Y-77223475D01*
X133853475Y-77016632D01*
X134015990Y-76773411D01*
X134127932Y-76503158D01*
X134185000Y-76216260D01*
X134185000Y-75923740D01*
X134127932Y-75636842D01*
X134015990Y-75366589D01*
X133853475Y-75123368D01*
X133678923Y-74948816D01*
X137385000Y-74948816D01*
X137385000Y-75251184D01*
X137443989Y-75547743D01*
X137559701Y-75827095D01*
X137727688Y-76078505D01*
X137941495Y-76292312D01*
X138192905Y-76460299D01*
X138472257Y-76576011D01*
X138768816Y-76635000D01*
X139071184Y-76635000D01*
X139367743Y-76576011D01*
X139647095Y-76460299D01*
X139898505Y-76292312D01*
X140112312Y-76078505D01*
X140190000Y-75962237D01*
X140267688Y-76078505D01*
X140481495Y-76292312D01*
X140732905Y-76460299D01*
X141012257Y-76576011D01*
X141308816Y-76635000D01*
X141611184Y-76635000D01*
X141907743Y-76576011D01*
X142187095Y-76460299D01*
X142438505Y-76292312D01*
X142504944Y-76225873D01*
X142510498Y-76244180D01*
X142569463Y-76354494D01*
X142648815Y-76451185D01*
X142745506Y-76530537D01*
X142855820Y-76589502D01*
X142975518Y-76625812D01*
X143100000Y-76638072D01*
X144900000Y-76638072D01*
X145024482Y-76625812D01*
X145144180Y-76589502D01*
X145254494Y-76530537D01*
X145351185Y-76451185D01*
X145430537Y-76354494D01*
X145489502Y-76244180D01*
X145525812Y-76124482D01*
X145538072Y-76000000D01*
X145538072Y-74948816D01*
X150845000Y-74948816D01*
X150845000Y-75251184D01*
X150903989Y-75547743D01*
X151019701Y-75827095D01*
X151187688Y-76078505D01*
X151401495Y-76292312D01*
X151652905Y-76460299D01*
X151932257Y-76576011D01*
X152228816Y-76635000D01*
X152531184Y-76635000D01*
X152827743Y-76576011D01*
X153107095Y-76460299D01*
X153358505Y-76292312D01*
X153572312Y-76078505D01*
X153650000Y-75962237D01*
X153727688Y-76078505D01*
X153941495Y-76292312D01*
X154192905Y-76460299D01*
X154472257Y-76576011D01*
X154768816Y-76635000D01*
X155071184Y-76635000D01*
X155367743Y-76576011D01*
X155647095Y-76460299D01*
X155898505Y-76292312D01*
X155964944Y-76225873D01*
X155970498Y-76244180D01*
X156029463Y-76354494D01*
X156108815Y-76451185D01*
X156205506Y-76530537D01*
X156315820Y-76589502D01*
X156435518Y-76625812D01*
X156560000Y-76638072D01*
X158360000Y-76638072D01*
X158484482Y-76625812D01*
X158604180Y-76589502D01*
X158714494Y-76530537D01*
X158811185Y-76451185D01*
X158890537Y-76354494D01*
X158949502Y-76244180D01*
X158985812Y-76124482D01*
X158998072Y-76000000D01*
X158998072Y-74200000D01*
X158985812Y-74075518D01*
X158949502Y-73955820D01*
X158890537Y-73845506D01*
X158811185Y-73748815D01*
X158714494Y-73669463D01*
X158604180Y-73610498D01*
X158484482Y-73574188D01*
X158360000Y-73561928D01*
X156560000Y-73561928D01*
X156435518Y-73574188D01*
X156315820Y-73610498D01*
X156205506Y-73669463D01*
X156108815Y-73748815D01*
X156029463Y-73845506D01*
X155970498Y-73955820D01*
X155964944Y-73974127D01*
X155898505Y-73907688D01*
X155647095Y-73739701D01*
X155367743Y-73623989D01*
X155071184Y-73565000D01*
X154768816Y-73565000D01*
X154472257Y-73623989D01*
X154192905Y-73739701D01*
X153941495Y-73907688D01*
X153727688Y-74121495D01*
X153650000Y-74237763D01*
X153572312Y-74121495D01*
X153358505Y-73907688D01*
X153107095Y-73739701D01*
X152827743Y-73623989D01*
X152531184Y-73565000D01*
X152228816Y-73565000D01*
X151932257Y-73623989D01*
X151652905Y-73739701D01*
X151401495Y-73907688D01*
X151187688Y-74121495D01*
X151019701Y-74372905D01*
X150903989Y-74652257D01*
X150845000Y-74948816D01*
X145538072Y-74948816D01*
X145538072Y-74200000D01*
X145525812Y-74075518D01*
X145489502Y-73955820D01*
X145430537Y-73845506D01*
X145351185Y-73748815D01*
X145254494Y-73669463D01*
X145144180Y-73610498D01*
X145024482Y-73574188D01*
X144900000Y-73561928D01*
X143100000Y-73561928D01*
X142975518Y-73574188D01*
X142855820Y-73610498D01*
X142745506Y-73669463D01*
X142648815Y-73748815D01*
X142569463Y-73845506D01*
X142510498Y-73955820D01*
X142504944Y-73974127D01*
X142438505Y-73907688D01*
X142187095Y-73739701D01*
X141907743Y-73623989D01*
X141611184Y-73565000D01*
X141308816Y-73565000D01*
X141012257Y-73623989D01*
X140732905Y-73739701D01*
X140481495Y-73907688D01*
X140267688Y-74121495D01*
X140190000Y-74237763D01*
X140112312Y-74121495D01*
X139898505Y-73907688D01*
X139647095Y-73739701D01*
X139367743Y-73623989D01*
X139071184Y-73565000D01*
X138768816Y-73565000D01*
X138472257Y-73623989D01*
X138192905Y-73739701D01*
X137941495Y-73907688D01*
X137727688Y-74121495D01*
X137559701Y-74372905D01*
X137443989Y-74652257D01*
X137385000Y-74948816D01*
X133678923Y-74948816D01*
X133646632Y-74916525D01*
X133403411Y-74754010D01*
X133133158Y-74642068D01*
X132846260Y-74585000D01*
X132553740Y-74585000D01*
X132266842Y-74642068D01*
X131996589Y-74754010D01*
X131753368Y-74916525D01*
X131546525Y-75123368D01*
X131424805Y-75305534D01*
X131355178Y-75188645D01*
X131160269Y-74972412D01*
X130926920Y-74798359D01*
X130664099Y-74673175D01*
X130516890Y-74628524D01*
X130287000Y-74749845D01*
X130033000Y-74749845D01*
X129803110Y-74628524D01*
X129655901Y-74673175D01*
X129393080Y-74798359D01*
X129159731Y-74972412D01*
X128964822Y-75188645D01*
X128895195Y-75305534D01*
X128773475Y-75123368D01*
X128566632Y-74916525D01*
X128323411Y-74754010D01*
X128053158Y-74642068D01*
X127766260Y-74585000D01*
X127473740Y-74585000D01*
X127186842Y-74642068D01*
X126916589Y-74754010D01*
X126673368Y-74916525D01*
X126466525Y-75123368D01*
X126350000Y-75297760D01*
X126233475Y-75123368D01*
X126026632Y-74916525D01*
X125783411Y-74754010D01*
X125513158Y-74642068D01*
X125226260Y-74585000D01*
X124933740Y-74585000D01*
X124646842Y-74642068D01*
X124376589Y-74754010D01*
X124133368Y-74916525D01*
X124001513Y-75048380D01*
X123979502Y-74975820D01*
X123920537Y-74865506D01*
X123841185Y-74768815D01*
X123744494Y-74689463D01*
X123634180Y-74630498D01*
X123514482Y-74594188D01*
X123390000Y-74581928D01*
X121690000Y-74581928D01*
X121565518Y-74594188D01*
X121445820Y-74630498D01*
X121335506Y-74689463D01*
X121238815Y-74768815D01*
X121159463Y-74865506D01*
X121100498Y-74975820D01*
X121064188Y-75095518D01*
X121051928Y-75220000D01*
X120660000Y-75220000D01*
X120660000Y-69257911D01*
X136665000Y-69257911D01*
X136665000Y-69442089D01*
X136700932Y-69622729D01*
X136771414Y-69792889D01*
X136873738Y-69946028D01*
X137003972Y-70076262D01*
X137157111Y-70178586D01*
X137327271Y-70249068D01*
X137507911Y-70285000D01*
X137692089Y-70285000D01*
X137872729Y-70249068D01*
X138042889Y-70178586D01*
X138196028Y-70076262D01*
X138326262Y-69946028D01*
X138428586Y-69792889D01*
X138499068Y-69622729D01*
X138535000Y-69442089D01*
X138535000Y-69257911D01*
X138499068Y-69077271D01*
X138428586Y-68907111D01*
X138326262Y-68753972D01*
X138300351Y-68728061D01*
X146305000Y-68728061D01*
X146305000Y-68931939D01*
X146344774Y-69131898D01*
X146422795Y-69320256D01*
X146536063Y-69489774D01*
X146611289Y-69565000D01*
X146536063Y-69640226D01*
X146422795Y-69809744D01*
X146344774Y-69998102D01*
X146305000Y-70198061D01*
X146305000Y-70401939D01*
X146344774Y-70601898D01*
X146422795Y-70790256D01*
X146536063Y-70959774D01*
X146680226Y-71103937D01*
X146849744Y-71217205D01*
X147038102Y-71295226D01*
X147238061Y-71335000D01*
X147441939Y-71335000D01*
X147641898Y-71295226D01*
X147830256Y-71217205D01*
X147999774Y-71103937D01*
X148143937Y-70959774D01*
X148257205Y-70790256D01*
X148335226Y-70601898D01*
X148375000Y-70401939D01*
X148375000Y-70198061D01*
X148335226Y-69998102D01*
X148257205Y-69809744D01*
X148143937Y-69640226D01*
X148068711Y-69565000D01*
X148143937Y-69489774D01*
X148257205Y-69320256D01*
X148335226Y-69131898D01*
X148375000Y-68931939D01*
X148375000Y-68728061D01*
X148335226Y-68528102D01*
X148257205Y-68339744D01*
X148143937Y-68170226D01*
X147999774Y-68026063D01*
X147830256Y-67912795D01*
X147641898Y-67834774D01*
X147441939Y-67795000D01*
X147238061Y-67795000D01*
X147038102Y-67834774D01*
X146849744Y-67912795D01*
X146680226Y-68026063D01*
X146536063Y-68170226D01*
X146422795Y-68339744D01*
X146344774Y-68528102D01*
X146305000Y-68728061D01*
X138300351Y-68728061D01*
X138196028Y-68623738D01*
X138042889Y-68521414D01*
X137872729Y-68450932D01*
X137692089Y-68415000D01*
X137507911Y-68415000D01*
X137327271Y-68450932D01*
X137157111Y-68521414D01*
X137003972Y-68623738D01*
X136873738Y-68753972D01*
X136771414Y-68907111D01*
X136700932Y-69077271D01*
X136665000Y-69257911D01*
X120660000Y-69257911D01*
X120660000Y-66257911D01*
X136665000Y-66257911D01*
X136665000Y-66442089D01*
X136700932Y-66622729D01*
X136771414Y-66792889D01*
X136809574Y-66850000D01*
X136771414Y-66907111D01*
X136700932Y-67077271D01*
X136665000Y-67257911D01*
X136665000Y-67442089D01*
X136700932Y-67622729D01*
X136771414Y-67792889D01*
X136873738Y-67946028D01*
X137003972Y-68076262D01*
X137157111Y-68178586D01*
X137327271Y-68249068D01*
X137507911Y-68285000D01*
X137692089Y-68285000D01*
X137872729Y-68249068D01*
X138042889Y-68178586D01*
X138196028Y-68076262D01*
X138326262Y-67946028D01*
X138428586Y-67792889D01*
X138499068Y-67622729D01*
X138535000Y-67442089D01*
X138535000Y-67257911D01*
X138499068Y-67077271D01*
X138428586Y-66907111D01*
X138390426Y-66850000D01*
X138428586Y-66792889D01*
X138499068Y-66622729D01*
X138535000Y-66442089D01*
X138535000Y-66257911D01*
X138529033Y-66227911D01*
X142785000Y-66227911D01*
X142785000Y-66412089D01*
X142820932Y-66592729D01*
X142891414Y-66762889D01*
X142993738Y-66916028D01*
X143123972Y-67046262D01*
X143277111Y-67148586D01*
X143447271Y-67219068D01*
X143627911Y-67255000D01*
X143812089Y-67255000D01*
X143992729Y-67219068D01*
X144162889Y-67148586D01*
X144316028Y-67046262D01*
X144446262Y-66916028D01*
X144548586Y-66762889D01*
X144619068Y-66592729D01*
X144655000Y-66412089D01*
X144655000Y-66227911D01*
X144619068Y-66047271D01*
X144548586Y-65877111D01*
X144482404Y-65778061D01*
X149955000Y-65778061D01*
X149955000Y-65981939D01*
X149994774Y-66181898D01*
X150072795Y-66370256D01*
X150186063Y-66539774D01*
X150266289Y-66620000D01*
X150196063Y-66690226D01*
X150082795Y-66859744D01*
X150004774Y-67048102D01*
X149965000Y-67248061D01*
X149965000Y-67451939D01*
X150004774Y-67651898D01*
X150082795Y-67840256D01*
X150196063Y-68009774D01*
X150340226Y-68153937D01*
X150509744Y-68267205D01*
X150698102Y-68345226D01*
X150898061Y-68385000D01*
X151101939Y-68385000D01*
X151301898Y-68345226D01*
X151490256Y-68267205D01*
X151659774Y-68153937D01*
X151803937Y-68009774D01*
X151917205Y-67840256D01*
X151995226Y-67651898D01*
X152035000Y-67451939D01*
X152035000Y-67248061D01*
X151995226Y-67048102D01*
X151917205Y-66859744D01*
X151803937Y-66690226D01*
X151723711Y-66610000D01*
X151793937Y-66539774D01*
X151907205Y-66370256D01*
X151985226Y-66181898D01*
X152011847Y-66048061D01*
X155095000Y-66048061D01*
X155095000Y-66251939D01*
X155134774Y-66451898D01*
X155212795Y-66640256D01*
X155326063Y-66809774D01*
X155470226Y-66953937D01*
X155639744Y-67067205D01*
X155828102Y-67145226D01*
X156028061Y-67185000D01*
X156231939Y-67185000D01*
X156431898Y-67145226D01*
X156620256Y-67067205D01*
X156789774Y-66953937D01*
X156933937Y-66809774D01*
X157047205Y-66640256D01*
X157125226Y-66451898D01*
X157165000Y-66251939D01*
X157165000Y-66048061D01*
X157134012Y-65892273D01*
X157246794Y-65816915D01*
X157284854Y-65778855D01*
X157312283Y-65790216D01*
X157512242Y-65829990D01*
X157716120Y-65829990D01*
X157916079Y-65790216D01*
X158104437Y-65712195D01*
X158273955Y-65598927D01*
X158418118Y-65454764D01*
X158474811Y-65369916D01*
X158525402Y-65379979D01*
X158729280Y-65379979D01*
X158929239Y-65340205D01*
X159117597Y-65262184D01*
X159287115Y-65148916D01*
X159431278Y-65004753D01*
X159544546Y-64835235D01*
X159622567Y-64646877D01*
X159662341Y-64446918D01*
X159662341Y-64243040D01*
X159622567Y-64043081D01*
X159544546Y-63854723D01*
X159431278Y-63685205D01*
X159287115Y-63541042D01*
X159117597Y-63427774D01*
X158929239Y-63349753D01*
X158729280Y-63309979D01*
X158525402Y-63309979D01*
X158325443Y-63349753D01*
X158137085Y-63427774D01*
X157967567Y-63541042D01*
X157823404Y-63685205D01*
X157766711Y-63770053D01*
X157716120Y-63759990D01*
X157512242Y-63759990D01*
X157312283Y-63799764D01*
X157123925Y-63877785D01*
X156954407Y-63991053D01*
X156916347Y-64029113D01*
X156888918Y-64017752D01*
X156688959Y-63977978D01*
X156485081Y-63977978D01*
X156285122Y-64017752D01*
X156096764Y-64095773D01*
X155927246Y-64209041D01*
X155783083Y-64353204D01*
X155669815Y-64522722D01*
X155591794Y-64711080D01*
X155552020Y-64911039D01*
X155552020Y-65114917D01*
X155583008Y-65270705D01*
X155470226Y-65346063D01*
X155326063Y-65490226D01*
X155212795Y-65659744D01*
X155134774Y-65848102D01*
X155095000Y-66048061D01*
X152011847Y-66048061D01*
X152025000Y-65981939D01*
X152025000Y-65778061D01*
X151985226Y-65578102D01*
X151907205Y-65389744D01*
X151793937Y-65220226D01*
X151649774Y-65076063D01*
X151480256Y-64962795D01*
X151291898Y-64884774D01*
X151091939Y-64845000D01*
X150888061Y-64845000D01*
X150688102Y-64884774D01*
X150499744Y-64962795D01*
X150330226Y-65076063D01*
X150186063Y-65220226D01*
X150072795Y-65389744D01*
X149994774Y-65578102D01*
X149955000Y-65778061D01*
X144482404Y-65778061D01*
X144446262Y-65723972D01*
X144316028Y-65593738D01*
X144162889Y-65491414D01*
X143992729Y-65420932D01*
X143812089Y-65385000D01*
X143627911Y-65385000D01*
X143447271Y-65420932D01*
X143277111Y-65491414D01*
X143123972Y-65593738D01*
X142993738Y-65723972D01*
X142891414Y-65877111D01*
X142820932Y-66047271D01*
X142785000Y-66227911D01*
X138529033Y-66227911D01*
X138499068Y-66077271D01*
X138428586Y-65907111D01*
X138326262Y-65753972D01*
X138196028Y-65623738D01*
X138042889Y-65521414D01*
X137872729Y-65450932D01*
X137692089Y-65415000D01*
X137507911Y-65415000D01*
X137327271Y-65450932D01*
X137157111Y-65521414D01*
X137003972Y-65623738D01*
X136873738Y-65753972D01*
X136771414Y-65907111D01*
X136700932Y-66077271D01*
X136665000Y-66257911D01*
X120660000Y-66257911D01*
X120660000Y-62817911D01*
X147495000Y-62817911D01*
X147495000Y-63002089D01*
X147530932Y-63182729D01*
X147601414Y-63352889D01*
X147703738Y-63506028D01*
X147833972Y-63636262D01*
X147987111Y-63738586D01*
X148157271Y-63809068D01*
X148337911Y-63845000D01*
X148522089Y-63845000D01*
X148702729Y-63809068D01*
X148872889Y-63738586D01*
X148930000Y-63700426D01*
X148987111Y-63738586D01*
X149157271Y-63809068D01*
X149337911Y-63845000D01*
X149522089Y-63845000D01*
X149702729Y-63809068D01*
X149872889Y-63738586D01*
X150026028Y-63636262D01*
X150156262Y-63506028D01*
X150258586Y-63352889D01*
X150329068Y-63182729D01*
X150365000Y-63002089D01*
X150365000Y-62817911D01*
X150329068Y-62637271D01*
X150258586Y-62467111D01*
X150156262Y-62313972D01*
X150026028Y-62183738D01*
X149872889Y-62081414D01*
X149702729Y-62010932D01*
X149522089Y-61975000D01*
X149337911Y-61975000D01*
X149157271Y-62010932D01*
X148987111Y-62081414D01*
X148930000Y-62119574D01*
X148872889Y-62081414D01*
X148702729Y-62010932D01*
X148522089Y-61975000D01*
X148337911Y-61975000D01*
X148157271Y-62010932D01*
X147987111Y-62081414D01*
X147833972Y-62183738D01*
X147703738Y-62313972D01*
X147601414Y-62467111D01*
X147530932Y-62637271D01*
X147495000Y-62817911D01*
X120660000Y-62817911D01*
X120660000Y-61397911D01*
X136665000Y-61397911D01*
X136665000Y-61582089D01*
X136700932Y-61762729D01*
X136771414Y-61932889D01*
X136873738Y-62086028D01*
X137003972Y-62216262D01*
X137157111Y-62318586D01*
X137327271Y-62389068D01*
X137507911Y-62425000D01*
X137692089Y-62425000D01*
X137872729Y-62389068D01*
X138042889Y-62318586D01*
X138196028Y-62216262D01*
X138326262Y-62086028D01*
X138428586Y-61932889D01*
X138499068Y-61762729D01*
X138535000Y-61582089D01*
X138535000Y-61397911D01*
X138524249Y-61343862D01*
X154609231Y-61343862D01*
X154609231Y-61547740D01*
X154649005Y-61747699D01*
X154727026Y-61936057D01*
X154840294Y-62105575D01*
X154984457Y-62249738D01*
X155153975Y-62363006D01*
X155342333Y-62441027D01*
X155542292Y-62480801D01*
X155746170Y-62480801D01*
X155946129Y-62441027D01*
X156124852Y-62366997D01*
X156155095Y-62387205D01*
X156343453Y-62465226D01*
X156349598Y-62466448D01*
X156335361Y-62538023D01*
X156335361Y-62741901D01*
X156375135Y-62941860D01*
X156453156Y-63130218D01*
X156566424Y-63299736D01*
X156710587Y-63443899D01*
X156880105Y-63557167D01*
X157068463Y-63635188D01*
X157268422Y-63674962D01*
X157472300Y-63674962D01*
X157672259Y-63635188D01*
X157860617Y-63557167D01*
X158030135Y-63443899D01*
X158174298Y-63299736D01*
X158287566Y-63130218D01*
X158365587Y-62941860D01*
X158405361Y-62741901D01*
X158405361Y-62538023D01*
X158365587Y-62338064D01*
X158287566Y-62149706D01*
X158174298Y-61980188D01*
X158030135Y-61836025D01*
X157860617Y-61722757D01*
X157672259Y-61644736D01*
X157666114Y-61643514D01*
X157680351Y-61571939D01*
X157680351Y-61368061D01*
X157640577Y-61168102D01*
X157562556Y-60979744D01*
X157449288Y-60810226D01*
X157305125Y-60666063D01*
X157135607Y-60552795D01*
X156947249Y-60474774D01*
X156747290Y-60435000D01*
X156543412Y-60435000D01*
X156343453Y-60474774D01*
X156164730Y-60548804D01*
X156134487Y-60528596D01*
X155946129Y-60450575D01*
X155746170Y-60410801D01*
X155542292Y-60410801D01*
X155342333Y-60450575D01*
X155153975Y-60528596D01*
X154984457Y-60641864D01*
X154840294Y-60786027D01*
X154727026Y-60955545D01*
X154649005Y-61143903D01*
X154609231Y-61343862D01*
X138524249Y-61343862D01*
X138499068Y-61217271D01*
X138428586Y-61047111D01*
X138326262Y-60893972D01*
X138196028Y-60763738D01*
X138042889Y-60661414D01*
X137872729Y-60590932D01*
X137692089Y-60555000D01*
X137507911Y-60555000D01*
X137327271Y-60590932D01*
X137157111Y-60661414D01*
X137003972Y-60763738D01*
X136873738Y-60893972D01*
X136771414Y-61047111D01*
X136700932Y-61217271D01*
X136665000Y-61397911D01*
X120660000Y-61397911D01*
X120660000Y-58407911D01*
X136665000Y-58407911D01*
X136665000Y-58592089D01*
X136700932Y-58772729D01*
X136771414Y-58942889D01*
X136809574Y-59000000D01*
X136771414Y-59057111D01*
X136700932Y-59227271D01*
X136665000Y-59407911D01*
X136665000Y-59592089D01*
X136700932Y-59772729D01*
X136771414Y-59942889D01*
X136873738Y-60096028D01*
X137003972Y-60226262D01*
X137157111Y-60328586D01*
X137327271Y-60399068D01*
X137507911Y-60435000D01*
X137692089Y-60435000D01*
X137872729Y-60399068D01*
X138042889Y-60328586D01*
X138196028Y-60226262D01*
X138326262Y-60096028D01*
X138428586Y-59942889D01*
X138499068Y-59772729D01*
X138535000Y-59592089D01*
X138535000Y-59407911D01*
X138499068Y-59227271D01*
X138428586Y-59057111D01*
X138390426Y-59000000D01*
X138428586Y-58942889D01*
X138499068Y-58772729D01*
X138535000Y-58592089D01*
X138535000Y-58407911D01*
X138499068Y-58227271D01*
X138428586Y-58057111D01*
X138326262Y-57903972D01*
X138196028Y-57773738D01*
X138042889Y-57671414D01*
X137872729Y-57600932D01*
X137692089Y-57565000D01*
X137507911Y-57565000D01*
X137327271Y-57600932D01*
X137157111Y-57671414D01*
X137003972Y-57773738D01*
X136873738Y-57903972D01*
X136771414Y-58057111D01*
X136700932Y-58227271D01*
X136665000Y-58407911D01*
X120660000Y-58407911D01*
X120660000Y-56367911D01*
X141845000Y-56367911D01*
X141845000Y-56552089D01*
X141880932Y-56732729D01*
X141951414Y-56902889D01*
X142053738Y-57056028D01*
X142183972Y-57186262D01*
X142337111Y-57288586D01*
X142507271Y-57359068D01*
X142687911Y-57395000D01*
X142872089Y-57395000D01*
X143052729Y-57359068D01*
X143222889Y-57288586D01*
X143376028Y-57186262D01*
X143506262Y-57056028D01*
X143538341Y-57008018D01*
X143563738Y-57046028D01*
X143693972Y-57176262D01*
X143847111Y-57278586D01*
X144017271Y-57349068D01*
X144197911Y-57385000D01*
X144382089Y-57385000D01*
X144562729Y-57349068D01*
X144732889Y-57278586D01*
X144733674Y-57278061D01*
X146855000Y-57278061D01*
X146855000Y-57481939D01*
X146894774Y-57681898D01*
X146972795Y-57870256D01*
X147086063Y-58039774D01*
X147230226Y-58183937D01*
X147399744Y-58297205D01*
X147588102Y-58375226D01*
X147788061Y-58415000D01*
X147991939Y-58415000D01*
X148191898Y-58375226D01*
X148380256Y-58297205D01*
X148442483Y-58255626D01*
X148489744Y-58287205D01*
X148678102Y-58365226D01*
X148878061Y-58405000D01*
X149081939Y-58405000D01*
X149281898Y-58365226D01*
X149470256Y-58287205D01*
X149615000Y-58190490D01*
X149615000Y-58191939D01*
X149654774Y-58391898D01*
X149732795Y-58580256D01*
X149846063Y-58749774D01*
X149866108Y-58769819D01*
X149852795Y-58789744D01*
X149774774Y-58978102D01*
X149735000Y-59178061D01*
X149735000Y-59381939D01*
X149774774Y-59581898D01*
X149852795Y-59770256D01*
X149966063Y-59939774D01*
X150110226Y-60083937D01*
X150279744Y-60197205D01*
X150468102Y-60275226D01*
X150668061Y-60315000D01*
X150871939Y-60315000D01*
X151071898Y-60275226D01*
X151260256Y-60197205D01*
X151429774Y-60083937D01*
X151573937Y-59939774D01*
X151687205Y-59770256D01*
X151765226Y-59581898D01*
X151805000Y-59381939D01*
X151805000Y-59178061D01*
X151765226Y-58978102D01*
X151687205Y-58789744D01*
X151573937Y-58620226D01*
X151553892Y-58600181D01*
X151567205Y-58580256D01*
X151645226Y-58391898D01*
X151685000Y-58191939D01*
X151685000Y-57988061D01*
X151645226Y-57788102D01*
X151567205Y-57599744D01*
X151453937Y-57430226D01*
X151309774Y-57286063D01*
X151140256Y-57172795D01*
X150951898Y-57094774D01*
X150751939Y-57055000D01*
X150548061Y-57055000D01*
X150348102Y-57094774D01*
X150159744Y-57172795D01*
X150015000Y-57269510D01*
X150015000Y-57268061D01*
X149975226Y-57068102D01*
X149897205Y-56879744D01*
X149783937Y-56710226D01*
X149639774Y-56566063D01*
X149470256Y-56452795D01*
X149281898Y-56374774D01*
X149081939Y-56335000D01*
X148878061Y-56335000D01*
X148678102Y-56374774D01*
X148489744Y-56452795D01*
X148427517Y-56494374D01*
X148380256Y-56462795D01*
X148191898Y-56384774D01*
X147991939Y-56345000D01*
X147788061Y-56345000D01*
X147588102Y-56384774D01*
X147399744Y-56462795D01*
X147230226Y-56576063D01*
X147086063Y-56720226D01*
X146972795Y-56889744D01*
X146894774Y-57078102D01*
X146855000Y-57278061D01*
X144733674Y-57278061D01*
X144886028Y-57176262D01*
X145016262Y-57046028D01*
X145118586Y-56892889D01*
X145189068Y-56722729D01*
X145225000Y-56542089D01*
X145225000Y-56357911D01*
X145189068Y-56177271D01*
X145118586Y-56007111D01*
X145016262Y-55853972D01*
X144897851Y-55735561D01*
X150637502Y-55735561D01*
X150637502Y-55939439D01*
X150677276Y-56139398D01*
X150755297Y-56327756D01*
X150868565Y-56497274D01*
X151012728Y-56641437D01*
X151182246Y-56754705D01*
X151370604Y-56832726D01*
X151570563Y-56872500D01*
X151774441Y-56872500D01*
X151974400Y-56832726D01*
X152162758Y-56754705D01*
X152332276Y-56641437D01*
X152335652Y-56638061D01*
X154135000Y-56638061D01*
X154135000Y-56841939D01*
X154174774Y-57041898D01*
X154252795Y-57230256D01*
X154366063Y-57399774D01*
X154510226Y-57543937D01*
X154679744Y-57657205D01*
X154868102Y-57735226D01*
X155068061Y-57775000D01*
X155271939Y-57775000D01*
X155471898Y-57735226D01*
X155660256Y-57657205D01*
X155829774Y-57543937D01*
X155973937Y-57399774D01*
X156087205Y-57230256D01*
X156165226Y-57041898D01*
X156205000Y-56841939D01*
X156205000Y-56638061D01*
X156165226Y-56438102D01*
X156087205Y-56249744D01*
X155973937Y-56080226D01*
X155829774Y-55936063D01*
X155660256Y-55822795D01*
X155471898Y-55744774D01*
X155271939Y-55705000D01*
X155068061Y-55705000D01*
X154868102Y-55744774D01*
X154679744Y-55822795D01*
X154510226Y-55936063D01*
X154366063Y-56080226D01*
X154252795Y-56249744D01*
X154174774Y-56438102D01*
X154135000Y-56638061D01*
X152335652Y-56638061D01*
X152476439Y-56497274D01*
X152589707Y-56327756D01*
X152667728Y-56139398D01*
X152707502Y-55939439D01*
X152707502Y-55735561D01*
X152667728Y-55535602D01*
X152589707Y-55347244D01*
X152476439Y-55177726D01*
X152332276Y-55033563D01*
X152162758Y-54920295D01*
X151974400Y-54842274D01*
X151774441Y-54802500D01*
X151570563Y-54802500D01*
X151370604Y-54842274D01*
X151182246Y-54920295D01*
X151012728Y-55033563D01*
X150868565Y-55177726D01*
X150755297Y-55347244D01*
X150677276Y-55535602D01*
X150637502Y-55735561D01*
X144897851Y-55735561D01*
X144886028Y-55723738D01*
X144732889Y-55621414D01*
X144562729Y-55550932D01*
X144382089Y-55515000D01*
X144197911Y-55515000D01*
X144017271Y-55550932D01*
X143847111Y-55621414D01*
X143693972Y-55723738D01*
X143563738Y-55853972D01*
X143531659Y-55901982D01*
X143506262Y-55863972D01*
X143376028Y-55733738D01*
X143222889Y-55631414D01*
X143052729Y-55560932D01*
X142872089Y-55525000D01*
X142687911Y-55525000D01*
X142507271Y-55560932D01*
X142337111Y-55631414D01*
X142183972Y-55733738D01*
X142053738Y-55863972D01*
X141951414Y-56017111D01*
X141880932Y-56187271D01*
X141845000Y-56367911D01*
X120660000Y-56367911D01*
X120660000Y-53547911D01*
X136665000Y-53547911D01*
X136665000Y-53732089D01*
X136700932Y-53912729D01*
X136771414Y-54082889D01*
X136873738Y-54236028D01*
X137003972Y-54366262D01*
X137157111Y-54468586D01*
X137327271Y-54539068D01*
X137507911Y-54575000D01*
X137692089Y-54575000D01*
X137872729Y-54539068D01*
X138042889Y-54468586D01*
X138196028Y-54366262D01*
X138326262Y-54236028D01*
X138428586Y-54082889D01*
X138499068Y-53912729D01*
X138535000Y-53732089D01*
X138535000Y-53547911D01*
X138499068Y-53367271D01*
X138428586Y-53197111D01*
X138326262Y-53043972D01*
X138196028Y-52913738D01*
X138042889Y-52811414D01*
X137872729Y-52740932D01*
X137692089Y-52705000D01*
X137507911Y-52705000D01*
X137327271Y-52740932D01*
X137157111Y-52811414D01*
X137003972Y-52913738D01*
X136873738Y-53043972D01*
X136771414Y-53197111D01*
X136700932Y-53367271D01*
X136665000Y-53547911D01*
X120660000Y-53547911D01*
X120660000Y-49838061D01*
X126114996Y-49838061D01*
X126114996Y-50041939D01*
X126154770Y-50241898D01*
X126232791Y-50430256D01*
X126346059Y-50599774D01*
X126490222Y-50743937D01*
X126659740Y-50857205D01*
X126848098Y-50935226D01*
X127048057Y-50975000D01*
X127251935Y-50975000D01*
X127451894Y-50935226D01*
X127640252Y-50857205D01*
X127809770Y-50743937D01*
X127953933Y-50599774D01*
X128067201Y-50430256D01*
X128145222Y-50241898D01*
X128184996Y-50041939D01*
X128184996Y-49838061D01*
X128145222Y-49638102D01*
X128067201Y-49449744D01*
X127953933Y-49280226D01*
X127809770Y-49136063D01*
X127640252Y-49022795D01*
X127451894Y-48944774D01*
X127251935Y-48905000D01*
X127048057Y-48905000D01*
X126848098Y-48944774D01*
X126659740Y-49022795D01*
X126490222Y-49136063D01*
X126346059Y-49280226D01*
X126232791Y-49449744D01*
X126154770Y-49638102D01*
X126114996Y-49838061D01*
X120660000Y-49838061D01*
X120660000Y-47770010D01*
X142701434Y-47770010D01*
X142704990Y-47806115D01*
X142704991Y-49311877D01*
X142701434Y-49347992D01*
X142715625Y-49492077D01*
X142735320Y-49557000D01*
X142757654Y-49630625D01*
X142825904Y-49758312D01*
X142917753Y-49870230D01*
X142945798Y-49893246D01*
X145036842Y-51984290D01*
X144941412Y-52127111D01*
X144870930Y-52297271D01*
X144834998Y-52477911D01*
X144834998Y-52662089D01*
X144870930Y-52842729D01*
X144941412Y-53012889D01*
X145043736Y-53166028D01*
X145173970Y-53296262D01*
X145327109Y-53398586D01*
X145497269Y-53469068D01*
X145677909Y-53505000D01*
X145862087Y-53505000D01*
X146042727Y-53469068D01*
X146212887Y-53398586D01*
X146315533Y-53330000D01*
X146972678Y-53330000D01*
X147010000Y-53333676D01*
X147047322Y-53330000D01*
X147047333Y-53330000D01*
X147158986Y-53319003D01*
X147302247Y-53275546D01*
X147434276Y-53204974D01*
X147550001Y-53110001D01*
X147573803Y-53080998D01*
X147801649Y-52853153D01*
X147922729Y-52829068D01*
X148092889Y-52758586D01*
X148232951Y-52665000D01*
X149241897Y-52665000D01*
X149278002Y-52668556D01*
X149314107Y-52665000D01*
X149422087Y-52654365D01*
X149560635Y-52612337D01*
X149688322Y-52544087D01*
X149800240Y-52452238D01*
X149823261Y-52424188D01*
X152334203Y-49913246D01*
X152362248Y-49890230D01*
X152454097Y-49778312D01*
X152522347Y-49650625D01*
X152564375Y-49512077D01*
X152575010Y-49404097D01*
X152575010Y-49404088D01*
X152578565Y-49367993D01*
X152575010Y-49331898D01*
X152575010Y-47806115D01*
X152578566Y-47770010D01*
X152564375Y-47625925D01*
X152554268Y-47592606D01*
X152522347Y-47487377D01*
X152454097Y-47359690D01*
X152362247Y-47247772D01*
X152334202Y-47224756D01*
X152115259Y-47005813D01*
X152092238Y-46977762D01*
X151980320Y-46885913D01*
X151852633Y-46817663D01*
X151714085Y-46775635D01*
X151606105Y-46765000D01*
X151570000Y-46761444D01*
X151533895Y-46765000D01*
X151178072Y-46765000D01*
X151178072Y-46653000D01*
X151267000Y-46653000D01*
X151267000Y-46673000D01*
X152016250Y-46673000D01*
X152175000Y-46514250D01*
X152178072Y-46400000D01*
X152165812Y-46275518D01*
X152129502Y-46155820D01*
X152070537Y-46045506D01*
X151991185Y-45948815D01*
X151894494Y-45869463D01*
X151784180Y-45810498D01*
X151664482Y-45774188D01*
X151540000Y-45761928D01*
X151425750Y-45765000D01*
X151325262Y-45865488D01*
X151325000Y-45855750D01*
X151267002Y-45797752D01*
X151267002Y-45765000D01*
X151234250Y-45765000D01*
X151166250Y-45697000D01*
X149767000Y-45697000D01*
X149767000Y-45717000D01*
X149513000Y-45717000D01*
X149513000Y-45697000D01*
X148113750Y-45697000D01*
X148048822Y-45761928D01*
X147940000Y-45761928D01*
X147776500Y-45778031D01*
X147640000Y-45819438D01*
X147503500Y-45778031D01*
X147340000Y-45761928D01*
X147231178Y-45761928D01*
X147166250Y-45697000D01*
X145767000Y-45697000D01*
X145767000Y-45717000D01*
X145513000Y-45717000D01*
X145513000Y-45697000D01*
X144113750Y-45697000D01*
X144045750Y-45765000D01*
X144012998Y-45765000D01*
X144012998Y-45797752D01*
X143955000Y-45855750D01*
X143954738Y-45865488D01*
X143854250Y-45765000D01*
X143740000Y-45761928D01*
X143615518Y-45774188D01*
X143495820Y-45810498D01*
X143385506Y-45869463D01*
X143288815Y-45948815D01*
X143209463Y-46045506D01*
X143150498Y-46155820D01*
X143114188Y-46275518D01*
X143101928Y-46400000D01*
X143105000Y-46514250D01*
X143263750Y-46673000D01*
X144013000Y-46673000D01*
X144013000Y-46653000D01*
X144101928Y-46653000D01*
X144101928Y-46765000D01*
X143746105Y-46765000D01*
X143710000Y-46761444D01*
X143673895Y-46765000D01*
X143565915Y-46775635D01*
X143427367Y-46817663D01*
X143299680Y-46885913D01*
X143187762Y-46977762D01*
X143164741Y-47005813D01*
X142945798Y-47224756D01*
X142917752Y-47247773D01*
X142825903Y-47359691D01*
X142757653Y-47487378D01*
X142728374Y-47583897D01*
X142715625Y-47625925D01*
X142701434Y-47770010D01*
X120660000Y-47770010D01*
X120660000Y-45170000D01*
X143951928Y-45170000D01*
X143955000Y-45284250D01*
X144113750Y-45443000D01*
X145513000Y-45443000D01*
X145513000Y-44693750D01*
X145767000Y-44693750D01*
X145767000Y-45443000D01*
X147166250Y-45443000D01*
X147325000Y-45284250D01*
X147328072Y-45170000D01*
X147951928Y-45170000D01*
X147955000Y-45284250D01*
X148113750Y-45443000D01*
X149513000Y-45443000D01*
X149513000Y-44693750D01*
X149767000Y-44693750D01*
X149767000Y-45443000D01*
X151166250Y-45443000D01*
X151325000Y-45284250D01*
X151328072Y-45170000D01*
X151315812Y-45045518D01*
X151279502Y-44925820D01*
X151220537Y-44815506D01*
X151141185Y-44718815D01*
X151044494Y-44639463D01*
X150934180Y-44580498D01*
X150814482Y-44544188D01*
X150690000Y-44531928D01*
X149925750Y-44535000D01*
X149767000Y-44693750D01*
X149513000Y-44693750D01*
X149354250Y-44535000D01*
X148590000Y-44531928D01*
X148465518Y-44544188D01*
X148345820Y-44580498D01*
X148235506Y-44639463D01*
X148138815Y-44718815D01*
X148059463Y-44815506D01*
X148000498Y-44925820D01*
X147964188Y-45045518D01*
X147951928Y-45170000D01*
X147328072Y-45170000D01*
X147315812Y-45045518D01*
X147279502Y-44925820D01*
X147220537Y-44815506D01*
X147141185Y-44718815D01*
X147044494Y-44639463D01*
X146934180Y-44580498D01*
X146814482Y-44544188D01*
X146690000Y-44531928D01*
X145925750Y-44535000D01*
X145767000Y-44693750D01*
X145513000Y-44693750D01*
X145354250Y-44535000D01*
X144590000Y-44531928D01*
X144465518Y-44544188D01*
X144345820Y-44580498D01*
X144235506Y-44639463D01*
X144138815Y-44718815D01*
X144059463Y-44815506D01*
X144000498Y-44925820D01*
X143964188Y-45045518D01*
X143951928Y-45170000D01*
X120660000Y-45170000D01*
X120660000Y-40110000D01*
X137090000Y-40110000D01*
X137090001Y-42247571D01*
G37*
%TD.AperFunction*%
D18*
X149767000Y-49303000D02*
X149787000Y-49303000D01*
X149787000Y-49557000D01*
X149767000Y-49557000D01*
X149767000Y-49577000D01*
X149513000Y-49577000D01*
X149513000Y-49557000D01*
X149493000Y-49557000D01*
X149493000Y-49303000D01*
X149513000Y-49303000D01*
X149513000Y-49283000D01*
X149767000Y-49283000D01*
X149767000Y-49303000D01*
%TA.AperFunction,Conductor*%
D19*
G36*
X149767000Y-49303000D02*
G01*
X149787000Y-49303000D01*
X149787000Y-49557000D01*
X149767000Y-49557000D01*
X149767000Y-49577000D01*
X149513000Y-49577000D01*
X149513000Y-49557000D01*
X149493000Y-49557000D01*
X149493000Y-49303000D01*
X149513000Y-49303000D01*
X149513000Y-49283000D01*
X149767000Y-49283000D01*
X149767000Y-49303000D01*
G37*
%TD.AperFunction*%
D18*
X145767000Y-49303000D02*
X145787000Y-49303000D01*
X145787000Y-49557000D01*
X145767000Y-49557000D01*
X145767000Y-49577000D01*
X145513000Y-49577000D01*
X145513000Y-49557000D01*
X145493000Y-49557000D01*
X145493000Y-49303000D01*
X145513000Y-49303000D01*
X145513000Y-49283000D01*
X145767000Y-49283000D01*
X145767000Y-49303000D01*
%TA.AperFunction,Conductor*%
D19*
G36*
X145767000Y-49303000D02*
G01*
X145787000Y-49303000D01*
X145787000Y-49557000D01*
X145767000Y-49557000D01*
X145767000Y-49577000D01*
X145513000Y-49577000D01*
X145513000Y-49557000D01*
X145493000Y-49557000D01*
X145493000Y-49303000D01*
X145513000Y-49303000D01*
X145513000Y-49283000D01*
X145767000Y-49283000D01*
X145767000Y-49303000D01*
G37*
%TD.AperFunction*%
%TD*%
M02*
