M48
; DRILL file {KiCad 5.1.8-db9833491~87~ubuntu20.04.1} date Thu Nov  5 18:08:47 2020
; FORMAT={-:-/ absolute / inch / decimal}
; #@! TF.CreationDate,2020-11-05T18:08:47+01:00
; #@! TF.GenerationSoftware,Kicad,Pcbnew,5.1.8-db9833491~87~ubuntu20.04.1
; #@! TF.FileFunction,Plated,1,4,PTH
FMAT,2
INCH
T1C0.0157
T2C0.0197
T3C0.0236
T4C0.0354
T5C0.0394
%
G90
G05
T1
X4.8795Y-2.4929
X4.8967Y-1.9692
X4.9594Y-2.2563
X4.9917Y-2.7681
X5.0059Y-1.9661
X5.0555Y-2.7378
X5.4173Y-2.0728
X5.4173Y-2.1118
X5.4173Y-2.3031
X5.4173Y-2.3425
X5.4173Y-2.3819
X5.4173Y-2.4209
X5.4173Y-2.6122
X5.4173Y-2.6516
X5.4173Y-2.6909
X5.4173Y-2.7303
X5.5969Y-2.6114
X5.5984Y-1.9417
X5.6126Y-2.4689
X5.6209Y-2.0866
X5.6213Y-2.2228
X5.6583Y-2.611
X5.6799Y-2.0866
X5.6807Y-2.2224
X5.739Y-2.0697
X5.7433Y-2.0039
X5.8008Y-2.5937
X5.8008Y-2.7098
X5.8008Y-2.7677
X5.8012Y-2.6516
X5.813Y-2.0445
X5.8134Y-2.1311
X5.8224Y-2.2591
X5.8437Y-2.4768
X5.8654Y-2.2587
X5.8827Y-2.0039
X5.8831Y-2.4768
X5.9311Y-2.287
X5.9358Y-2.3339
X5.9437Y-2.7661
X5.9445Y-2.5937
X5.9445Y-2.7098
X5.9449Y-2.6516
X5.9714Y-2.1983
X6.0276Y-1.9417
X6.1079Y-2.2941
X6.1091Y-2.2339
X6.1277Y-2.4191
X6.1469Y-2.6043
X6.1472Y-2.6791
X6.1648Y-2.5596
X6.1671Y-2.4201
X6.1957Y-2.4661
X6.2053Y-2.551
X6.2452Y-2.5333
X6.2815Y-2.0472
X6.2815Y-2.0969
X6.2815Y-2.1472
X6.2815Y-2.3665
X6.2815Y-2.7161
X6.2823Y-2.4161
X6.8988Y-2.6665
X6.8992Y-2.4661
X6.8996Y-2.5665
X6.8996Y-2.1472
X6.8996Y-2.3665
X6.8996Y-2.4165
X6.8996Y-2.6161
X6.8996Y-2.7165
X6.9Y-2.0476
X6.9Y-2.5166
T3
X5.6886Y-1.8425
X5.6886Y-1.8976
X5.724Y-1.8425
X5.724Y-1.8976
X5.7594Y-1.8425
X5.7949Y-1.8425
X5.7949Y-1.8976
X5.8303Y-1.8425
X5.8303Y-1.8976
X5.8657Y-1.8976
X5.9012Y-1.8425
X5.9012Y-1.8976
X5.9366Y-1.8425
X5.9366Y-1.8976
T4
X5.9992Y-2.9567
X6.0992Y-2.9567
X6.1992Y-2.9567
X5.4693Y-2.9567
X5.5693Y-2.9567
X5.6693Y-2.9567
T5
X4.8244Y-2.9949
X4.9244Y-2.9949
X5.0244Y-2.9949
X5.1244Y-2.9949
X5.2244Y-2.9949
T2
G00X5.7122Y-1.7941
M15
G01X5.7555Y-1.7941
M16
G05
G00X5.7122Y-1.9461
M15
G01X5.7555Y-1.9461
M16
G05
G00X5.8697Y-1.7941
M15
G01X5.913Y-1.7941
M16
G05
G00X5.8697Y-1.9461
M15
G01X5.913Y-1.9461
M16
G05
T0
M30
