%TF.GenerationSoftware,KiCad,Pcbnew,5.1.8-db9833491~87~ubuntu20.04.1*%
%TF.CreationDate,2020-11-23T17:51:26+01:00*%
%TF.ProjectId,rosalyn-tx,726f7361-6c79-46e2-9d74-782e6b696361,v1.0*%
%TF.SameCoordinates,Original*%
%TF.FileFunction,Copper,L1,Top*%
%TF.FilePolarity,Positive*%
%FSLAX46Y46*%
G04 Gerber Fmt 4.6, Leading zero omitted, Abs format (unit mm)*
G04 Created by KiCad (PCBNEW 5.1.8-db9833491~87~ubuntu20.04.1) date 2020-11-23 17:51:26*
%MOMM*%
%LPD*%
G01*
G04 APERTURE LIST*
%TA.AperFunction,SMDPad,CuDef*%
%ADD10R,1.500000X0.750000*%
%TD*%
%TA.AperFunction,SMDPad,CuDef*%
%ADD11R,0.650000X1.060000*%
%TD*%
%TA.AperFunction,SMDPad,CuDef*%
%ADD12R,0.900000X0.800000*%
%TD*%
%TA.AperFunction,SMDPad,CuDef*%
%ADD13R,0.600000X0.450000*%
%TD*%
%TA.AperFunction,ComponentPad*%
%ADD14R,1.700000X1.700000*%
%TD*%
%TA.AperFunction,ComponentPad*%
%ADD15O,1.700000X1.700000*%
%TD*%
%TA.AperFunction,ComponentPad*%
%ADD16C,1.800000*%
%TD*%
%TA.AperFunction,ComponentPad*%
%ADD17R,1.800000X1.800000*%
%TD*%
%TA.AperFunction,ViaPad*%
%ADD18C,0.800000*%
%TD*%
%TA.AperFunction,ViaPad*%
%ADD19C,0.600000*%
%TD*%
%TA.AperFunction,Conductor*%
%ADD20C,0.250000*%
%TD*%
%TA.AperFunction,Conductor*%
%ADD21C,0.500000*%
%TD*%
%TA.AperFunction,Conductor*%
%ADD22C,0.200000*%
%TD*%
G04 APERTURE END LIST*
%TO.P,J1,B8*%
%TO.N,N/C*%
%TA.AperFunction,ComponentPad*%
G36*
G01*
X145740000Y-48400000D02*
X145740000Y-48000000D01*
G75*
G02*
X145940000Y-47800000I200000J0D01*
G01*
X146340000Y-47800000D01*
G75*
G02*
X146540000Y-48000000I0J-200000D01*
G01*
X146540000Y-48400000D01*
G75*
G02*
X146340000Y-48600000I-200000J0D01*
G01*
X145940000Y-48600000D01*
G75*
G02*
X145740000Y-48400000I0J200000D01*
G01*
G37*
%TD.AperFunction*%
%TO.P,J1,A8*%
%TA.AperFunction,ComponentPad*%
G36*
G01*
X148740000Y-47000000D02*
X148740000Y-46600000D01*
G75*
G02*
X148940000Y-46400000I200000J0D01*
G01*
X149340000Y-46400000D01*
G75*
G02*
X149540000Y-46600000I0J-200000D01*
G01*
X149540000Y-47000000D01*
G75*
G02*
X149340000Y-47200000I-200000J0D01*
G01*
X148940000Y-47200000D01*
G75*
G02*
X148740000Y-47000000I0J200000D01*
G01*
G37*
%TD.AperFunction*%
%TO.P,J1,S1*%
%TO.N,GND*%
%TA.AperFunction,ComponentPad*%
G36*
G01*
X144590000Y-49630000D02*
X144590000Y-49230000D01*
G75*
G02*
X144790000Y-49030000I200000J0D01*
G01*
X146490000Y-49030000D01*
G75*
G02*
X146690000Y-49230000I0J-200000D01*
G01*
X146690000Y-49630000D01*
G75*
G02*
X146490000Y-49830000I-200000J0D01*
G01*
X144790000Y-49830000D01*
G75*
G02*
X144590000Y-49630000I0J200000D01*
G01*
G37*
%TD.AperFunction*%
%TA.AperFunction,ComponentPad*%
G36*
G01*
X148590000Y-49630000D02*
X148590000Y-49230000D01*
G75*
G02*
X148790000Y-49030000I200000J0D01*
G01*
X150490000Y-49030000D01*
G75*
G02*
X150690000Y-49230000I0J-200000D01*
G01*
X150690000Y-49630000D01*
G75*
G02*
X150490000Y-49830000I-200000J0D01*
G01*
X148790000Y-49830000D01*
G75*
G02*
X148590000Y-49630000I0J200000D01*
G01*
G37*
%TD.AperFunction*%
%TA.AperFunction,ComponentPad*%
G36*
G01*
X148590000Y-45770000D02*
X148590000Y-45370000D01*
G75*
G02*
X148790000Y-45170000I200000J0D01*
G01*
X150490000Y-45170000D01*
G75*
G02*
X150690000Y-45370000I0J-200000D01*
G01*
X150690000Y-45770000D01*
G75*
G02*
X150490000Y-45970000I-200000J0D01*
G01*
X148790000Y-45970000D01*
G75*
G02*
X148590000Y-45770000I0J200000D01*
G01*
G37*
%TD.AperFunction*%
%TA.AperFunction,ComponentPad*%
G36*
G01*
X144590000Y-45770000D02*
X144590000Y-45370000D01*
G75*
G02*
X144790000Y-45170000I200000J0D01*
G01*
X146490000Y-45170000D01*
G75*
G02*
X146690000Y-45370000I0J-200000D01*
G01*
X146690000Y-45770000D01*
G75*
G02*
X146490000Y-45970000I-200000J0D01*
G01*
X144790000Y-45970000D01*
G75*
G02*
X144590000Y-45770000I0J200000D01*
G01*
G37*
%TD.AperFunction*%
%TO.P,J1,A12*%
%TA.AperFunction,ComponentPad*%
G36*
G01*
X150740000Y-47000000D02*
X150740000Y-46600000D01*
G75*
G02*
X150940000Y-46400000I200000J0D01*
G01*
X151340000Y-46400000D01*
G75*
G02*
X151540000Y-46600000I0J-200000D01*
G01*
X151540000Y-47000000D01*
G75*
G02*
X151340000Y-47200000I-200000J0D01*
G01*
X150940000Y-47200000D01*
G75*
G02*
X150740000Y-47000000I0J200000D01*
G01*
G37*
%TD.AperFunction*%
%TO.P,J1,A9*%
%TO.N,vcc_usb*%
%TA.AperFunction,ComponentPad*%
G36*
G01*
X149740000Y-47000000D02*
X149740000Y-46600000D01*
G75*
G02*
X149940000Y-46400000I200000J0D01*
G01*
X150340000Y-46400000D01*
G75*
G02*
X150540000Y-46600000I0J-200000D01*
G01*
X150540000Y-47000000D01*
G75*
G02*
X150340000Y-47200000I-200000J0D01*
G01*
X149940000Y-47200000D01*
G75*
G02*
X149740000Y-47000000I0J200000D01*
G01*
G37*
%TD.AperFunction*%
%TO.P,J1,A7*%
%TO.N,usb_N*%
%TA.AperFunction,ComponentPad*%
G36*
G01*
X147740000Y-47000000D02*
X147740000Y-46600000D01*
G75*
G02*
X147940000Y-46400000I200000J0D01*
G01*
X148340000Y-46400000D01*
G75*
G02*
X148540000Y-46600000I0J-200000D01*
G01*
X148540000Y-47000000D01*
G75*
G02*
X148340000Y-47200000I-200000J0D01*
G01*
X147940000Y-47200000D01*
G75*
G02*
X147740000Y-47000000I0J200000D01*
G01*
G37*
%TD.AperFunction*%
%TO.P,J1,A6*%
%TO.N,usb_P*%
%TA.AperFunction,ComponentPad*%
G36*
G01*
X146740000Y-47000000D02*
X146740000Y-46600000D01*
G75*
G02*
X146940000Y-46400000I200000J0D01*
G01*
X147340000Y-46400000D01*
G75*
G02*
X147540000Y-46600000I0J-200000D01*
G01*
X147540000Y-47000000D01*
G75*
G02*
X147340000Y-47200000I-200000J0D01*
G01*
X146940000Y-47200000D01*
G75*
G02*
X146740000Y-47000000I0J200000D01*
G01*
G37*
%TD.AperFunction*%
%TO.P,J1,A5*%
%TO.N,Net-(J1-PadA5)*%
%TA.AperFunction,ComponentPad*%
G36*
G01*
X145740000Y-47000000D02*
X145740000Y-46600000D01*
G75*
G02*
X145940000Y-46400000I200000J0D01*
G01*
X146340000Y-46400000D01*
G75*
G02*
X146540000Y-46600000I0J-200000D01*
G01*
X146540000Y-47000000D01*
G75*
G02*
X146340000Y-47200000I-200000J0D01*
G01*
X145940000Y-47200000D01*
G75*
G02*
X145740000Y-47000000I0J200000D01*
G01*
G37*
%TD.AperFunction*%
%TO.P,J1,A4*%
%TO.N,vcc_usb*%
%TA.AperFunction,ComponentPad*%
G36*
G01*
X144740000Y-47000000D02*
X144740000Y-46600000D01*
G75*
G02*
X144940000Y-46400000I200000J0D01*
G01*
X145340000Y-46400000D01*
G75*
G02*
X145540000Y-46600000I0J-200000D01*
G01*
X145540000Y-47000000D01*
G75*
G02*
X145340000Y-47200000I-200000J0D01*
G01*
X144940000Y-47200000D01*
G75*
G02*
X144740000Y-47000000I0J200000D01*
G01*
G37*
%TD.AperFunction*%
%TO.P,J1,A1*%
%TO.N,GND*%
%TA.AperFunction,ComponentPad*%
G36*
G01*
X143740000Y-47000000D02*
X143740000Y-46600000D01*
G75*
G02*
X143940000Y-46400000I200000J0D01*
G01*
X144340000Y-46400000D01*
G75*
G02*
X144540000Y-46600000I0J-200000D01*
G01*
X144540000Y-47000000D01*
G75*
G02*
X144340000Y-47200000I-200000J0D01*
G01*
X143940000Y-47200000D01*
G75*
G02*
X143740000Y-47000000I0J200000D01*
G01*
G37*
%TD.AperFunction*%
%TO.P,J1,B12*%
%TA.AperFunction,ComponentPad*%
G36*
G01*
X143740000Y-48400000D02*
X143740000Y-48000000D01*
G75*
G02*
X143940000Y-47800000I200000J0D01*
G01*
X144340000Y-47800000D01*
G75*
G02*
X144540000Y-48000000I0J-200000D01*
G01*
X144540000Y-48400000D01*
G75*
G02*
X144340000Y-48600000I-200000J0D01*
G01*
X143940000Y-48600000D01*
G75*
G02*
X143740000Y-48400000I0J200000D01*
G01*
G37*
%TD.AperFunction*%
%TO.P,J1,B9*%
%TO.N,vcc_usb*%
%TA.AperFunction,ComponentPad*%
G36*
G01*
X144740000Y-48400000D02*
X144740000Y-48000000D01*
G75*
G02*
X144940000Y-47800000I200000J0D01*
G01*
X145340000Y-47800000D01*
G75*
G02*
X145540000Y-48000000I0J-200000D01*
G01*
X145540000Y-48400000D01*
G75*
G02*
X145340000Y-48600000I-200000J0D01*
G01*
X144940000Y-48600000D01*
G75*
G02*
X144740000Y-48400000I0J200000D01*
G01*
G37*
%TD.AperFunction*%
%TO.P,J1,B7*%
%TO.N,usb_N*%
%TA.AperFunction,ComponentPad*%
G36*
G01*
X146740000Y-48400000D02*
X146740000Y-48000000D01*
G75*
G02*
X146940000Y-47800000I200000J0D01*
G01*
X147340000Y-47800000D01*
G75*
G02*
X147540000Y-48000000I0J-200000D01*
G01*
X147540000Y-48400000D01*
G75*
G02*
X147340000Y-48600000I-200000J0D01*
G01*
X146940000Y-48600000D01*
G75*
G02*
X146740000Y-48400000I0J200000D01*
G01*
G37*
%TD.AperFunction*%
%TO.P,J1,B1*%
%TO.N,GND*%
%TA.AperFunction,ComponentPad*%
G36*
G01*
X150740000Y-48400000D02*
X150740000Y-48000000D01*
G75*
G02*
X150940000Y-47800000I200000J0D01*
G01*
X151340000Y-47800000D01*
G75*
G02*
X151540000Y-48000000I0J-200000D01*
G01*
X151540000Y-48400000D01*
G75*
G02*
X151340000Y-48600000I-200000J0D01*
G01*
X150940000Y-48600000D01*
G75*
G02*
X150740000Y-48400000I0J200000D01*
G01*
G37*
%TD.AperFunction*%
%TO.P,J1,B4*%
%TO.N,vcc_usb*%
%TA.AperFunction,ComponentPad*%
G36*
G01*
X149740000Y-48400000D02*
X149740000Y-48000000D01*
G75*
G02*
X149940000Y-47800000I200000J0D01*
G01*
X150340000Y-47800000D01*
G75*
G02*
X150540000Y-48000000I0J-200000D01*
G01*
X150540000Y-48400000D01*
G75*
G02*
X150340000Y-48600000I-200000J0D01*
G01*
X149940000Y-48600000D01*
G75*
G02*
X149740000Y-48400000I0J200000D01*
G01*
G37*
%TD.AperFunction*%
%TO.P,J1,B5*%
%TO.N,Net-(J1-PadB5)*%
%TA.AperFunction,ComponentPad*%
G36*
G01*
X148740000Y-48400000D02*
X148740000Y-48000000D01*
G75*
G02*
X148940000Y-47800000I200000J0D01*
G01*
X149340000Y-47800000D01*
G75*
G02*
X149540000Y-48000000I0J-200000D01*
G01*
X149540000Y-48400000D01*
G75*
G02*
X149340000Y-48600000I-200000J0D01*
G01*
X148940000Y-48600000D01*
G75*
G02*
X148740000Y-48400000I0J200000D01*
G01*
G37*
%TD.AperFunction*%
%TO.P,J1,B6*%
%TO.N,usb_P*%
%TA.AperFunction,ComponentPad*%
G36*
G01*
X147740000Y-48400000D02*
X147740000Y-48000000D01*
G75*
G02*
X147940000Y-47800000I200000J0D01*
G01*
X148340000Y-47800000D01*
G75*
G02*
X148540000Y-48000000I0J-200000D01*
G01*
X148540000Y-48400000D01*
G75*
G02*
X148340000Y-48600000I-200000J0D01*
G01*
X147940000Y-48600000D01*
G75*
G02*
X147740000Y-48400000I0J200000D01*
G01*
G37*
%TD.AperFunction*%
%TD*%
%TO.P,J5,MP*%
%TO.N,N/C*%
%TA.AperFunction,SMDPad,CuDef*%
G36*
G01*
X134450001Y-65650000D02*
X133149999Y-65650000D01*
G75*
G02*
X132900000Y-65400001I0J249999D01*
G01*
X132900000Y-64699999D01*
G75*
G02*
X133149999Y-64450000I249999J0D01*
G01*
X134450001Y-64450000D01*
G75*
G02*
X134700000Y-64699999I0J-249999D01*
G01*
X134700000Y-65400001D01*
G75*
G02*
X134450001Y-65650000I-249999J0D01*
G01*
G37*
%TD.AperFunction*%
%TA.AperFunction,SMDPad,CuDef*%
G36*
G01*
X134450001Y-71250000D02*
X133149999Y-71250000D01*
G75*
G02*
X132900000Y-71000001I0J249999D01*
G01*
X132900000Y-70299999D01*
G75*
G02*
X133149999Y-70050000I249999J0D01*
G01*
X134450001Y-70050000D01*
G75*
G02*
X134700000Y-70299999I0J-249999D01*
G01*
X134700000Y-71000001D01*
G75*
G02*
X134450001Y-71250000I-249999J0D01*
G01*
G37*
%TD.AperFunction*%
%TO.P,J5,4*%
%TO.N,uart3_rx*%
%TA.AperFunction,SMDPad,CuDef*%
G36*
G01*
X136950000Y-66650000D02*
X135700000Y-66650000D01*
G75*
G02*
X135550000Y-66500000I0J150000D01*
G01*
X135550000Y-66200000D01*
G75*
G02*
X135700000Y-66050000I150000J0D01*
G01*
X136950000Y-66050000D01*
G75*
G02*
X137100000Y-66200000I0J-150000D01*
G01*
X137100000Y-66500000D01*
G75*
G02*
X136950000Y-66650000I-150000J0D01*
G01*
G37*
%TD.AperFunction*%
%TO.P,J5,3*%
%TO.N,uart3_tx*%
%TA.AperFunction,SMDPad,CuDef*%
G36*
G01*
X136950000Y-67650000D02*
X135700000Y-67650000D01*
G75*
G02*
X135550000Y-67500000I0J150000D01*
G01*
X135550000Y-67200000D01*
G75*
G02*
X135700000Y-67050000I150000J0D01*
G01*
X136950000Y-67050000D01*
G75*
G02*
X137100000Y-67200000I0J-150000D01*
G01*
X137100000Y-67500000D01*
G75*
G02*
X136950000Y-67650000I-150000J0D01*
G01*
G37*
%TD.AperFunction*%
%TO.P,J5,2*%
%TO.N,GND*%
%TA.AperFunction,SMDPad,CuDef*%
G36*
G01*
X136950000Y-68650000D02*
X135700000Y-68650000D01*
G75*
G02*
X135550000Y-68500000I0J150000D01*
G01*
X135550000Y-68200000D01*
G75*
G02*
X135700000Y-68050000I150000J0D01*
G01*
X136950000Y-68050000D01*
G75*
G02*
X137100000Y-68200000I0J-150000D01*
G01*
X137100000Y-68500000D01*
G75*
G02*
X136950000Y-68650000I-150000J0D01*
G01*
G37*
%TD.AperFunction*%
%TO.P,J5,1*%
%TO.N,+3V3*%
%TA.AperFunction,SMDPad,CuDef*%
G36*
G01*
X136950000Y-69650000D02*
X135700000Y-69650000D01*
G75*
G02*
X135550000Y-69500000I0J150000D01*
G01*
X135550000Y-69200000D01*
G75*
G02*
X135700000Y-69050000I150000J0D01*
G01*
X136950000Y-69050000D01*
G75*
G02*
X137100000Y-69200000I0J-150000D01*
G01*
X137100000Y-69500000D01*
G75*
G02*
X136950000Y-69650000I-150000J0D01*
G01*
G37*
%TD.AperFunction*%
%TD*%
%TO.P,J4,MP*%
%TO.N,N/C*%
%TA.AperFunction,SMDPad,CuDef*%
G36*
G01*
X134450001Y-57800000D02*
X133149999Y-57800000D01*
G75*
G02*
X132900000Y-57550001I0J249999D01*
G01*
X132900000Y-56849999D01*
G75*
G02*
X133149999Y-56600000I249999J0D01*
G01*
X134450001Y-56600000D01*
G75*
G02*
X134700000Y-56849999I0J-249999D01*
G01*
X134700000Y-57550001D01*
G75*
G02*
X134450001Y-57800000I-249999J0D01*
G01*
G37*
%TD.AperFunction*%
%TA.AperFunction,SMDPad,CuDef*%
G36*
G01*
X134450001Y-63400000D02*
X133149999Y-63400000D01*
G75*
G02*
X132900000Y-63150001I0J249999D01*
G01*
X132900000Y-62449999D01*
G75*
G02*
X133149999Y-62200000I249999J0D01*
G01*
X134450001Y-62200000D01*
G75*
G02*
X134700000Y-62449999I0J-249999D01*
G01*
X134700000Y-63150001D01*
G75*
G02*
X134450001Y-63400000I-249999J0D01*
G01*
G37*
%TD.AperFunction*%
%TO.P,J4,4*%
%TO.N,uart1_rx*%
%TA.AperFunction,SMDPad,CuDef*%
G36*
G01*
X136950000Y-58800000D02*
X135700000Y-58800000D01*
G75*
G02*
X135550000Y-58650000I0J150000D01*
G01*
X135550000Y-58350000D01*
G75*
G02*
X135700000Y-58200000I150000J0D01*
G01*
X136950000Y-58200000D01*
G75*
G02*
X137100000Y-58350000I0J-150000D01*
G01*
X137100000Y-58650000D01*
G75*
G02*
X136950000Y-58800000I-150000J0D01*
G01*
G37*
%TD.AperFunction*%
%TO.P,J4,3*%
%TO.N,uart1_tx*%
%TA.AperFunction,SMDPad,CuDef*%
G36*
G01*
X136950000Y-59800000D02*
X135700000Y-59800000D01*
G75*
G02*
X135550000Y-59650000I0J150000D01*
G01*
X135550000Y-59350000D01*
G75*
G02*
X135700000Y-59200000I150000J0D01*
G01*
X136950000Y-59200000D01*
G75*
G02*
X137100000Y-59350000I0J-150000D01*
G01*
X137100000Y-59650000D01*
G75*
G02*
X136950000Y-59800000I-150000J0D01*
G01*
G37*
%TD.AperFunction*%
%TO.P,J4,2*%
%TO.N,GND*%
%TA.AperFunction,SMDPad,CuDef*%
G36*
G01*
X136950000Y-60800000D02*
X135700000Y-60800000D01*
G75*
G02*
X135550000Y-60650000I0J150000D01*
G01*
X135550000Y-60350000D01*
G75*
G02*
X135700000Y-60200000I150000J0D01*
G01*
X136950000Y-60200000D01*
G75*
G02*
X137100000Y-60350000I0J-150000D01*
G01*
X137100000Y-60650000D01*
G75*
G02*
X136950000Y-60800000I-150000J0D01*
G01*
G37*
%TD.AperFunction*%
%TO.P,J4,1*%
%TO.N,+3V3*%
%TA.AperFunction,SMDPad,CuDef*%
G36*
G01*
X136950000Y-61800000D02*
X135700000Y-61800000D01*
G75*
G02*
X135550000Y-61650000I0J150000D01*
G01*
X135550000Y-61350000D01*
G75*
G02*
X135700000Y-61200000I150000J0D01*
G01*
X136950000Y-61200000D01*
G75*
G02*
X137100000Y-61350000I0J-150000D01*
G01*
X137100000Y-61650000D01*
G75*
G02*
X136950000Y-61800000I-150000J0D01*
G01*
G37*
%TD.AperFunction*%
%TD*%
%TO.P,J2,MP*%
%TO.N,N/C*%
%TA.AperFunction,SMDPad,CuDef*%
G36*
G01*
X134450001Y-49950000D02*
X133149999Y-49950000D01*
G75*
G02*
X132900000Y-49700001I0J249999D01*
G01*
X132900000Y-48999999D01*
G75*
G02*
X133149999Y-48750000I249999J0D01*
G01*
X134450001Y-48750000D01*
G75*
G02*
X134700000Y-48999999I0J-249999D01*
G01*
X134700000Y-49700001D01*
G75*
G02*
X134450001Y-49950000I-249999J0D01*
G01*
G37*
%TD.AperFunction*%
%TA.AperFunction,SMDPad,CuDef*%
G36*
G01*
X134450001Y-55550000D02*
X133149999Y-55550000D01*
G75*
G02*
X132900000Y-55300001I0J249999D01*
G01*
X132900000Y-54599999D01*
G75*
G02*
X133149999Y-54350000I249999J0D01*
G01*
X134450001Y-54350000D01*
G75*
G02*
X134700000Y-54599999I0J-249999D01*
G01*
X134700000Y-55300001D01*
G75*
G02*
X134450001Y-55550000I-249999J0D01*
G01*
G37*
%TD.AperFunction*%
%TO.P,J2,4*%
%TO.N,swclk*%
%TA.AperFunction,SMDPad,CuDef*%
G36*
G01*
X136950000Y-50950000D02*
X135700000Y-50950000D01*
G75*
G02*
X135550000Y-50800000I0J150000D01*
G01*
X135550000Y-50500000D01*
G75*
G02*
X135700000Y-50350000I150000J0D01*
G01*
X136950000Y-50350000D01*
G75*
G02*
X137100000Y-50500000I0J-150000D01*
G01*
X137100000Y-50800000D01*
G75*
G02*
X136950000Y-50950000I-150000J0D01*
G01*
G37*
%TD.AperFunction*%
%TO.P,J2,3*%
%TO.N,swdio*%
%TA.AperFunction,SMDPad,CuDef*%
G36*
G01*
X136950000Y-51950000D02*
X135700000Y-51950000D01*
G75*
G02*
X135550000Y-51800000I0J150000D01*
G01*
X135550000Y-51500000D01*
G75*
G02*
X135700000Y-51350000I150000J0D01*
G01*
X136950000Y-51350000D01*
G75*
G02*
X137100000Y-51500000I0J-150000D01*
G01*
X137100000Y-51800000D01*
G75*
G02*
X136950000Y-51950000I-150000J0D01*
G01*
G37*
%TD.AperFunction*%
%TO.P,J2,2*%
%TO.N,GND*%
%TA.AperFunction,SMDPad,CuDef*%
G36*
G01*
X136950000Y-52950000D02*
X135700000Y-52950000D01*
G75*
G02*
X135550000Y-52800000I0J150000D01*
G01*
X135550000Y-52500000D01*
G75*
G02*
X135700000Y-52350000I150000J0D01*
G01*
X136950000Y-52350000D01*
G75*
G02*
X137100000Y-52500000I0J-150000D01*
G01*
X137100000Y-52800000D01*
G75*
G02*
X136950000Y-52950000I-150000J0D01*
G01*
G37*
%TD.AperFunction*%
%TO.P,J2,1*%
%TO.N,+3V3*%
%TA.AperFunction,SMDPad,CuDef*%
G36*
G01*
X136950000Y-53950000D02*
X135700000Y-53950000D01*
G75*
G02*
X135550000Y-53800000I0J150000D01*
G01*
X135550000Y-53500000D01*
G75*
G02*
X135700000Y-53350000I150000J0D01*
G01*
X136950000Y-53350000D01*
G75*
G02*
X137100000Y-53500000I0J-150000D01*
G01*
X137100000Y-53800000D01*
G75*
G02*
X136950000Y-53950000I-150000J0D01*
G01*
G37*
%TD.AperFunction*%
%TD*%
D10*
%TO.P,U4,22*%
%TO.N,GND*%
X173900000Y-52000000D03*
%TO.P,U4,21*%
%TO.N,N/C*%
X173900000Y-53270000D03*
%TO.P,U4,20*%
%TO.N,GND*%
X173900000Y-54540000D03*
%TO.P,U4,19*%
%TO.N,e22_nss*%
X173900000Y-60110000D03*
%TO.P,U4,18*%
%TO.N,spi1_sck*%
X173900000Y-61380000D03*
%TO.P,U4,17*%
%TO.N,spi1_mosi*%
X173900000Y-62650000D03*
%TO.P,U4,16*%
%TO.N,spi1_miso*%
X173900000Y-63920000D03*
%TO.P,U4,15*%
%TO.N,e22_nrst*%
X173900000Y-65190000D03*
%TO.P,U4,14*%
%TO.N,e22_busy*%
X173900000Y-66460000D03*
%TO.P,U4,13*%
%TO.N,e22_dio1*%
X173900000Y-67730000D03*
%TO.P,U4,12*%
%TO.N,GND*%
X173900000Y-69000000D03*
%TO.P,U4,11*%
X160900000Y-69000000D03*
%TO.P,U4,10*%
X160900000Y-67730000D03*
%TO.P,U4,9*%
%TO.N,+3V3*%
X160900000Y-66460000D03*
%TO.P,U4,8*%
%TO.N,e22_dio2*%
X160900000Y-65190000D03*
%TO.P,U4,7*%
%TO.N,e22_txen*%
X160900000Y-63920000D03*
%TO.P,U4,6*%
%TO.N,e22_rxen*%
X160900000Y-62650000D03*
%TO.P,U4,5*%
%TO.N,GND*%
X160900000Y-61380000D03*
%TO.P,U4,4*%
X160900000Y-60110000D03*
%TO.P,U4,3*%
X160900000Y-54540000D03*
%TO.P,U4,2*%
X160900000Y-53270000D03*
%TO.P,U4,1*%
X160900000Y-52000000D03*
%TD*%
%TO.P,C14,2*%
%TO.N,GND*%
%TA.AperFunction,SMDPad,CuDef*%
G36*
G01*
X156985000Y-67550000D02*
X157935000Y-67550000D01*
G75*
G02*
X158185000Y-67800000I0J-250000D01*
G01*
X158185000Y-68300000D01*
G75*
G02*
X157935000Y-68550000I-250000J0D01*
G01*
X156985000Y-68550000D01*
G75*
G02*
X156735000Y-68300000I0J250000D01*
G01*
X156735000Y-67800000D01*
G75*
G02*
X156985000Y-67550000I250000J0D01*
G01*
G37*
%TD.AperFunction*%
%TO.P,C14,1*%
%TO.N,+3V3*%
%TA.AperFunction,SMDPad,CuDef*%
G36*
G01*
X156985000Y-65650000D02*
X157935000Y-65650000D01*
G75*
G02*
X158185000Y-65900000I0J-250000D01*
G01*
X158185000Y-66400000D01*
G75*
G02*
X157935000Y-66650000I-250000J0D01*
G01*
X156985000Y-66650000D01*
G75*
G02*
X156735000Y-66400000I0J250000D01*
G01*
X156735000Y-65900000D01*
G75*
G02*
X156985000Y-65650000I250000J0D01*
G01*
G37*
%TD.AperFunction*%
%TD*%
%TO.P,C9,2*%
%TO.N,+3V3*%
%TA.AperFunction,SMDPad,CuDef*%
G36*
G01*
X154340000Y-57185000D02*
X153840000Y-57185000D01*
G75*
G02*
X153615000Y-56960000I0J225000D01*
G01*
X153615000Y-56510000D01*
G75*
G02*
X153840000Y-56285000I225000J0D01*
G01*
X154340000Y-56285000D01*
G75*
G02*
X154565000Y-56510000I0J-225000D01*
G01*
X154565000Y-56960000D01*
G75*
G02*
X154340000Y-57185000I-225000J0D01*
G01*
G37*
%TD.AperFunction*%
%TO.P,C9,1*%
%TO.N,GND*%
%TA.AperFunction,SMDPad,CuDef*%
G36*
G01*
X154340000Y-58735000D02*
X153840000Y-58735000D01*
G75*
G02*
X153615000Y-58510000I0J225000D01*
G01*
X153615000Y-58060000D01*
G75*
G02*
X153840000Y-57835000I225000J0D01*
G01*
X154340000Y-57835000D01*
G75*
G02*
X154565000Y-58060000I0J-225000D01*
G01*
X154565000Y-58510000D01*
G75*
G02*
X154340000Y-58735000I-225000J0D01*
G01*
G37*
%TD.AperFunction*%
%TD*%
%TO.P,C6,2*%
%TO.N,+3V3*%
%TA.AperFunction,SMDPad,CuDef*%
G36*
G01*
X144020000Y-55055000D02*
X144520000Y-55055000D01*
G75*
G02*
X144745000Y-55280000I0J-225000D01*
G01*
X144745000Y-55730000D01*
G75*
G02*
X144520000Y-55955000I-225000J0D01*
G01*
X144020000Y-55955000D01*
G75*
G02*
X143795000Y-55730000I0J225000D01*
G01*
X143795000Y-55280000D01*
G75*
G02*
X144020000Y-55055000I225000J0D01*
G01*
G37*
%TD.AperFunction*%
%TO.P,C6,1*%
%TO.N,GND*%
%TA.AperFunction,SMDPad,CuDef*%
G36*
G01*
X144020000Y-53505000D02*
X144520000Y-53505000D01*
G75*
G02*
X144745000Y-53730000I0J-225000D01*
G01*
X144745000Y-54180000D01*
G75*
G02*
X144520000Y-54405000I-225000J0D01*
G01*
X144020000Y-54405000D01*
G75*
G02*
X143795000Y-54180000I0J225000D01*
G01*
X143795000Y-53730000D01*
G75*
G02*
X144020000Y-53505000I225000J0D01*
G01*
G37*
%TD.AperFunction*%
%TD*%
D11*
%TO.P,U5,1*%
%TO.N,usb_P*%
X146700000Y-53100000D03*
%TO.P,U5,2*%
%TO.N,GND*%
X147650000Y-53100000D03*
%TO.P,U5,3*%
%TO.N,usb_N*%
X148600000Y-53100000D03*
%TO.P,U5,4*%
X148600000Y-50900000D03*
%TO.P,U5,6*%
%TO.N,usb_P*%
X146700000Y-50900000D03*
%TO.P,U5,5*%
%TO.N,vcc_usb*%
X147650000Y-50900000D03*
%TD*%
%TO.P,C2,2*%
%TO.N,GND*%
%TA.AperFunction,SMDPad,CuDef*%
G36*
G01*
X125420000Y-62863750D02*
X125420000Y-63776250D01*
G75*
G02*
X125176250Y-64020000I-243750J0D01*
G01*
X124688750Y-64020000D01*
G75*
G02*
X124445000Y-63776250I0J243750D01*
G01*
X124445000Y-62863750D01*
G75*
G02*
X124688750Y-62620000I243750J0D01*
G01*
X125176250Y-62620000D01*
G75*
G02*
X125420000Y-62863750I0J-243750D01*
G01*
G37*
%TD.AperFunction*%
%TO.P,C2,1*%
%TO.N,Net-(C2-Pad1)*%
%TA.AperFunction,SMDPad,CuDef*%
G36*
G01*
X127295000Y-62863750D02*
X127295000Y-63776250D01*
G75*
G02*
X127051250Y-64020000I-243750J0D01*
G01*
X126563750Y-64020000D01*
G75*
G02*
X126320000Y-63776250I0J243750D01*
G01*
X126320000Y-62863750D01*
G75*
G02*
X126563750Y-62620000I243750J0D01*
G01*
X127051250Y-62620000D01*
G75*
G02*
X127295000Y-62863750I0J-243750D01*
G01*
G37*
%TD.AperFunction*%
%TD*%
%TO.P,C1,2*%
%TO.N,GND*%
%TA.AperFunction,SMDPad,CuDef*%
G36*
G01*
X126300000Y-69566250D02*
X126300000Y-68653750D01*
G75*
G02*
X126543750Y-68410000I243750J0D01*
G01*
X127031250Y-68410000D01*
G75*
G02*
X127275000Y-68653750I0J-243750D01*
G01*
X127275000Y-69566250D01*
G75*
G02*
X127031250Y-69810000I-243750J0D01*
G01*
X126543750Y-69810000D01*
G75*
G02*
X126300000Y-69566250I0J243750D01*
G01*
G37*
%TD.AperFunction*%
%TO.P,C1,1*%
%TO.N,vcc_tng9x*%
%TA.AperFunction,SMDPad,CuDef*%
G36*
G01*
X124425000Y-69566250D02*
X124425000Y-68653750D01*
G75*
G02*
X124668750Y-68410000I243750J0D01*
G01*
X125156250Y-68410000D01*
G75*
G02*
X125400000Y-68653750I0J-243750D01*
G01*
X125400000Y-69566250D01*
G75*
G02*
X125156250Y-69810000I-243750J0D01*
G01*
X124668750Y-69810000D01*
G75*
G02*
X124425000Y-69566250I0J243750D01*
G01*
G37*
%TD.AperFunction*%
%TD*%
%TO.P,U1,5*%
%TO.N,Net-(C2-Pad1)*%
X124900000Y-65120000D03*
%TO.P,U1,4*%
%TO.N,Net-(R3-Pad2)*%
X126800000Y-65120000D03*
%TO.P,U1,3*%
%TO.N,vcc_tng9x*%
X126800000Y-67320000D03*
%TO.P,U1,2*%
%TO.N,GND*%
X125850000Y-67320000D03*
%TO.P,U1,1*%
%TO.N,vcc_tng9x*%
X124900000Y-67320000D03*
%TD*%
D12*
%TO.P,U2,1*%
%TO.N,GND*%
X126830000Y-55330000D03*
%TO.P,U2,2*%
%TO.N,+3V3*%
X126830000Y-53430000D03*
%TO.P,U2,3*%
%TO.N,+5V*%
X124830000Y-54380000D03*
%TD*%
D13*
%TO.P,D1,1*%
%TO.N,+5V*%
X124840000Y-59440000D03*
%TO.P,D1,2*%
%TO.N,vcc_usb*%
X126940000Y-59440000D03*
%TD*%
%TO.P,D2,2*%
%TO.N,Net-(C2-Pad1)*%
X126940000Y-61390000D03*
%TO.P,D2,1*%
%TO.N,+5V*%
X124840000Y-61390000D03*
%TD*%
%TO.P,C5,1*%
%TO.N,Net-(C5-Pad1)*%
%TA.AperFunction,SMDPad,CuDef*%
G36*
G01*
X147945000Y-69080000D02*
X147945000Y-68580000D01*
G75*
G02*
X148170000Y-68355000I225000J0D01*
G01*
X148620000Y-68355000D01*
G75*
G02*
X148845000Y-68580000I0J-225000D01*
G01*
X148845000Y-69080000D01*
G75*
G02*
X148620000Y-69305000I-225000J0D01*
G01*
X148170000Y-69305000D01*
G75*
G02*
X147945000Y-69080000I0J225000D01*
G01*
G37*
%TD.AperFunction*%
%TO.P,C5,2*%
%TO.N,GND*%
%TA.AperFunction,SMDPad,CuDef*%
G36*
G01*
X149495000Y-69080000D02*
X149495000Y-68580000D01*
G75*
G02*
X149720000Y-68355000I225000J0D01*
G01*
X150170000Y-68355000D01*
G75*
G02*
X150395000Y-68580000I0J-225000D01*
G01*
X150395000Y-69080000D01*
G75*
G02*
X150170000Y-69305000I-225000J0D01*
G01*
X149720000Y-69305000D01*
G75*
G02*
X149495000Y-69080000I0J225000D01*
G01*
G37*
%TD.AperFunction*%
%TD*%
%TO.P,C10,2*%
%TO.N,GND*%
%TA.AperFunction,SMDPad,CuDef*%
G36*
G01*
X158940000Y-67425000D02*
X159440000Y-67425000D01*
G75*
G02*
X159665000Y-67650000I0J-225000D01*
G01*
X159665000Y-68100000D01*
G75*
G02*
X159440000Y-68325000I-225000J0D01*
G01*
X158940000Y-68325000D01*
G75*
G02*
X158715000Y-68100000I0J225000D01*
G01*
X158715000Y-67650000D01*
G75*
G02*
X158940000Y-67425000I225000J0D01*
G01*
G37*
%TD.AperFunction*%
%TO.P,C10,1*%
%TO.N,+3V3*%
%TA.AperFunction,SMDPad,CuDef*%
G36*
G01*
X158940000Y-65875000D02*
X159440000Y-65875000D01*
G75*
G02*
X159665000Y-66100000I0J-225000D01*
G01*
X159665000Y-66550000D01*
G75*
G02*
X159440000Y-66775000I-225000J0D01*
G01*
X158940000Y-66775000D01*
G75*
G02*
X158715000Y-66550000I0J225000D01*
G01*
X158715000Y-66100000D01*
G75*
G02*
X158940000Y-65875000I225000J0D01*
G01*
G37*
%TD.AperFunction*%
%TD*%
%TO.P,R3,1*%
%TO.N,Net-(C2-Pad1)*%
%TA.AperFunction,SMDPad,CuDef*%
G36*
G01*
X128135000Y-63495000D02*
X128685000Y-63495000D01*
G75*
G02*
X128885000Y-63695000I0J-200000D01*
G01*
X128885000Y-64095000D01*
G75*
G02*
X128685000Y-64295000I-200000J0D01*
G01*
X128135000Y-64295000D01*
G75*
G02*
X127935000Y-64095000I0J200000D01*
G01*
X127935000Y-63695000D01*
G75*
G02*
X128135000Y-63495000I200000J0D01*
G01*
G37*
%TD.AperFunction*%
%TO.P,R3,2*%
%TO.N,Net-(R3-Pad2)*%
%TA.AperFunction,SMDPad,CuDef*%
G36*
G01*
X128135000Y-65145000D02*
X128685000Y-65145000D01*
G75*
G02*
X128885000Y-65345000I0J-200000D01*
G01*
X128885000Y-65745000D01*
G75*
G02*
X128685000Y-65945000I-200000J0D01*
G01*
X128135000Y-65945000D01*
G75*
G02*
X127935000Y-65745000I0J200000D01*
G01*
X127935000Y-65345000D01*
G75*
G02*
X128135000Y-65145000I200000J0D01*
G01*
G37*
%TD.AperFunction*%
%TD*%
%TO.P,C8,2*%
%TO.N,+3V3*%
%TA.AperFunction,SMDPad,CuDef*%
G36*
G01*
X149495000Y-66130000D02*
X149495000Y-65630000D01*
G75*
G02*
X149720000Y-65405000I225000J0D01*
G01*
X150170000Y-65405000D01*
G75*
G02*
X150395000Y-65630000I0J-225000D01*
G01*
X150395000Y-66130000D01*
G75*
G02*
X150170000Y-66355000I-225000J0D01*
G01*
X149720000Y-66355000D01*
G75*
G02*
X149495000Y-66130000I0J225000D01*
G01*
G37*
%TD.AperFunction*%
%TO.P,C8,1*%
%TO.N,GND*%
%TA.AperFunction,SMDPad,CuDef*%
G36*
G01*
X147945000Y-66130000D02*
X147945000Y-65630000D01*
G75*
G02*
X148170000Y-65405000I225000J0D01*
G01*
X148620000Y-65405000D01*
G75*
G02*
X148845000Y-65630000I0J-225000D01*
G01*
X148845000Y-66130000D01*
G75*
G02*
X148620000Y-66355000I-225000J0D01*
G01*
X148170000Y-66355000D01*
G75*
G02*
X147945000Y-66130000I0J225000D01*
G01*
G37*
%TD.AperFunction*%
%TD*%
%TO.P,C7,1*%
%TO.N,GND*%
%TA.AperFunction,SMDPad,CuDef*%
G36*
G01*
X141715000Y-64130000D02*
X141715000Y-63630000D01*
G75*
G02*
X141940000Y-63405000I225000J0D01*
G01*
X142390000Y-63405000D01*
G75*
G02*
X142615000Y-63630000I0J-225000D01*
G01*
X142615000Y-64130000D01*
G75*
G02*
X142390000Y-64355000I-225000J0D01*
G01*
X141940000Y-64355000D01*
G75*
G02*
X141715000Y-64130000I0J225000D01*
G01*
G37*
%TD.AperFunction*%
%TO.P,C7,2*%
%TO.N,+3V3*%
%TA.AperFunction,SMDPad,CuDef*%
G36*
G01*
X143265000Y-64130000D02*
X143265000Y-63630000D01*
G75*
G02*
X143490000Y-63405000I225000J0D01*
G01*
X143940000Y-63405000D01*
G75*
G02*
X144165000Y-63630000I0J-225000D01*
G01*
X144165000Y-64130000D01*
G75*
G02*
X143940000Y-64355000I-225000J0D01*
G01*
X143490000Y-64355000D01*
G75*
G02*
X143265000Y-64130000I0J225000D01*
G01*
G37*
%TD.AperFunction*%
%TD*%
%TO.P,C3,2*%
%TO.N,GND*%
%TA.AperFunction,SMDPad,CuDef*%
G36*
G01*
X126565000Y-57935000D02*
X126565000Y-56685000D01*
G75*
G02*
X126815000Y-56435000I250000J0D01*
G01*
X127565000Y-56435000D01*
G75*
G02*
X127815000Y-56685000I0J-250000D01*
G01*
X127815000Y-57935000D01*
G75*
G02*
X127565000Y-58185000I-250000J0D01*
G01*
X126815000Y-58185000D01*
G75*
G02*
X126565000Y-57935000I0J250000D01*
G01*
G37*
%TD.AperFunction*%
%TO.P,C3,1*%
%TO.N,+5V*%
%TA.AperFunction,SMDPad,CuDef*%
G36*
G01*
X123765000Y-57935000D02*
X123765000Y-56685000D01*
G75*
G02*
X124015000Y-56435000I250000J0D01*
G01*
X124765000Y-56435000D01*
G75*
G02*
X125015000Y-56685000I0J-250000D01*
G01*
X125015000Y-57935000D01*
G75*
G02*
X124765000Y-58185000I-250000J0D01*
G01*
X124015000Y-58185000D01*
G75*
G02*
X123765000Y-57935000I0J250000D01*
G01*
G37*
%TD.AperFunction*%
%TD*%
%TO.P,C4,2*%
%TO.N,GND*%
%TA.AperFunction,SMDPad,CuDef*%
G36*
G01*
X124965000Y-50815000D02*
X124965000Y-52065000D01*
G75*
G02*
X124715000Y-52315000I-250000J0D01*
G01*
X123965000Y-52315000D01*
G75*
G02*
X123715000Y-52065000I0J250000D01*
G01*
X123715000Y-50815000D01*
G75*
G02*
X123965000Y-50565000I250000J0D01*
G01*
X124715000Y-50565000D01*
G75*
G02*
X124965000Y-50815000I0J-250000D01*
G01*
G37*
%TD.AperFunction*%
%TO.P,C4,1*%
%TO.N,+3V3*%
%TA.AperFunction,SMDPad,CuDef*%
G36*
G01*
X127765000Y-50815000D02*
X127765000Y-52065000D01*
G75*
G02*
X127515000Y-52315000I-250000J0D01*
G01*
X126765000Y-52315000D01*
G75*
G02*
X126515000Y-52065000I0J250000D01*
G01*
X126515000Y-50815000D01*
G75*
G02*
X126765000Y-50565000I250000J0D01*
G01*
X127515000Y-50565000D01*
G75*
G02*
X127765000Y-50815000I0J-250000D01*
G01*
G37*
%TD.AperFunction*%
%TD*%
%TO.P,R1,2*%
%TO.N,Net-(J1-PadA5)*%
%TA.AperFunction,SMDPad,CuDef*%
G36*
G01*
X142465000Y-47065000D02*
X141915000Y-47065000D01*
G75*
G02*
X141715000Y-46865000I0J200000D01*
G01*
X141715000Y-46465000D01*
G75*
G02*
X141915000Y-46265000I200000J0D01*
G01*
X142465000Y-46265000D01*
G75*
G02*
X142665000Y-46465000I0J-200000D01*
G01*
X142665000Y-46865000D01*
G75*
G02*
X142465000Y-47065000I-200000J0D01*
G01*
G37*
%TD.AperFunction*%
%TO.P,R1,1*%
%TO.N,GND*%
%TA.AperFunction,SMDPad,CuDef*%
G36*
G01*
X142465000Y-48715000D02*
X141915000Y-48715000D01*
G75*
G02*
X141715000Y-48515000I0J200000D01*
G01*
X141715000Y-48115000D01*
G75*
G02*
X141915000Y-47915000I200000J0D01*
G01*
X142465000Y-47915000D01*
G75*
G02*
X142665000Y-48115000I0J-200000D01*
G01*
X142665000Y-48515000D01*
G75*
G02*
X142465000Y-48715000I-200000J0D01*
G01*
G37*
%TD.AperFunction*%
%TD*%
%TO.P,R4,1*%
%TO.N,Net-(R3-Pad2)*%
%TA.AperFunction,SMDPad,CuDef*%
G36*
G01*
X128135000Y-66495000D02*
X128685000Y-66495000D01*
G75*
G02*
X128885000Y-66695000I0J-200000D01*
G01*
X128885000Y-67095000D01*
G75*
G02*
X128685000Y-67295000I-200000J0D01*
G01*
X128135000Y-67295000D01*
G75*
G02*
X127935000Y-67095000I0J200000D01*
G01*
X127935000Y-66695000D01*
G75*
G02*
X128135000Y-66495000I200000J0D01*
G01*
G37*
%TD.AperFunction*%
%TO.P,R4,2*%
%TO.N,GND*%
%TA.AperFunction,SMDPad,CuDef*%
G36*
G01*
X128135000Y-68145000D02*
X128685000Y-68145000D01*
G75*
G02*
X128885000Y-68345000I0J-200000D01*
G01*
X128885000Y-68745000D01*
G75*
G02*
X128685000Y-68945000I-200000J0D01*
G01*
X128135000Y-68945000D01*
G75*
G02*
X127935000Y-68745000I0J200000D01*
G01*
X127935000Y-68345000D01*
G75*
G02*
X128135000Y-68145000I200000J0D01*
G01*
G37*
%TD.AperFunction*%
%TD*%
D14*
%TO.P,J3,1*%
%TO.N,uart3_tx*%
X122540000Y-76070000D03*
D15*
%TO.P,J3,2*%
%TO.N,N/C*%
X125080000Y-76070000D03*
%TO.P,J3,3*%
%TO.N,vcc_tng9x*%
X127620000Y-76070000D03*
%TO.P,J3,4*%
%TO.N,GND*%
X130160000Y-76070000D03*
%TO.P,J3,5*%
%TO.N,uart3_rx*%
X132700000Y-76070000D03*
%TD*%
%TO.P,R5,2*%
%TO.N,Net-(D3-Pad3)*%
%TA.AperFunction,SMDPad,CuDef*%
G36*
G01*
X139315000Y-71815000D02*
X139315000Y-72365000D01*
G75*
G02*
X139115000Y-72565000I-200000J0D01*
G01*
X138715000Y-72565000D01*
G75*
G02*
X138515000Y-72365000I0J200000D01*
G01*
X138515000Y-71815000D01*
G75*
G02*
X138715000Y-71615000I200000J0D01*
G01*
X139115000Y-71615000D01*
G75*
G02*
X139315000Y-71815000I0J-200000D01*
G01*
G37*
%TD.AperFunction*%
%TO.P,R5,1*%
%TO.N,hmi_error1*%
%TA.AperFunction,SMDPad,CuDef*%
G36*
G01*
X140965000Y-71815000D02*
X140965000Y-72365000D01*
G75*
G02*
X140765000Y-72565000I-200000J0D01*
G01*
X140365000Y-72565000D01*
G75*
G02*
X140165000Y-72365000I0J200000D01*
G01*
X140165000Y-71815000D01*
G75*
G02*
X140365000Y-71615000I200000J0D01*
G01*
X140765000Y-71615000D01*
G75*
G02*
X140965000Y-71815000I0J-200000D01*
G01*
G37*
%TD.AperFunction*%
%TD*%
%TO.P,R6,1*%
%TO.N,hmi_status1*%
%TA.AperFunction,SMDPad,CuDef*%
G36*
G01*
X141945000Y-72355000D02*
X141945000Y-71805000D01*
G75*
G02*
X142145000Y-71605000I200000J0D01*
G01*
X142545000Y-71605000D01*
G75*
G02*
X142745000Y-71805000I0J-200000D01*
G01*
X142745000Y-72355000D01*
G75*
G02*
X142545000Y-72555000I-200000J0D01*
G01*
X142145000Y-72555000D01*
G75*
G02*
X141945000Y-72355000I0J200000D01*
G01*
G37*
%TD.AperFunction*%
%TO.P,R6,2*%
%TO.N,Net-(D3-Pad1)*%
%TA.AperFunction,SMDPad,CuDef*%
G36*
G01*
X143595000Y-72355000D02*
X143595000Y-71805000D01*
G75*
G02*
X143795000Y-71605000I200000J0D01*
G01*
X144195000Y-71605000D01*
G75*
G02*
X144395000Y-71805000I0J-200000D01*
G01*
X144395000Y-72355000D01*
G75*
G02*
X144195000Y-72555000I-200000J0D01*
G01*
X143795000Y-72555000D01*
G75*
G02*
X143595000Y-72355000I0J200000D01*
G01*
G37*
%TD.AperFunction*%
%TD*%
%TO.P,U3,1*%
%TO.N,+3V3*%
%TA.AperFunction,SMDPad,CuDef*%
G36*
G01*
X145500000Y-64900000D02*
X145350000Y-64900000D01*
G75*
G02*
X145275000Y-64825000I0J75000D01*
G01*
X145275000Y-63500000D01*
G75*
G02*
X145350000Y-63425000I75000J0D01*
G01*
X145500000Y-63425000D01*
G75*
G02*
X145575000Y-63500000I0J-75000D01*
G01*
X145575000Y-64825000D01*
G75*
G02*
X145500000Y-64900000I-75000J0D01*
G01*
G37*
%TD.AperFunction*%
%TO.P,U3,2*%
%TO.N,N/C*%
%TA.AperFunction,SMDPad,CuDef*%
G36*
G01*
X146000000Y-64900000D02*
X145850000Y-64900000D01*
G75*
G02*
X145775000Y-64825000I0J75000D01*
G01*
X145775000Y-63500000D01*
G75*
G02*
X145850000Y-63425000I75000J0D01*
G01*
X146000000Y-63425000D01*
G75*
G02*
X146075000Y-63500000I0J-75000D01*
G01*
X146075000Y-64825000D01*
G75*
G02*
X146000000Y-64900000I-75000J0D01*
G01*
G37*
%TD.AperFunction*%
%TO.P,U3,3*%
%TO.N,hmi_error2*%
%TA.AperFunction,SMDPad,CuDef*%
G36*
G01*
X146500000Y-64900000D02*
X146350000Y-64900000D01*
G75*
G02*
X146275000Y-64825000I0J75000D01*
G01*
X146275000Y-63500000D01*
G75*
G02*
X146350000Y-63425000I75000J0D01*
G01*
X146500000Y-63425000D01*
G75*
G02*
X146575000Y-63500000I0J-75000D01*
G01*
X146575000Y-64825000D01*
G75*
G02*
X146500000Y-64900000I-75000J0D01*
G01*
G37*
%TD.AperFunction*%
%TO.P,U3,4*%
%TO.N,hmi_status2*%
%TA.AperFunction,SMDPad,CuDef*%
G36*
G01*
X147000000Y-64900000D02*
X146850000Y-64900000D01*
G75*
G02*
X146775000Y-64825000I0J75000D01*
G01*
X146775000Y-63500000D01*
G75*
G02*
X146850000Y-63425000I75000J0D01*
G01*
X147000000Y-63425000D01*
G75*
G02*
X147075000Y-63500000I0J-75000D01*
G01*
X147075000Y-64825000D01*
G75*
G02*
X147000000Y-64900000I-75000J0D01*
G01*
G37*
%TD.AperFunction*%
%TO.P,U3,5*%
%TO.N,N/C*%
%TA.AperFunction,SMDPad,CuDef*%
G36*
G01*
X147500000Y-64900000D02*
X147350000Y-64900000D01*
G75*
G02*
X147275000Y-64825000I0J75000D01*
G01*
X147275000Y-63500000D01*
G75*
G02*
X147350000Y-63425000I75000J0D01*
G01*
X147500000Y-63425000D01*
G75*
G02*
X147575000Y-63500000I0J-75000D01*
G01*
X147575000Y-64825000D01*
G75*
G02*
X147500000Y-64900000I-75000J0D01*
G01*
G37*
%TD.AperFunction*%
%TO.P,U3,6*%
%TA.AperFunction,SMDPad,CuDef*%
G36*
G01*
X148000000Y-64900000D02*
X147850000Y-64900000D01*
G75*
G02*
X147775000Y-64825000I0J75000D01*
G01*
X147775000Y-63500000D01*
G75*
G02*
X147850000Y-63425000I75000J0D01*
G01*
X148000000Y-63425000D01*
G75*
G02*
X148075000Y-63500000I0J-75000D01*
G01*
X148075000Y-64825000D01*
G75*
G02*
X148000000Y-64900000I-75000J0D01*
G01*
G37*
%TD.AperFunction*%
%TO.P,U3,7*%
%TO.N,Net-(C5-Pad1)*%
%TA.AperFunction,SMDPad,CuDef*%
G36*
G01*
X148500000Y-64900000D02*
X148350000Y-64900000D01*
G75*
G02*
X148275000Y-64825000I0J75000D01*
G01*
X148275000Y-63500000D01*
G75*
G02*
X148350000Y-63425000I75000J0D01*
G01*
X148500000Y-63425000D01*
G75*
G02*
X148575000Y-63500000I0J-75000D01*
G01*
X148575000Y-64825000D01*
G75*
G02*
X148500000Y-64900000I-75000J0D01*
G01*
G37*
%TD.AperFunction*%
%TO.P,U3,8*%
%TO.N,GND*%
%TA.AperFunction,SMDPad,CuDef*%
G36*
G01*
X149000000Y-64900000D02*
X148850000Y-64900000D01*
G75*
G02*
X148775000Y-64825000I0J75000D01*
G01*
X148775000Y-63500000D01*
G75*
G02*
X148850000Y-63425000I75000J0D01*
G01*
X149000000Y-63425000D01*
G75*
G02*
X149075000Y-63500000I0J-75000D01*
G01*
X149075000Y-64825000D01*
G75*
G02*
X149000000Y-64900000I-75000J0D01*
G01*
G37*
%TD.AperFunction*%
%TO.P,U3,9*%
%TO.N,+3V3*%
%TA.AperFunction,SMDPad,CuDef*%
G36*
G01*
X149500000Y-64900000D02*
X149350000Y-64900000D01*
G75*
G02*
X149275000Y-64825000I0J75000D01*
G01*
X149275000Y-63500000D01*
G75*
G02*
X149350000Y-63425000I75000J0D01*
G01*
X149500000Y-63425000D01*
G75*
G02*
X149575000Y-63500000I0J-75000D01*
G01*
X149575000Y-64825000D01*
G75*
G02*
X149500000Y-64900000I-75000J0D01*
G01*
G37*
%TD.AperFunction*%
%TO.P,U3,10*%
%TO.N,N/C*%
%TA.AperFunction,SMDPad,CuDef*%
G36*
G01*
X150000000Y-64900000D02*
X149850000Y-64900000D01*
G75*
G02*
X149775000Y-64825000I0J75000D01*
G01*
X149775000Y-63500000D01*
G75*
G02*
X149850000Y-63425000I75000J0D01*
G01*
X150000000Y-63425000D01*
G75*
G02*
X150075000Y-63500000I0J-75000D01*
G01*
X150075000Y-64825000D01*
G75*
G02*
X150000000Y-64900000I-75000J0D01*
G01*
G37*
%TD.AperFunction*%
%TO.P,U3,11*%
%TA.AperFunction,SMDPad,CuDef*%
G36*
G01*
X150500000Y-64900000D02*
X150350000Y-64900000D01*
G75*
G02*
X150275000Y-64825000I0J75000D01*
G01*
X150275000Y-63500000D01*
G75*
G02*
X150350000Y-63425000I75000J0D01*
G01*
X150500000Y-63425000D01*
G75*
G02*
X150575000Y-63500000I0J-75000D01*
G01*
X150575000Y-64825000D01*
G75*
G02*
X150500000Y-64900000I-75000J0D01*
G01*
G37*
%TD.AperFunction*%
%TO.P,U3,12*%
%TO.N,e22_dio1*%
%TA.AperFunction,SMDPad,CuDef*%
G36*
G01*
X151000000Y-64900000D02*
X150850000Y-64900000D01*
G75*
G02*
X150775000Y-64825000I0J75000D01*
G01*
X150775000Y-63500000D01*
G75*
G02*
X150850000Y-63425000I75000J0D01*
G01*
X151000000Y-63425000D01*
G75*
G02*
X151075000Y-63500000I0J-75000D01*
G01*
X151075000Y-64825000D01*
G75*
G02*
X151000000Y-64900000I-75000J0D01*
G01*
G37*
%TD.AperFunction*%
%TO.P,U3,13*%
%TO.N,e22_busy*%
%TA.AperFunction,SMDPad,CuDef*%
G36*
G01*
X153000000Y-62900000D02*
X151675000Y-62900000D01*
G75*
G02*
X151600000Y-62825000I0J75000D01*
G01*
X151600000Y-62675000D01*
G75*
G02*
X151675000Y-62600000I75000J0D01*
G01*
X153000000Y-62600000D01*
G75*
G02*
X153075000Y-62675000I0J-75000D01*
G01*
X153075000Y-62825000D01*
G75*
G02*
X153000000Y-62900000I-75000J0D01*
G01*
G37*
%TD.AperFunction*%
%TO.P,U3,14*%
%TO.N,e22_nrst*%
%TA.AperFunction,SMDPad,CuDef*%
G36*
G01*
X153000000Y-62400000D02*
X151675000Y-62400000D01*
G75*
G02*
X151600000Y-62325000I0J75000D01*
G01*
X151600000Y-62175000D01*
G75*
G02*
X151675000Y-62100000I75000J0D01*
G01*
X153000000Y-62100000D01*
G75*
G02*
X153075000Y-62175000I0J-75000D01*
G01*
X153075000Y-62325000D01*
G75*
G02*
X153000000Y-62400000I-75000J0D01*
G01*
G37*
%TD.AperFunction*%
%TO.P,U3,15*%
%TO.N,spi1_sck*%
%TA.AperFunction,SMDPad,CuDef*%
G36*
G01*
X153000000Y-61900000D02*
X151675000Y-61900000D01*
G75*
G02*
X151600000Y-61825000I0J75000D01*
G01*
X151600000Y-61675000D01*
G75*
G02*
X151675000Y-61600000I75000J0D01*
G01*
X153000000Y-61600000D01*
G75*
G02*
X153075000Y-61675000I0J-75000D01*
G01*
X153075000Y-61825000D01*
G75*
G02*
X153000000Y-61900000I-75000J0D01*
G01*
G37*
%TD.AperFunction*%
%TO.P,U3,16*%
%TO.N,spi1_miso*%
%TA.AperFunction,SMDPad,CuDef*%
G36*
G01*
X153000000Y-61400000D02*
X151675000Y-61400000D01*
G75*
G02*
X151600000Y-61325000I0J75000D01*
G01*
X151600000Y-61175000D01*
G75*
G02*
X151675000Y-61100000I75000J0D01*
G01*
X153000000Y-61100000D01*
G75*
G02*
X153075000Y-61175000I0J-75000D01*
G01*
X153075000Y-61325000D01*
G75*
G02*
X153000000Y-61400000I-75000J0D01*
G01*
G37*
%TD.AperFunction*%
%TO.P,U3,17*%
%TO.N,spi1_mosi*%
%TA.AperFunction,SMDPad,CuDef*%
G36*
G01*
X153000000Y-60900000D02*
X151675000Y-60900000D01*
G75*
G02*
X151600000Y-60825000I0J75000D01*
G01*
X151600000Y-60675000D01*
G75*
G02*
X151675000Y-60600000I75000J0D01*
G01*
X153000000Y-60600000D01*
G75*
G02*
X153075000Y-60675000I0J-75000D01*
G01*
X153075000Y-60825000D01*
G75*
G02*
X153000000Y-60900000I-75000J0D01*
G01*
G37*
%TD.AperFunction*%
%TO.P,U3,18*%
%TO.N,e22_dio2*%
%TA.AperFunction,SMDPad,CuDef*%
G36*
G01*
X153000000Y-60400000D02*
X151675000Y-60400000D01*
G75*
G02*
X151600000Y-60325000I0J75000D01*
G01*
X151600000Y-60175000D01*
G75*
G02*
X151675000Y-60100000I75000J0D01*
G01*
X153000000Y-60100000D01*
G75*
G02*
X153075000Y-60175000I0J-75000D01*
G01*
X153075000Y-60325000D01*
G75*
G02*
X153000000Y-60400000I-75000J0D01*
G01*
G37*
%TD.AperFunction*%
%TO.P,U3,19*%
%TO.N,e22_txen*%
%TA.AperFunction,SMDPad,CuDef*%
G36*
G01*
X153000000Y-59900000D02*
X151675000Y-59900000D01*
G75*
G02*
X151600000Y-59825000I0J75000D01*
G01*
X151600000Y-59675000D01*
G75*
G02*
X151675000Y-59600000I75000J0D01*
G01*
X153000000Y-59600000D01*
G75*
G02*
X153075000Y-59675000I0J-75000D01*
G01*
X153075000Y-59825000D01*
G75*
G02*
X153000000Y-59900000I-75000J0D01*
G01*
G37*
%TD.AperFunction*%
%TO.P,U3,20*%
%TO.N,e22_rxen*%
%TA.AperFunction,SMDPad,CuDef*%
G36*
G01*
X153000000Y-59400000D02*
X151675000Y-59400000D01*
G75*
G02*
X151600000Y-59325000I0J75000D01*
G01*
X151600000Y-59175000D01*
G75*
G02*
X151675000Y-59100000I75000J0D01*
G01*
X153000000Y-59100000D01*
G75*
G02*
X153075000Y-59175000I0J-75000D01*
G01*
X153075000Y-59325000D01*
G75*
G02*
X153000000Y-59400000I-75000J0D01*
G01*
G37*
%TD.AperFunction*%
%TO.P,U3,21*%
%TO.N,uart3_tx*%
%TA.AperFunction,SMDPad,CuDef*%
G36*
G01*
X153000000Y-58900000D02*
X151675000Y-58900000D01*
G75*
G02*
X151600000Y-58825000I0J75000D01*
G01*
X151600000Y-58675000D01*
G75*
G02*
X151675000Y-58600000I75000J0D01*
G01*
X153000000Y-58600000D01*
G75*
G02*
X153075000Y-58675000I0J-75000D01*
G01*
X153075000Y-58825000D01*
G75*
G02*
X153000000Y-58900000I-75000J0D01*
G01*
G37*
%TD.AperFunction*%
%TO.P,U3,22*%
%TO.N,uart3_rx*%
%TA.AperFunction,SMDPad,CuDef*%
G36*
G01*
X153000000Y-58400000D02*
X151675000Y-58400000D01*
G75*
G02*
X151600000Y-58325000I0J75000D01*
G01*
X151600000Y-58175000D01*
G75*
G02*
X151675000Y-58100000I75000J0D01*
G01*
X153000000Y-58100000D01*
G75*
G02*
X153075000Y-58175000I0J-75000D01*
G01*
X153075000Y-58325000D01*
G75*
G02*
X153000000Y-58400000I-75000J0D01*
G01*
G37*
%TD.AperFunction*%
%TO.P,U3,23*%
%TO.N,GND*%
%TA.AperFunction,SMDPad,CuDef*%
G36*
G01*
X153000000Y-57900000D02*
X151675000Y-57900000D01*
G75*
G02*
X151600000Y-57825000I0J75000D01*
G01*
X151600000Y-57675000D01*
G75*
G02*
X151675000Y-57600000I75000J0D01*
G01*
X153000000Y-57600000D01*
G75*
G02*
X153075000Y-57675000I0J-75000D01*
G01*
X153075000Y-57825000D01*
G75*
G02*
X153000000Y-57900000I-75000J0D01*
G01*
G37*
%TD.AperFunction*%
%TO.P,U3,24*%
%TO.N,+3V3*%
%TA.AperFunction,SMDPad,CuDef*%
G36*
G01*
X153000000Y-57400000D02*
X151675000Y-57400000D01*
G75*
G02*
X151600000Y-57325000I0J75000D01*
G01*
X151600000Y-57175000D01*
G75*
G02*
X151675000Y-57100000I75000J0D01*
G01*
X153000000Y-57100000D01*
G75*
G02*
X153075000Y-57175000I0J-75000D01*
G01*
X153075000Y-57325000D01*
G75*
G02*
X153000000Y-57400000I-75000J0D01*
G01*
G37*
%TD.AperFunction*%
%TO.P,U3,25*%
%TO.N,e22_nss*%
%TA.AperFunction,SMDPad,CuDef*%
G36*
G01*
X151000000Y-56575000D02*
X150850000Y-56575000D01*
G75*
G02*
X150775000Y-56500000I0J75000D01*
G01*
X150775000Y-55175000D01*
G75*
G02*
X150850000Y-55100000I75000J0D01*
G01*
X151000000Y-55100000D01*
G75*
G02*
X151075000Y-55175000I0J-75000D01*
G01*
X151075000Y-56500000D01*
G75*
G02*
X151000000Y-56575000I-75000J0D01*
G01*
G37*
%TD.AperFunction*%
%TO.P,U3,26*%
%TO.N,N/C*%
%TA.AperFunction,SMDPad,CuDef*%
G36*
G01*
X150500000Y-56575000D02*
X150350000Y-56575000D01*
G75*
G02*
X150275000Y-56500000I0J75000D01*
G01*
X150275000Y-55175000D01*
G75*
G02*
X150350000Y-55100000I75000J0D01*
G01*
X150500000Y-55100000D01*
G75*
G02*
X150575000Y-55175000I0J-75000D01*
G01*
X150575000Y-56500000D01*
G75*
G02*
X150500000Y-56575000I-75000J0D01*
G01*
G37*
%TD.AperFunction*%
%TO.P,U3,27*%
%TA.AperFunction,SMDPad,CuDef*%
G36*
G01*
X150000000Y-56575000D02*
X149850000Y-56575000D01*
G75*
G02*
X149775000Y-56500000I0J75000D01*
G01*
X149775000Y-55175000D01*
G75*
G02*
X149850000Y-55100000I75000J0D01*
G01*
X150000000Y-55100000D01*
G75*
G02*
X150075000Y-55175000I0J-75000D01*
G01*
X150075000Y-56500000D01*
G75*
G02*
X150000000Y-56575000I-75000J0D01*
G01*
G37*
%TD.AperFunction*%
%TO.P,U3,28*%
%TA.AperFunction,SMDPad,CuDef*%
G36*
G01*
X149500000Y-56575000D02*
X149350000Y-56575000D01*
G75*
G02*
X149275000Y-56500000I0J75000D01*
G01*
X149275000Y-55175000D01*
G75*
G02*
X149350000Y-55100000I75000J0D01*
G01*
X149500000Y-55100000D01*
G75*
G02*
X149575000Y-55175000I0J-75000D01*
G01*
X149575000Y-56500000D01*
G75*
G02*
X149500000Y-56575000I-75000J0D01*
G01*
G37*
%TD.AperFunction*%
%TO.P,U3,29*%
%TA.AperFunction,SMDPad,CuDef*%
G36*
G01*
X149000000Y-56575000D02*
X148850000Y-56575000D01*
G75*
G02*
X148775000Y-56500000I0J75000D01*
G01*
X148775000Y-55175000D01*
G75*
G02*
X148850000Y-55100000I75000J0D01*
G01*
X149000000Y-55100000D01*
G75*
G02*
X149075000Y-55175000I0J-75000D01*
G01*
X149075000Y-56500000D01*
G75*
G02*
X149000000Y-56575000I-75000J0D01*
G01*
G37*
%TD.AperFunction*%
%TO.P,U3,30*%
%TO.N,uart1_tx*%
%TA.AperFunction,SMDPad,CuDef*%
G36*
G01*
X148500000Y-56575000D02*
X148350000Y-56575000D01*
G75*
G02*
X148275000Y-56500000I0J75000D01*
G01*
X148275000Y-55175000D01*
G75*
G02*
X148350000Y-55100000I75000J0D01*
G01*
X148500000Y-55100000D01*
G75*
G02*
X148575000Y-55175000I0J-75000D01*
G01*
X148575000Y-56500000D01*
G75*
G02*
X148500000Y-56575000I-75000J0D01*
G01*
G37*
%TD.AperFunction*%
%TO.P,U3,31*%
%TO.N,uart1_rx*%
%TA.AperFunction,SMDPad,CuDef*%
G36*
G01*
X148000000Y-56575000D02*
X147850000Y-56575000D01*
G75*
G02*
X147775000Y-56500000I0J75000D01*
G01*
X147775000Y-55175000D01*
G75*
G02*
X147850000Y-55100000I75000J0D01*
G01*
X148000000Y-55100000D01*
G75*
G02*
X148075000Y-55175000I0J-75000D01*
G01*
X148075000Y-56500000D01*
G75*
G02*
X148000000Y-56575000I-75000J0D01*
G01*
G37*
%TD.AperFunction*%
%TO.P,U3,32*%
%TO.N,usb_N*%
%TA.AperFunction,SMDPad,CuDef*%
G36*
G01*
X147500000Y-56575000D02*
X147350000Y-56575000D01*
G75*
G02*
X147275000Y-56500000I0J75000D01*
G01*
X147275000Y-55175000D01*
G75*
G02*
X147350000Y-55100000I75000J0D01*
G01*
X147500000Y-55100000D01*
G75*
G02*
X147575000Y-55175000I0J-75000D01*
G01*
X147575000Y-56500000D01*
G75*
G02*
X147500000Y-56575000I-75000J0D01*
G01*
G37*
%TD.AperFunction*%
%TO.P,U3,33*%
%TO.N,usb_P*%
%TA.AperFunction,SMDPad,CuDef*%
G36*
G01*
X147000000Y-56575000D02*
X146850000Y-56575000D01*
G75*
G02*
X146775000Y-56500000I0J75000D01*
G01*
X146775000Y-55175000D01*
G75*
G02*
X146850000Y-55100000I75000J0D01*
G01*
X147000000Y-55100000D01*
G75*
G02*
X147075000Y-55175000I0J-75000D01*
G01*
X147075000Y-56500000D01*
G75*
G02*
X147000000Y-56575000I-75000J0D01*
G01*
G37*
%TD.AperFunction*%
%TO.P,U3,34*%
%TO.N,swdio*%
%TA.AperFunction,SMDPad,CuDef*%
G36*
G01*
X146500000Y-56575000D02*
X146350000Y-56575000D01*
G75*
G02*
X146275000Y-56500000I0J75000D01*
G01*
X146275000Y-55175000D01*
G75*
G02*
X146350000Y-55100000I75000J0D01*
G01*
X146500000Y-55100000D01*
G75*
G02*
X146575000Y-55175000I0J-75000D01*
G01*
X146575000Y-56500000D01*
G75*
G02*
X146500000Y-56575000I-75000J0D01*
G01*
G37*
%TD.AperFunction*%
%TO.P,U3,35*%
%TO.N,GND*%
%TA.AperFunction,SMDPad,CuDef*%
G36*
G01*
X146000000Y-56575000D02*
X145850000Y-56575000D01*
G75*
G02*
X145775000Y-56500000I0J75000D01*
G01*
X145775000Y-55175000D01*
G75*
G02*
X145850000Y-55100000I75000J0D01*
G01*
X146000000Y-55100000D01*
G75*
G02*
X146075000Y-55175000I0J-75000D01*
G01*
X146075000Y-56500000D01*
G75*
G02*
X146000000Y-56575000I-75000J0D01*
G01*
G37*
%TD.AperFunction*%
%TO.P,U3,36*%
%TO.N,+3V3*%
%TA.AperFunction,SMDPad,CuDef*%
G36*
G01*
X145500000Y-56575000D02*
X145350000Y-56575000D01*
G75*
G02*
X145275000Y-56500000I0J75000D01*
G01*
X145275000Y-55175000D01*
G75*
G02*
X145350000Y-55100000I75000J0D01*
G01*
X145500000Y-55100000D01*
G75*
G02*
X145575000Y-55175000I0J-75000D01*
G01*
X145575000Y-56500000D01*
G75*
G02*
X145500000Y-56575000I-75000J0D01*
G01*
G37*
%TD.AperFunction*%
%TO.P,U3,37*%
%TO.N,swclk*%
%TA.AperFunction,SMDPad,CuDef*%
G36*
G01*
X144675000Y-57400000D02*
X143350000Y-57400000D01*
G75*
G02*
X143275000Y-57325000I0J75000D01*
G01*
X143275000Y-57175000D01*
G75*
G02*
X143350000Y-57100000I75000J0D01*
G01*
X144675000Y-57100000D01*
G75*
G02*
X144750000Y-57175000I0J-75000D01*
G01*
X144750000Y-57325000D01*
G75*
G02*
X144675000Y-57400000I-75000J0D01*
G01*
G37*
%TD.AperFunction*%
%TO.P,U3,38*%
%TO.N,swdio*%
%TA.AperFunction,SMDPad,CuDef*%
G36*
G01*
X144675000Y-57900000D02*
X143350000Y-57900000D01*
G75*
G02*
X143275000Y-57825000I0J75000D01*
G01*
X143275000Y-57675000D01*
G75*
G02*
X143350000Y-57600000I75000J0D01*
G01*
X144675000Y-57600000D01*
G75*
G02*
X144750000Y-57675000I0J-75000D01*
G01*
X144750000Y-57825000D01*
G75*
G02*
X144675000Y-57900000I-75000J0D01*
G01*
G37*
%TD.AperFunction*%
%TO.P,U3,39*%
%TO.N,N/C*%
%TA.AperFunction,SMDPad,CuDef*%
G36*
G01*
X144675000Y-58400000D02*
X143350000Y-58400000D01*
G75*
G02*
X143275000Y-58325000I0J75000D01*
G01*
X143275000Y-58175000D01*
G75*
G02*
X143350000Y-58100000I75000J0D01*
G01*
X144675000Y-58100000D01*
G75*
G02*
X144750000Y-58175000I0J-75000D01*
G01*
X144750000Y-58325000D01*
G75*
G02*
X144675000Y-58400000I-75000J0D01*
G01*
G37*
%TD.AperFunction*%
%TO.P,U3,40*%
%TA.AperFunction,SMDPad,CuDef*%
G36*
G01*
X144675000Y-58900000D02*
X143350000Y-58900000D01*
G75*
G02*
X143275000Y-58825000I0J75000D01*
G01*
X143275000Y-58675000D01*
G75*
G02*
X143350000Y-58600000I75000J0D01*
G01*
X144675000Y-58600000D01*
G75*
G02*
X144750000Y-58675000I0J-75000D01*
G01*
X144750000Y-58825000D01*
G75*
G02*
X144675000Y-58900000I-75000J0D01*
G01*
G37*
%TD.AperFunction*%
%TO.P,U3,41*%
%TA.AperFunction,SMDPad,CuDef*%
G36*
G01*
X144675000Y-59400000D02*
X143350000Y-59400000D01*
G75*
G02*
X143275000Y-59325000I0J75000D01*
G01*
X143275000Y-59175000D01*
G75*
G02*
X143350000Y-59100000I75000J0D01*
G01*
X144675000Y-59100000D01*
G75*
G02*
X144750000Y-59175000I0J-75000D01*
G01*
X144750000Y-59325000D01*
G75*
G02*
X144675000Y-59400000I-75000J0D01*
G01*
G37*
%TD.AperFunction*%
%TO.P,U3,42*%
%TA.AperFunction,SMDPad,CuDef*%
G36*
G01*
X144675000Y-59900000D02*
X143350000Y-59900000D01*
G75*
G02*
X143275000Y-59825000I0J75000D01*
G01*
X143275000Y-59675000D01*
G75*
G02*
X143350000Y-59600000I75000J0D01*
G01*
X144675000Y-59600000D01*
G75*
G02*
X144750000Y-59675000I0J-75000D01*
G01*
X144750000Y-59825000D01*
G75*
G02*
X144675000Y-59900000I-75000J0D01*
G01*
G37*
%TD.AperFunction*%
%TO.P,U3,43*%
%TA.AperFunction,SMDPad,CuDef*%
G36*
G01*
X144675000Y-60400000D02*
X143350000Y-60400000D01*
G75*
G02*
X143275000Y-60325000I0J75000D01*
G01*
X143275000Y-60175000D01*
G75*
G02*
X143350000Y-60100000I75000J0D01*
G01*
X144675000Y-60100000D01*
G75*
G02*
X144750000Y-60175000I0J-75000D01*
G01*
X144750000Y-60325000D01*
G75*
G02*
X144675000Y-60400000I-75000J0D01*
G01*
G37*
%TD.AperFunction*%
%TO.P,U3,44*%
%TO.N,Net-(R7-Pad1)*%
%TA.AperFunction,SMDPad,CuDef*%
G36*
G01*
X144675000Y-60900000D02*
X143350000Y-60900000D01*
G75*
G02*
X143275000Y-60825000I0J75000D01*
G01*
X143275000Y-60675000D01*
G75*
G02*
X143350000Y-60600000I75000J0D01*
G01*
X144675000Y-60600000D01*
G75*
G02*
X144750000Y-60675000I0J-75000D01*
G01*
X144750000Y-60825000D01*
G75*
G02*
X144675000Y-60900000I-75000J0D01*
G01*
G37*
%TD.AperFunction*%
%TO.P,U3,45*%
%TO.N,hmi_error1*%
%TA.AperFunction,SMDPad,CuDef*%
G36*
G01*
X144675000Y-61400000D02*
X143350000Y-61400000D01*
G75*
G02*
X143275000Y-61325000I0J75000D01*
G01*
X143275000Y-61175000D01*
G75*
G02*
X143350000Y-61100000I75000J0D01*
G01*
X144675000Y-61100000D01*
G75*
G02*
X144750000Y-61175000I0J-75000D01*
G01*
X144750000Y-61325000D01*
G75*
G02*
X144675000Y-61400000I-75000J0D01*
G01*
G37*
%TD.AperFunction*%
%TO.P,U3,46*%
%TO.N,hmi_status1*%
%TA.AperFunction,SMDPad,CuDef*%
G36*
G01*
X144675000Y-61900000D02*
X143350000Y-61900000D01*
G75*
G02*
X143275000Y-61825000I0J75000D01*
G01*
X143275000Y-61675000D01*
G75*
G02*
X143350000Y-61600000I75000J0D01*
G01*
X144675000Y-61600000D01*
G75*
G02*
X144750000Y-61675000I0J-75000D01*
G01*
X144750000Y-61825000D01*
G75*
G02*
X144675000Y-61900000I-75000J0D01*
G01*
G37*
%TD.AperFunction*%
%TO.P,U3,47*%
%TO.N,GND*%
%TA.AperFunction,SMDPad,CuDef*%
G36*
G01*
X144675000Y-62400000D02*
X143350000Y-62400000D01*
G75*
G02*
X143275000Y-62325000I0J75000D01*
G01*
X143275000Y-62175000D01*
G75*
G02*
X143350000Y-62100000I75000J0D01*
G01*
X144675000Y-62100000D01*
G75*
G02*
X144750000Y-62175000I0J-75000D01*
G01*
X144750000Y-62325000D01*
G75*
G02*
X144675000Y-62400000I-75000J0D01*
G01*
G37*
%TD.AperFunction*%
%TO.P,U3,48*%
%TO.N,+3V3*%
%TA.AperFunction,SMDPad,CuDef*%
G36*
G01*
X144675000Y-62900000D02*
X143350000Y-62900000D01*
G75*
G02*
X143275000Y-62825000I0J75000D01*
G01*
X143275000Y-62675000D01*
G75*
G02*
X143350000Y-62600000I75000J0D01*
G01*
X144675000Y-62600000D01*
G75*
G02*
X144750000Y-62675000I0J-75000D01*
G01*
X144750000Y-62825000D01*
G75*
G02*
X144675000Y-62900000I-75000J0D01*
G01*
G37*
%TD.AperFunction*%
%TD*%
%TO.P,R2,2*%
%TO.N,Net-(J1-PadB5)*%
%TA.AperFunction,SMDPad,CuDef*%
G36*
G01*
X153385000Y-47085000D02*
X152835000Y-47085000D01*
G75*
G02*
X152635000Y-46885000I0J200000D01*
G01*
X152635000Y-46485000D01*
G75*
G02*
X152835000Y-46285000I200000J0D01*
G01*
X153385000Y-46285000D01*
G75*
G02*
X153585000Y-46485000I0J-200000D01*
G01*
X153585000Y-46885000D01*
G75*
G02*
X153385000Y-47085000I-200000J0D01*
G01*
G37*
%TD.AperFunction*%
%TO.P,R2,1*%
%TO.N,GND*%
%TA.AperFunction,SMDPad,CuDef*%
G36*
G01*
X153385000Y-48735000D02*
X152835000Y-48735000D01*
G75*
G02*
X152635000Y-48535000I0J200000D01*
G01*
X152635000Y-48135000D01*
G75*
G02*
X152835000Y-47935000I200000J0D01*
G01*
X153385000Y-47935000D01*
G75*
G02*
X153585000Y-48135000I0J-200000D01*
G01*
X153585000Y-48535000D01*
G75*
G02*
X153385000Y-48735000I-200000J0D01*
G01*
G37*
%TD.AperFunction*%
%TD*%
%TO.P,R7,1*%
%TO.N,Net-(R7-Pad1)*%
%TA.AperFunction,SMDPad,CuDef*%
G36*
G01*
X147945000Y-70575000D02*
X147945000Y-70025000D01*
G75*
G02*
X148145000Y-69825000I200000J0D01*
G01*
X148545000Y-69825000D01*
G75*
G02*
X148745000Y-70025000I0J-200000D01*
G01*
X148745000Y-70575000D01*
G75*
G02*
X148545000Y-70775000I-200000J0D01*
G01*
X148145000Y-70775000D01*
G75*
G02*
X147945000Y-70575000I0J200000D01*
G01*
G37*
%TD.AperFunction*%
%TO.P,R7,2*%
%TO.N,GND*%
%TA.AperFunction,SMDPad,CuDef*%
G36*
G01*
X149595000Y-70575000D02*
X149595000Y-70025000D01*
G75*
G02*
X149795000Y-69825000I200000J0D01*
G01*
X150195000Y-69825000D01*
G75*
G02*
X150395000Y-70025000I0J-200000D01*
G01*
X150395000Y-70575000D01*
G75*
G02*
X150195000Y-70775000I-200000J0D01*
G01*
X149795000Y-70775000D01*
G75*
G02*
X149595000Y-70575000I0J200000D01*
G01*
G37*
%TD.AperFunction*%
%TD*%
%TO.P,C11,1*%
%TO.N,GND*%
%TA.AperFunction,SMDPad,CuDef*%
G36*
G01*
X147945000Y-67600000D02*
X147945000Y-67100000D01*
G75*
G02*
X148170000Y-66875000I225000J0D01*
G01*
X148620000Y-66875000D01*
G75*
G02*
X148845000Y-67100000I0J-225000D01*
G01*
X148845000Y-67600000D01*
G75*
G02*
X148620000Y-67825000I-225000J0D01*
G01*
X148170000Y-67825000D01*
G75*
G02*
X147945000Y-67600000I0J225000D01*
G01*
G37*
%TD.AperFunction*%
%TO.P,C11,2*%
%TO.N,+3V3*%
%TA.AperFunction,SMDPad,CuDef*%
G36*
G01*
X149495000Y-67600000D02*
X149495000Y-67100000D01*
G75*
G02*
X149720000Y-66875000I225000J0D01*
G01*
X150170000Y-66875000D01*
G75*
G02*
X150395000Y-67100000I0J-225000D01*
G01*
X150395000Y-67600000D01*
G75*
G02*
X150170000Y-67825000I-225000J0D01*
G01*
X149720000Y-67825000D01*
G75*
G02*
X149495000Y-67600000I0J225000D01*
G01*
G37*
%TD.AperFunction*%
%TD*%
%TO.P,C12,2*%
%TO.N,+3V3*%
%TA.AperFunction,SMDPad,CuDef*%
G36*
G01*
X142520000Y-55055000D02*
X143020000Y-55055000D01*
G75*
G02*
X143245000Y-55280000I0J-225000D01*
G01*
X143245000Y-55730000D01*
G75*
G02*
X143020000Y-55955000I-225000J0D01*
G01*
X142520000Y-55955000D01*
G75*
G02*
X142295000Y-55730000I0J225000D01*
G01*
X142295000Y-55280000D01*
G75*
G02*
X142520000Y-55055000I225000J0D01*
G01*
G37*
%TD.AperFunction*%
%TO.P,C12,1*%
%TO.N,GND*%
%TA.AperFunction,SMDPad,CuDef*%
G36*
G01*
X142520000Y-53505000D02*
X143020000Y-53505000D01*
G75*
G02*
X143245000Y-53730000I0J-225000D01*
G01*
X143245000Y-54180000D01*
G75*
G02*
X143020000Y-54405000I-225000J0D01*
G01*
X142520000Y-54405000D01*
G75*
G02*
X142295000Y-54180000I0J225000D01*
G01*
X142295000Y-53730000D01*
G75*
G02*
X142520000Y-53505000I225000J0D01*
G01*
G37*
%TD.AperFunction*%
%TD*%
%TO.P,C13,1*%
%TO.N,GND*%
%TA.AperFunction,SMDPad,CuDef*%
G36*
G01*
X141715000Y-65600000D02*
X141715000Y-65100000D01*
G75*
G02*
X141940000Y-64875000I225000J0D01*
G01*
X142390000Y-64875000D01*
G75*
G02*
X142615000Y-65100000I0J-225000D01*
G01*
X142615000Y-65600000D01*
G75*
G02*
X142390000Y-65825000I-225000J0D01*
G01*
X141940000Y-65825000D01*
G75*
G02*
X141715000Y-65600000I0J225000D01*
G01*
G37*
%TD.AperFunction*%
%TO.P,C13,2*%
%TO.N,+3V3*%
%TA.AperFunction,SMDPad,CuDef*%
G36*
G01*
X143265000Y-65600000D02*
X143265000Y-65100000D01*
G75*
G02*
X143490000Y-64875000I225000J0D01*
G01*
X143940000Y-64875000D01*
G75*
G02*
X144165000Y-65100000I0J-225000D01*
G01*
X144165000Y-65600000D01*
G75*
G02*
X143940000Y-65825000I-225000J0D01*
G01*
X143490000Y-65825000D01*
G75*
G02*
X143265000Y-65600000I0J225000D01*
G01*
G37*
%TD.AperFunction*%
%TD*%
D16*
%TO.P,D3,3*%
%TO.N,Net-(D3-Pad3)*%
X138920000Y-75100000D03*
%TO.P,D3,2*%
%TO.N,+3V3*%
X141460000Y-75100000D03*
D17*
%TO.P,D3,1*%
%TO.N,Net-(D3-Pad1)*%
X144000000Y-75100000D03*
%TD*%
%TO.P,D4,1*%
%TO.N,Net-(D4-Pad1)*%
X157460000Y-75100000D03*
D16*
%TO.P,D4,2*%
%TO.N,+3V3*%
X154920000Y-75100000D03*
%TO.P,D4,3*%
%TO.N,Net-(D4-Pad3)*%
X152380000Y-75100000D03*
%TD*%
%TO.P,R8,1*%
%TO.N,hmi_status2*%
%TA.AperFunction,SMDPad,CuDef*%
G36*
G01*
X155410000Y-72355000D02*
X155410000Y-71805000D01*
G75*
G02*
X155610000Y-71605000I200000J0D01*
G01*
X156010000Y-71605000D01*
G75*
G02*
X156210000Y-71805000I0J-200000D01*
G01*
X156210000Y-72355000D01*
G75*
G02*
X156010000Y-72555000I-200000J0D01*
G01*
X155610000Y-72555000D01*
G75*
G02*
X155410000Y-72355000I0J200000D01*
G01*
G37*
%TD.AperFunction*%
%TO.P,R8,2*%
%TO.N,Net-(D4-Pad1)*%
%TA.AperFunction,SMDPad,CuDef*%
G36*
G01*
X157060000Y-72355000D02*
X157060000Y-71805000D01*
G75*
G02*
X157260000Y-71605000I200000J0D01*
G01*
X157660000Y-71605000D01*
G75*
G02*
X157860000Y-71805000I0J-200000D01*
G01*
X157860000Y-72355000D01*
G75*
G02*
X157660000Y-72555000I-200000J0D01*
G01*
X157260000Y-72555000D01*
G75*
G02*
X157060000Y-72355000I0J200000D01*
G01*
G37*
%TD.AperFunction*%
%TD*%
%TO.P,R9,2*%
%TO.N,Net-(D4-Pad3)*%
%TA.AperFunction,SMDPad,CuDef*%
G36*
G01*
X153625000Y-72365000D02*
X153625000Y-71815000D01*
G75*
G02*
X153825000Y-71615000I200000J0D01*
G01*
X154225000Y-71615000D01*
G75*
G02*
X154425000Y-71815000I0J-200000D01*
G01*
X154425000Y-72365000D01*
G75*
G02*
X154225000Y-72565000I-200000J0D01*
G01*
X153825000Y-72565000D01*
G75*
G02*
X153625000Y-72365000I0J200000D01*
G01*
G37*
%TD.AperFunction*%
%TO.P,R9,1*%
%TO.N,hmi_error2*%
%TA.AperFunction,SMDPad,CuDef*%
G36*
G01*
X151975000Y-72365000D02*
X151975000Y-71815000D01*
G75*
G02*
X152175000Y-71615000I200000J0D01*
G01*
X152575000Y-71615000D01*
G75*
G02*
X152775000Y-71815000I0J-200000D01*
G01*
X152775000Y-72365000D01*
G75*
G02*
X152575000Y-72565000I-200000J0D01*
G01*
X152175000Y-72565000D01*
G75*
G02*
X151975000Y-72365000I0J200000D01*
G01*
G37*
%TD.AperFunction*%
%TD*%
%TO.P,R10,1*%
%TO.N,uart3_tx*%
%TA.AperFunction,SMDPad,CuDef*%
G36*
G01*
X122815000Y-72975000D02*
X122265000Y-72975000D01*
G75*
G02*
X122065000Y-72775000I0J200000D01*
G01*
X122065000Y-72375000D01*
G75*
G02*
X122265000Y-72175000I200000J0D01*
G01*
X122815000Y-72175000D01*
G75*
G02*
X123015000Y-72375000I0J-200000D01*
G01*
X123015000Y-72775000D01*
G75*
G02*
X122815000Y-72975000I-200000J0D01*
G01*
G37*
%TD.AperFunction*%
%TO.P,R10,2*%
%TO.N,+5V*%
%TA.AperFunction,SMDPad,CuDef*%
G36*
G01*
X122815000Y-71325000D02*
X122265000Y-71325000D01*
G75*
G02*
X122065000Y-71125000I0J200000D01*
G01*
X122065000Y-70725000D01*
G75*
G02*
X122265000Y-70525000I200000J0D01*
G01*
X122815000Y-70525000D01*
G75*
G02*
X123015000Y-70725000I0J-200000D01*
G01*
X123015000Y-71125000D01*
G75*
G02*
X122815000Y-71325000I-200000J0D01*
G01*
G37*
%TD.AperFunction*%
%TD*%
D18*
%TO.N,GND*%
X159550000Y-68990000D03*
X175250000Y-69000000D03*
X175250000Y-54540000D03*
X175260000Y-52010000D03*
X159550000Y-52000000D03*
X159550000Y-53260000D03*
X159550000Y-54540000D03*
X159550000Y-60110000D03*
X155139998Y-58270000D03*
X150990000Y-68830000D03*
X125970000Y-57310000D03*
X124376312Y-50017943D03*
X147340000Y-65880000D03*
X159570000Y-61370002D03*
X142200000Y-49320000D03*
X153100000Y-49320000D03*
D19*
X142160000Y-66330000D03*
X144270000Y-53000000D03*
D18*
X156140000Y-68050000D03*
D19*
X137600000Y-52650000D03*
X137600000Y-60500000D03*
X137600000Y-68350000D03*
X126790000Y-70310000D03*
X123940000Y-63320000D03*
D18*
X128410000Y-69540000D03*
D19*
X142770000Y-53000000D03*
X142560000Y-62710000D03*
D18*
X150969529Y-70260153D03*
X147349988Y-67349988D03*
D19*
X147660000Y-54130000D03*
D18*
%TO.N,+3V3*%
X150990000Y-65880000D03*
X155170000Y-56740000D03*
D19*
X143720000Y-66320000D03*
X144290000Y-56450000D03*
D18*
X156130000Y-66150000D03*
X127149996Y-49940000D03*
D19*
X137600000Y-53640000D03*
X137600000Y-61490000D03*
X137600000Y-69350000D03*
D18*
X151000000Y-67350000D03*
D19*
X142780000Y-56460000D03*
%TO.N,vcc_usb*%
X147650000Y-51930000D03*
X145769998Y-52570000D03*
D18*
%TO.N,e22_nrst*%
X175249998Y-65190000D03*
X158627341Y-64344979D03*
%TO.N,e22_busy*%
X175250000Y-66450000D03*
X157614181Y-64794990D03*
%TO.N,uart1_rx*%
X147890000Y-57380000D03*
D19*
X137600000Y-58500000D03*
D18*
%TO.N,uart1_tx*%
X148980000Y-57370000D03*
D19*
X137600000Y-59500000D03*
D18*
%TO.N,e22_dio1*%
X175230000Y-67730000D03*
X156587020Y-65012978D03*
%TO.N,spi1_sck*%
X175250000Y-61380000D03*
X156645351Y-61470000D03*
%TO.N,spi1_miso*%
X155644231Y-61445801D03*
X175260000Y-63922341D03*
%TO.N,spi1_mosi*%
X175240589Y-62638060D03*
X157370361Y-62639962D03*
%TO.N,uart3_rx*%
X150650000Y-58090000D03*
D19*
X137600000Y-66350000D03*
D18*
%TO.N,uart3_tx*%
X150770000Y-59280000D03*
D19*
X137600000Y-67350000D03*
D18*
%TO.N,Net-(R7-Pad1)*%
X147340000Y-70300000D03*
D19*
X149430000Y-62910000D03*
%TO.N,Net-(C5-Pad1)*%
X148430000Y-62910000D03*
D18*
X147340000Y-68830000D03*
D19*
%TO.N,usb_N*%
X149420000Y-50900000D03*
%TO.N,usb_P*%
X145880000Y-50900000D03*
D18*
%TO.N,e22_nss*%
X175250000Y-60110000D03*
X151672502Y-55837500D03*
%TD*%
D20*
%TO.N,vcc_tng9x*%
X124900000Y-69097500D02*
X124912500Y-69110000D01*
X124900000Y-67320000D02*
X124900000Y-69097500D01*
D21*
X125072500Y-73522500D02*
X127620000Y-76070000D01*
X124912500Y-73362500D02*
X125072500Y-73522500D01*
X124912500Y-69110000D02*
X124912500Y-73362500D01*
D20*
X126800000Y-66529990D02*
X126800000Y-67320000D01*
X125080000Y-66370000D02*
X126640010Y-66370000D01*
X124900000Y-66550000D02*
X125080000Y-66370000D01*
X126640010Y-66370000D02*
X126800000Y-66529990D01*
X124900000Y-67320000D02*
X124900000Y-66550000D01*
%TO.N,GND*%
X148550000Y-65725000D02*
X148395000Y-65880000D01*
D21*
X159265000Y-67730000D02*
X159130000Y-67865000D01*
D20*
X159560000Y-69000000D02*
X159550000Y-68990000D01*
D21*
X160900000Y-69000000D02*
X159560000Y-69000000D01*
X173900000Y-69000000D02*
X175250000Y-69000000D01*
X173900000Y-54540000D02*
X175250000Y-54540000D01*
D20*
X175250000Y-52000000D02*
X175260000Y-52010000D01*
D21*
X173900000Y-52000000D02*
X175250000Y-52000000D01*
X160900000Y-52000000D02*
X159550000Y-52000000D01*
D20*
X159560000Y-53270000D02*
X159550000Y-53260000D01*
D21*
X160900000Y-53270000D02*
X159560000Y-53270000D01*
X160900000Y-54540000D02*
X159550000Y-54540000D01*
X160900000Y-60110000D02*
X159550000Y-60110000D01*
X154070000Y-58275000D02*
X155134998Y-58275000D01*
D20*
X155134998Y-58275000D02*
X155139998Y-58270000D01*
X126830000Y-56950000D02*
X127190000Y-57310000D01*
D21*
X126830000Y-55330000D02*
X126830000Y-56950000D01*
X127190000Y-57310000D02*
X125970000Y-57310000D01*
X124340000Y-51440000D02*
X124340000Y-50054255D01*
D20*
X124340000Y-50054255D02*
X124376312Y-50017943D01*
D21*
X160900000Y-61380000D02*
X159579998Y-61380000D01*
D20*
X159579998Y-61380000D02*
X159570000Y-61370002D01*
D22*
X142200000Y-48325000D02*
X142200000Y-49320000D01*
X153100000Y-48325000D02*
X153100000Y-49320000D01*
D20*
X153545000Y-57750000D02*
X154070000Y-58275000D01*
X152337500Y-57750000D02*
X153545000Y-57750000D01*
X148925000Y-65350000D02*
X148395000Y-65880000D01*
X148925000Y-64162500D02*
X148925000Y-65350000D01*
D21*
X136325000Y-52650000D02*
X137600000Y-52650000D01*
X136325000Y-60500000D02*
X137600000Y-60500000D01*
X136325000Y-68350000D02*
X137600000Y-68350000D01*
X125850000Y-68172500D02*
X126787500Y-69110000D01*
X125850000Y-67320000D02*
X125850000Y-68172500D01*
D20*
X126787500Y-70307500D02*
X126790000Y-70310000D01*
D21*
X126787500Y-69110000D02*
X126787500Y-70307500D01*
X124932500Y-63320000D02*
X123940000Y-63320000D01*
D20*
X128410000Y-68545000D02*
X128410000Y-69540000D01*
D21*
X160900000Y-67730000D02*
X159265000Y-67730000D01*
X142770000Y-53955000D02*
X142770000Y-53000000D01*
X144270000Y-53955000D02*
X142770000Y-53955000D01*
X144270000Y-53955000D02*
X144270000Y-53000000D01*
X142165000Y-65350000D02*
X142165000Y-63880000D01*
D20*
X142165000Y-66325000D02*
X142160000Y-66330000D01*
D21*
X142165000Y-65350000D02*
X142165000Y-66325000D01*
D20*
X143020000Y-62250000D02*
X142560000Y-62710000D01*
X144012500Y-62250000D02*
X143020000Y-62250000D01*
D21*
X142560000Y-62710000D02*
X142190000Y-63080000D01*
D20*
X142190000Y-63855000D02*
X142165000Y-63880000D01*
D21*
X142190000Y-63080000D02*
X142190000Y-63855000D01*
X148395000Y-65880000D02*
X147340000Y-65880000D01*
X148395000Y-65880000D02*
X148395000Y-67350000D01*
D20*
X149945000Y-68830000D02*
X150990000Y-68830000D01*
X149995000Y-70300000D02*
X150929682Y-70300000D01*
X150929682Y-70300000D02*
X150969529Y-70260153D01*
D21*
X148395000Y-67350000D02*
X147350000Y-67350000D01*
D20*
X147350000Y-67350000D02*
X147349988Y-67349988D01*
D21*
X159015000Y-68050000D02*
X159190000Y-67875000D01*
X157460000Y-68050000D02*
X159015000Y-68050000D01*
X157460000Y-68050000D02*
X156140000Y-68050000D01*
D20*
X145900010Y-55812510D02*
X145900010Y-55009308D01*
X145925000Y-55837500D02*
X145900010Y-55812510D01*
X144885702Y-53995000D02*
X144300000Y-53995000D01*
X145900010Y-55009308D02*
X144885702Y-53995000D01*
D22*
X147650000Y-54120000D02*
X147660000Y-54130000D01*
X147650000Y-53100000D02*
X147650000Y-54120000D01*
D20*
%TO.N,Net-(C2-Pad1)*%
X125007500Y-65120000D02*
X124900000Y-65120000D01*
D21*
X126807500Y-63320000D02*
X125007500Y-65120000D01*
D20*
X127845000Y-63320000D02*
X128430000Y-63905000D01*
X126807500Y-63320000D02*
X127845000Y-63320000D01*
D21*
X126940000Y-63187500D02*
X126807500Y-63320000D01*
X126940000Y-61390000D02*
X126940000Y-63187500D01*
D20*
%TO.N,+3V3*%
X126830000Y-51750000D02*
X127140000Y-51440000D01*
D21*
X126830000Y-53430000D02*
X126830000Y-51750000D01*
X159275000Y-66460000D02*
X159130000Y-66315000D01*
D20*
X153545000Y-57250000D02*
X154070000Y-56725000D01*
X152337500Y-57250000D02*
X153545000Y-57250000D01*
X149425000Y-65360000D02*
X149945000Y-65880000D01*
X149425000Y-64162500D02*
X149425000Y-65360000D01*
X144012500Y-63582500D02*
X143715000Y-63880000D01*
X144012500Y-62750000D02*
X144012500Y-63582500D01*
X145425000Y-64162500D02*
X144942500Y-64162500D01*
X144660000Y-63880000D02*
X143715000Y-63880000D01*
X144942500Y-64162500D02*
X144660000Y-63880000D01*
X145132500Y-55545000D02*
X145425000Y-55837500D01*
X144300000Y-55545000D02*
X145132500Y-55545000D01*
D21*
X127140000Y-51440000D02*
X127140000Y-49949996D01*
X127140000Y-49949996D02*
X127149996Y-49940000D01*
D20*
X137590000Y-53650000D02*
X137600000Y-53640000D01*
D21*
X136325000Y-53650000D02*
X137590000Y-53650000D01*
D20*
X137590000Y-61500000D02*
X137600000Y-61490000D01*
D21*
X136325000Y-61500000D02*
X137590000Y-61500000D01*
X136325000Y-69350000D02*
X137600000Y-69350000D01*
X160900000Y-66460000D02*
X159275000Y-66460000D01*
D20*
X142770000Y-56450000D02*
X142780000Y-56460000D01*
D21*
X142770000Y-55505000D02*
X142770000Y-56450000D01*
D20*
X144270000Y-56430000D02*
X144290000Y-56450000D01*
D21*
X144270000Y-55505000D02*
X144270000Y-56430000D01*
X144270000Y-55505000D02*
X142770000Y-55505000D01*
D20*
X143720000Y-65355000D02*
X143715000Y-65350000D01*
D21*
X143720000Y-66320000D02*
X143720000Y-65355000D01*
X143715000Y-65350000D02*
X143715000Y-63880000D01*
D20*
X155165000Y-56735000D02*
X155170000Y-56740000D01*
D21*
X154090000Y-56735000D02*
X155165000Y-56735000D01*
X149945000Y-67350000D02*
X151000000Y-67350000D01*
X149945000Y-65880000D02*
X150990000Y-65880000D01*
X149945000Y-65880000D02*
X149945000Y-67350000D01*
X159015000Y-66150000D02*
X159190000Y-66325000D01*
X157460000Y-66150000D02*
X159015000Y-66150000D01*
X157460000Y-66150000D02*
X156130000Y-66150000D01*
%TO.N,+5V*%
X124830000Y-56870000D02*
X124390000Y-57310000D01*
X124830000Y-54380000D02*
X124830000Y-56870000D01*
D20*
X124377500Y-57297500D02*
X124390000Y-57310000D01*
D21*
X124840000Y-57760000D02*
X124390000Y-57310000D01*
X124840000Y-59440000D02*
X124840000Y-57760000D01*
X124840000Y-61390000D02*
X124840000Y-59180000D01*
D20*
X123470000Y-57310000D02*
X124390000Y-57310000D01*
X122540000Y-58240000D02*
X123470000Y-57310000D01*
X122540000Y-70925000D02*
X122540000Y-58240000D01*
D21*
%TO.N,vcc_usb*%
X147650000Y-50900000D02*
X147650000Y-51930000D01*
X143579998Y-50380000D02*
X145769998Y-52570000D01*
X138810000Y-48200000D02*
X140990000Y-50380000D01*
X140990000Y-50380000D02*
X143579998Y-50380000D01*
X131720000Y-48200000D02*
X138810000Y-48200000D01*
X128940000Y-50980000D02*
X131720000Y-48200000D01*
X127890000Y-59440000D02*
X128940000Y-58390000D01*
X128940000Y-58390000D02*
X128940000Y-50980000D01*
X126940000Y-59440000D02*
X127890000Y-59440000D01*
D20*
%TO.N,swclk*%
X141160000Y-57250000D02*
X144012500Y-57250000D01*
X140310000Y-56400000D02*
X141160000Y-57250000D01*
X140310000Y-52070000D02*
X140310000Y-56400000D01*
X138890000Y-50650000D02*
X140310000Y-52070000D01*
X136325000Y-50650000D02*
X138890000Y-50650000D01*
%TO.N,e22_nrst*%
X173900000Y-65190000D02*
X175249998Y-65190000D01*
X154760000Y-62250000D02*
X155230000Y-62720000D01*
X155230000Y-62720000D02*
X156422362Y-62720000D01*
X152337500Y-62250000D02*
X154760000Y-62250000D01*
X158227342Y-63944980D02*
X158627341Y-64344979D01*
X156422362Y-62720000D02*
X157647342Y-63944980D01*
X157647342Y-63944980D02*
X158227342Y-63944980D01*
%TO.N,e22_busy*%
X175240000Y-66460000D02*
X175250000Y-66450000D01*
X173900000Y-66460000D02*
X175240000Y-66460000D01*
X156019191Y-63200000D02*
X157614181Y-64794990D01*
X152337500Y-62750000D02*
X152787500Y-63200000D01*
X152787500Y-63200000D02*
X156019191Y-63200000D01*
%TO.N,e22_dio2*%
X159352342Y-63598753D02*
X157914976Y-62161387D01*
X157914976Y-62161387D02*
X157914976Y-60825605D01*
X157339371Y-60250000D02*
X152337500Y-60250000D01*
X157914976Y-60825605D02*
X157339371Y-60250000D01*
X159352342Y-64642342D02*
X159352342Y-63598753D01*
X160900000Y-65190000D02*
X159900000Y-65190000D01*
X159900000Y-65190000D02*
X159352342Y-64642342D01*
%TO.N,uart1_rx*%
X147925000Y-57345000D02*
X147890000Y-57380000D01*
X147925000Y-55837500D02*
X147925000Y-57345000D01*
X136325000Y-58500000D02*
X137600000Y-58500000D01*
%TO.N,uart1_tx*%
X148425000Y-56815000D02*
X148980000Y-57370000D01*
X148425000Y-55837500D02*
X148425000Y-56815000D01*
X137600000Y-59500000D02*
X136325000Y-59500000D01*
%TO.N,e22_dio1*%
X173900000Y-67730000D02*
X175230000Y-67730000D01*
X155736542Y-64162500D02*
X156587020Y-65012978D01*
X155736542Y-64162500D02*
X150925000Y-64162500D01*
%TO.N,e22_txen*%
X158364987Y-61974987D02*
X160310000Y-63920000D01*
X157475782Y-59750000D02*
X158364987Y-60639205D01*
X152337500Y-59750000D02*
X157475782Y-59750000D01*
X158364987Y-60639205D02*
X158364987Y-61974987D01*
X160310000Y-63920000D02*
X160900000Y-63920000D01*
%TO.N,e22_rxen*%
X153180000Y-59250000D02*
X152337500Y-59250000D01*
X158814998Y-60452805D02*
X157612193Y-59250000D01*
X158814998Y-61774998D02*
X158814998Y-60452805D01*
X159690000Y-62650000D02*
X158814998Y-61774998D01*
X157612193Y-59250000D02*
X153180000Y-59250000D01*
X160900000Y-62650000D02*
X159690000Y-62650000D01*
%TO.N,spi1_sck*%
X173900000Y-61380000D02*
X175250000Y-61380000D01*
X154920000Y-61750000D02*
X155415002Y-62245002D01*
X155870349Y-62245002D02*
X156645351Y-61470000D01*
X153562500Y-61750000D02*
X154920000Y-61750000D01*
X155415002Y-62245002D02*
X155870349Y-62245002D01*
X153562500Y-61750000D02*
X152337500Y-61750000D01*
%TO.N,spi1_miso*%
X155448430Y-61250000D02*
X155644231Y-61445801D01*
X153562500Y-61250000D02*
X155448430Y-61250000D01*
X153562500Y-61250000D02*
X152337500Y-61250000D01*
X175257659Y-63920000D02*
X175260000Y-63922341D01*
X173900000Y-63920000D02*
X175257659Y-63920000D01*
%TO.N,spi1_mosi*%
X175228649Y-62650000D02*
X175240589Y-62638060D01*
X173900000Y-62650000D02*
X175228649Y-62650000D01*
X157370361Y-61130361D02*
X157370361Y-62639962D01*
X153562500Y-60750000D02*
X154300000Y-60750000D01*
X154335002Y-60714998D02*
X156954998Y-60714998D01*
X156954998Y-60714998D02*
X157370361Y-61130361D01*
X154300000Y-60750000D02*
X154335002Y-60714998D01*
X153562500Y-60750000D02*
X152337500Y-60750000D01*
%TO.N,Net-(D3-Pad1)*%
X143995000Y-75095000D02*
X144000000Y-75100000D01*
X143995000Y-72080000D02*
X143995000Y-75095000D01*
%TO.N,Net-(D4-Pad1)*%
X157460000Y-72080000D02*
X157460000Y-75100000D01*
%TO.N,swdio*%
X138200000Y-51650000D02*
X136325000Y-51650000D01*
X139230000Y-52680000D02*
X138200000Y-51650000D01*
X139230000Y-56750000D02*
X139230000Y-52680000D01*
X140230000Y-57750000D02*
X139230000Y-56750000D01*
X143160000Y-57750000D02*
X144012500Y-57750000D01*
X140230000Y-57750000D02*
X143160000Y-57750000D01*
X146425000Y-56875000D02*
X146425000Y-55837500D01*
X145550000Y-57750000D02*
X146425000Y-56875000D01*
X144012500Y-57750000D02*
X145550000Y-57750000D01*
%TO.N,uart3_rx*%
X151674680Y-58250000D02*
X150810000Y-58250000D01*
X150810000Y-58250000D02*
X150650000Y-58090000D01*
X136325000Y-66350000D02*
X137600000Y-66350000D01*
X131850001Y-75220001D02*
X132700000Y-76070000D01*
X131850001Y-70049999D02*
X131850001Y-75220001D01*
X135550000Y-66350000D02*
X131850001Y-70049999D01*
X136325000Y-66350000D02*
X135550000Y-66350000D01*
%TO.N,uart3_tx*%
X151300000Y-58750000D02*
X150770000Y-59280000D01*
X152337500Y-58750000D02*
X151300000Y-58750000D01*
X136325000Y-67350000D02*
X137600000Y-67350000D01*
X122540000Y-72575000D02*
X122540000Y-76070000D01*
D22*
%TO.N,Net-(J1-PadB5)*%
X152275000Y-47500000D02*
X153100000Y-46675000D01*
X149290000Y-47500000D02*
X152275000Y-47500000D01*
X149140000Y-47650000D02*
X149290000Y-47500000D01*
X149140000Y-48200000D02*
X149140000Y-47650000D01*
%TO.N,Net-(J1-PadA5)*%
X143025000Y-47500000D02*
X142200000Y-46675000D01*
X145990000Y-47500000D02*
X143025000Y-47500000D01*
X146140000Y-47350000D02*
X145990000Y-47500000D01*
X146140000Y-46800000D02*
X146140000Y-47350000D01*
D20*
%TO.N,Net-(R3-Pad2)*%
X127985000Y-65120000D02*
X128410000Y-65545000D01*
X126800000Y-65120000D02*
X127985000Y-65120000D01*
X128410000Y-65545000D02*
X128410000Y-66895000D01*
%TO.N,Net-(R7-Pad1)*%
X148345000Y-70300000D02*
X147340000Y-70300000D01*
X144012500Y-60750000D02*
X147940000Y-60750000D01*
X149430000Y-62240000D02*
X149430000Y-62910000D01*
X147940000Y-60750000D02*
X149430000Y-62240000D01*
%TO.N,Net-(C5-Pad1)*%
X148425000Y-62915000D02*
X148430000Y-62910000D01*
X148425000Y-64162500D02*
X148425000Y-62915000D01*
X148395000Y-68830000D02*
X147340000Y-68830000D01*
%TO.N,Net-(D3-Pad3)*%
X138915000Y-75095000D02*
X138920000Y-75100000D01*
X138915000Y-72090000D02*
X138915000Y-75095000D01*
%TO.N,Net-(D4-Pad3)*%
X152375000Y-75095000D02*
X152380000Y-75100000D01*
X154025000Y-73455000D02*
X152380000Y-75100000D01*
X154025000Y-72090000D02*
X154025000Y-73455000D01*
%TO.N,hmi_error1*%
X140565000Y-62825000D02*
X140565000Y-72090000D01*
X142140000Y-61250000D02*
X140565000Y-62825000D01*
X144012500Y-61250000D02*
X142140000Y-61250000D01*
%TO.N,hmi_status1*%
X141290000Y-71025000D02*
X142345000Y-72080000D01*
X141290000Y-62860000D02*
X141290000Y-71025000D01*
X142400000Y-61750000D02*
X141290000Y-62860000D01*
X144012500Y-61750000D02*
X142400000Y-61750000D01*
%TO.N,hmi_status2*%
X146497000Y-70529998D02*
X146497000Y-70530002D01*
X146507336Y-67580340D02*
X146507339Y-67580343D01*
X154950000Y-71220000D02*
X155810000Y-72080000D01*
X146507339Y-70519659D02*
X146497000Y-70529998D01*
X146507336Y-65639662D02*
X146507336Y-67580340D01*
X146497000Y-70530002D02*
X147186998Y-71220000D01*
X146925000Y-65221998D02*
X146507336Y-65639662D01*
X147186998Y-71220000D02*
X154950000Y-71220000D01*
X146507339Y-67580343D02*
X146507339Y-70519659D01*
X146925000Y-64162500D02*
X146925000Y-65221998D01*
%TO.N,hmi_error2*%
X147420588Y-72090000D02*
X152375000Y-72090000D01*
X146046989Y-65463599D02*
X146046989Y-70716401D01*
X146046989Y-70716401D02*
X147420588Y-72090000D01*
X146425000Y-65085588D02*
X146046989Y-65463599D01*
X146425000Y-64162500D02*
X146425000Y-65085588D01*
D22*
%TO.N,usb_N*%
X149420000Y-50900000D02*
X148600000Y-50900000D01*
X148600000Y-50900000D02*
X148600000Y-53100000D01*
X147650000Y-54790000D02*
X147425000Y-55015000D01*
X147880000Y-54790000D02*
X147650000Y-54790000D01*
X148600000Y-54070000D02*
X147880000Y-54790000D01*
X147425000Y-55015000D02*
X147425000Y-55837500D01*
X148600000Y-53100000D02*
X148600000Y-54070000D01*
X147140000Y-48042878D02*
X147140000Y-48200000D01*
X148140000Y-47042878D02*
X147140000Y-48042878D01*
X148140000Y-46800000D02*
X148140000Y-47042878D01*
%TO.N,usb_P*%
X145880000Y-50900000D02*
X146700000Y-50900000D01*
X146700000Y-50900000D02*
X146700000Y-53100000D01*
X146925000Y-54865000D02*
X146925000Y-55837500D01*
X146700000Y-54640000D02*
X146925000Y-54865000D01*
X146700000Y-53100000D02*
X146700000Y-54640000D01*
D20*
%TO.N,e22_nss*%
X173900000Y-60110000D02*
X175250000Y-60110000D01*
X150925000Y-55837500D02*
X151672502Y-55837500D01*
%TD*%
M02*
