%TF.GenerationSoftware,KiCad,Pcbnew,5.1.8-db9833491~87~ubuntu20.04.1*%
%TF.CreationDate,2020-11-05T18:08:50+01:00*%
%TF.ProjectId,rosalyn-tx,726f7361-6c79-46e2-9d74-782e6b696361,v1.0*%
%TF.SameCoordinates,Original*%
%TF.FileFunction,Soldermask,Bot*%
%TF.FilePolarity,Negative*%
%FSLAX46Y46*%
G04 Gerber Fmt 4.6, Leading zero omitted, Abs format (unit mm)*
G04 Created by KiCad (PCBNEW 5.1.8-db9833491~87~ubuntu20.04.1) date 2020-11-05 18:08:50*
%MOMM*%
%LPD*%
G01*
G04 APERTURE LIST*
%ADD10R,1.700000X1.700000*%
%ADD11O,1.700000X1.700000*%
%ADD12C,1.800000*%
%ADD13R,1.800000X1.800000*%
G04 APERTURE END LIST*
%TO.C,J1*%
G36*
G01*
X144590000Y-49630000D02*
X144590000Y-49230000D01*
G75*
G02*
X144790000Y-49030000I200000J0D01*
G01*
X146490000Y-49030000D01*
G75*
G02*
X146690000Y-49230000I0J-200000D01*
G01*
X146690000Y-49630000D01*
G75*
G02*
X146490000Y-49830000I-200000J0D01*
G01*
X144790000Y-49830000D01*
G75*
G02*
X144590000Y-49630000I0J200000D01*
G01*
G37*
G36*
G01*
X148590000Y-49630000D02*
X148590000Y-49230000D01*
G75*
G02*
X148790000Y-49030000I200000J0D01*
G01*
X150490000Y-49030000D01*
G75*
G02*
X150690000Y-49230000I0J-200000D01*
G01*
X150690000Y-49630000D01*
G75*
G02*
X150490000Y-49830000I-200000J0D01*
G01*
X148790000Y-49830000D01*
G75*
G02*
X148590000Y-49630000I0J200000D01*
G01*
G37*
G36*
G01*
X148590000Y-45770000D02*
X148590000Y-45370000D01*
G75*
G02*
X148790000Y-45170000I200000J0D01*
G01*
X150490000Y-45170000D01*
G75*
G02*
X150690000Y-45370000I0J-200000D01*
G01*
X150690000Y-45770000D01*
G75*
G02*
X150490000Y-45970000I-200000J0D01*
G01*
X148790000Y-45970000D01*
G75*
G02*
X148590000Y-45770000I0J200000D01*
G01*
G37*
G36*
G01*
X144590000Y-45770000D02*
X144590000Y-45370000D01*
G75*
G02*
X144790000Y-45170000I200000J0D01*
G01*
X146490000Y-45170000D01*
G75*
G02*
X146690000Y-45370000I0J-200000D01*
G01*
X146690000Y-45770000D01*
G75*
G02*
X146490000Y-45970000I-200000J0D01*
G01*
X144790000Y-45970000D01*
G75*
G02*
X144590000Y-45770000I0J200000D01*
G01*
G37*
G36*
G01*
X150390000Y-47000000D02*
X150390000Y-46600000D01*
G75*
G02*
X150590000Y-46400000I200000J0D01*
G01*
X150990000Y-46400000D01*
G75*
G02*
X151190000Y-46600000I0J-200000D01*
G01*
X151190000Y-47000000D01*
G75*
G02*
X150990000Y-47200000I-200000J0D01*
G01*
X150590000Y-47200000D01*
G75*
G02*
X150390000Y-47000000I0J200000D01*
G01*
G37*
G36*
G01*
X149490000Y-47000000D02*
X149490000Y-46600000D01*
G75*
G02*
X149690000Y-46400000I200000J0D01*
G01*
X150090000Y-46400000D01*
G75*
G02*
X150290000Y-46600000I0J-200000D01*
G01*
X150290000Y-47000000D01*
G75*
G02*
X150090000Y-47200000I-200000J0D01*
G01*
X149690000Y-47200000D01*
G75*
G02*
X149490000Y-47000000I0J200000D01*
G01*
G37*
G36*
G01*
X147690000Y-47000000D02*
X147690000Y-46600000D01*
G75*
G02*
X147890000Y-46400000I200000J0D01*
G01*
X148290000Y-46400000D01*
G75*
G02*
X148490000Y-46600000I0J-200000D01*
G01*
X148490000Y-47000000D01*
G75*
G02*
X148290000Y-47200000I-200000J0D01*
G01*
X147890000Y-47200000D01*
G75*
G02*
X147690000Y-47000000I0J200000D01*
G01*
G37*
G36*
G01*
X146790000Y-47000000D02*
X146790000Y-46600000D01*
G75*
G02*
X146990000Y-46400000I200000J0D01*
G01*
X147390000Y-46400000D01*
G75*
G02*
X147590000Y-46600000I0J-200000D01*
G01*
X147590000Y-47000000D01*
G75*
G02*
X147390000Y-47200000I-200000J0D01*
G01*
X146990000Y-47200000D01*
G75*
G02*
X146790000Y-47000000I0J200000D01*
G01*
G37*
G36*
G01*
X145890000Y-47000000D02*
X145890000Y-46600000D01*
G75*
G02*
X146090000Y-46400000I200000J0D01*
G01*
X146490000Y-46400000D01*
G75*
G02*
X146690000Y-46600000I0J-200000D01*
G01*
X146690000Y-47000000D01*
G75*
G02*
X146490000Y-47200000I-200000J0D01*
G01*
X146090000Y-47200000D01*
G75*
G02*
X145890000Y-47000000I0J200000D01*
G01*
G37*
G36*
G01*
X144990000Y-47000000D02*
X144990000Y-46600000D01*
G75*
G02*
X145190000Y-46400000I200000J0D01*
G01*
X145590000Y-46400000D01*
G75*
G02*
X145790000Y-46600000I0J-200000D01*
G01*
X145790000Y-47000000D01*
G75*
G02*
X145590000Y-47200000I-200000J0D01*
G01*
X145190000Y-47200000D01*
G75*
G02*
X144990000Y-47000000I0J200000D01*
G01*
G37*
G36*
G01*
X144090000Y-47000000D02*
X144090000Y-46600000D01*
G75*
G02*
X144290000Y-46400000I200000J0D01*
G01*
X144690000Y-46400000D01*
G75*
G02*
X144890000Y-46600000I0J-200000D01*
G01*
X144890000Y-47000000D01*
G75*
G02*
X144690000Y-47200000I-200000J0D01*
G01*
X144290000Y-47200000D01*
G75*
G02*
X144090000Y-47000000I0J200000D01*
G01*
G37*
G36*
G01*
X144090000Y-48400000D02*
X144090000Y-48000000D01*
G75*
G02*
X144290000Y-47800000I200000J0D01*
G01*
X144690000Y-47800000D01*
G75*
G02*
X144890000Y-48000000I0J-200000D01*
G01*
X144890000Y-48400000D01*
G75*
G02*
X144690000Y-48600000I-200000J0D01*
G01*
X144290000Y-48600000D01*
G75*
G02*
X144090000Y-48400000I0J200000D01*
G01*
G37*
G36*
G01*
X144990000Y-48400000D02*
X144990000Y-48000000D01*
G75*
G02*
X145190000Y-47800000I200000J0D01*
G01*
X145590000Y-47800000D01*
G75*
G02*
X145790000Y-48000000I0J-200000D01*
G01*
X145790000Y-48400000D01*
G75*
G02*
X145590000Y-48600000I-200000J0D01*
G01*
X145190000Y-48600000D01*
G75*
G02*
X144990000Y-48400000I0J200000D01*
G01*
G37*
G36*
G01*
X146790000Y-48400000D02*
X146790000Y-48000000D01*
G75*
G02*
X146990000Y-47800000I200000J0D01*
G01*
X147390000Y-47800000D01*
G75*
G02*
X147590000Y-48000000I0J-200000D01*
G01*
X147590000Y-48400000D01*
G75*
G02*
X147390000Y-48600000I-200000J0D01*
G01*
X146990000Y-48600000D01*
G75*
G02*
X146790000Y-48400000I0J200000D01*
G01*
G37*
G36*
G01*
X150390000Y-48400000D02*
X150390000Y-48000000D01*
G75*
G02*
X150590000Y-47800000I200000J0D01*
G01*
X150990000Y-47800000D01*
G75*
G02*
X151190000Y-48000000I0J-200000D01*
G01*
X151190000Y-48400000D01*
G75*
G02*
X150990000Y-48600000I-200000J0D01*
G01*
X150590000Y-48600000D01*
G75*
G02*
X150390000Y-48400000I0J200000D01*
G01*
G37*
G36*
G01*
X149490000Y-48400000D02*
X149490000Y-48000000D01*
G75*
G02*
X149690000Y-47800000I200000J0D01*
G01*
X150090000Y-47800000D01*
G75*
G02*
X150290000Y-48000000I0J-200000D01*
G01*
X150290000Y-48400000D01*
G75*
G02*
X150090000Y-48600000I-200000J0D01*
G01*
X149690000Y-48600000D01*
G75*
G02*
X149490000Y-48400000I0J200000D01*
G01*
G37*
G36*
G01*
X148590000Y-48400000D02*
X148590000Y-48000000D01*
G75*
G02*
X148790000Y-47800000I200000J0D01*
G01*
X149190000Y-47800000D01*
G75*
G02*
X149390000Y-48000000I0J-200000D01*
G01*
X149390000Y-48400000D01*
G75*
G02*
X149190000Y-48600000I-200000J0D01*
G01*
X148790000Y-48600000D01*
G75*
G02*
X148590000Y-48400000I0J200000D01*
G01*
G37*
G36*
G01*
X147690000Y-48400000D02*
X147690000Y-48000000D01*
G75*
G02*
X147890000Y-47800000I200000J0D01*
G01*
X148290000Y-47800000D01*
G75*
G02*
X148490000Y-48000000I0J-200000D01*
G01*
X148490000Y-48400000D01*
G75*
G02*
X148290000Y-48600000I-200000J0D01*
G01*
X147890000Y-48600000D01*
G75*
G02*
X147690000Y-48400000I0J200000D01*
G01*
G37*
%TD*%
D10*
%TO.C,J3*%
X122540000Y-76070000D03*
D11*
X125080000Y-76070000D03*
X127620000Y-76070000D03*
X130160000Y-76070000D03*
X132700000Y-76070000D03*
%TD*%
D12*
%TO.C,D3*%
X138920000Y-75100000D03*
X141460000Y-75100000D03*
D13*
X144000000Y-75100000D03*
%TD*%
%TO.C,D4*%
X157460000Y-75100000D03*
D12*
X154920000Y-75100000D03*
X152380000Y-75100000D03*
%TD*%
M02*
